<svg width="1080" height="180" viewBox="0 0 1080 180" fill="none" xmlns="http://www.w3.org/2000/svg">
<g clip-path="url(#clip0)">
<path fill-rule="evenodd" clip-rule="evenodd" d="M889.07 180H884.477L881.39 178.502L858.161 167.23L858.685 174.73L869.546 180H864.955L858.837 177.032L859.044 180H857.039L856.599 173.724L856.61 173.729L856.085 166.224L856.075 166.219L855.231 154.119L855.241 154.123L854.715 146.631L854.699 146.623L854.349 141.583L860.228 137.615L860.235 137.619L866.491 133.401L866.485 133.398L876.565 126.594L876.572 126.597L882.819 122.383L882.811 122.379L892.892 115.58L892.898 115.583L899.144 111.372H899.143L907.303 105.867L907.302 105.866L917.382 99.066L966.807 123.047C972.487 125.804 978.544 128.718 984.651 131.357C990.681 133.545 997.11 135.444 1003.7 136.978C1009.89 138.078 1016.59 139.075 1024.12 140.018C1030.75 140.849 1037.81 141.755 1044.78 142.878C1052.03 144.041 1058.57 145.474 1064.8 147.262C1069.99 148.745 1075.06 150.579 1080 152.752V154.942C1074.9 152.646 1069.63 150.722 1064.25 149.184C1058.1 147.42 1051.63 146.002 1044.47 144.852C1037.52 143.734 1030.48 142.832 1023.87 142.002C1016.3 141.056 1009.58 140.052 1003.3 138.936C996.578 137.373 990.075 135.451 983.914 133.216C977.714 130.538 971.634 127.613 965.934 124.846L917.546 101.369L911.304 105.579L963.094 130.708C966.005 132.108 968.891 133.484 971.782 134.818L972.094 134.962C973.529 135.622 974.967 136.27 976.408 136.905L976.518 136.953C977.992 137.6 979.473 138.233 980.963 138.848C987.305 140.953 993.802 142.56 1000.39 143.652C1006.27 144.617 1012.66 145.383 1021.12 146.137C1022.93 146.3 1024.74 146.465 1026.55 146.632L1027.46 146.718C1028.51 146.818 1029.56 146.92 1030.61 147.024C1031.6 147.123 1032.58 147.224 1033.57 147.327L1034.13 147.385C1034.87 147.464 1035.6 147.544 1036.32 147.625L1036.8 147.677C1037.47 147.753 1038.13 147.83 1038.79 147.908L1039.53 147.995C1040.05 148.058 1040.57 148.123 1041.08 148.187L1042.12 148.315C1049.5 149.265 1056.13 150.535 1062.39 152.199C1064.05 152.639 1065.69 153.116 1067.31 153.626C1071.64 154.989 1075.88 156.636 1080 158.555V160.768C1075.7 158.713 1071.25 156.964 1066.7 155.534C1065.11 155.03 1063.5 154.563 1061.88 154.134C1055.69 152.491 1049.15 151.237 1041.87 150.3C1041.47 150.248 1041.06 150.2 1040.66 150.15C1040.22 150.095 1039.77 150.038 1039.32 149.984L1038.31 149.866C1037.76 149.801 1037.2 149.736 1036.65 149.673L1035.8 149.579C1035.2 149.513 1034.6 149.447 1034.01 149.384L1033.03 149.28C1032.51 149.227 1031.99 149.172 1031.47 149.121L1029.98 148.972L1029.01 148.875C1028.19 148.796 1027.36 148.718 1026.54 148.64C1024.74 148.471 1022.88 148.302 1020.94 148.13C1012.43 147.372 1006 146.6 1000.07 145.627C993.364 144.516 986.753 142.881 980.301 140.736H980.3L980.234 140.711C977.201 139.455 974.193 138.137 971.213 136.758L971.197 136.75C968.194 135.361 965.201 133.947 962.22 132.511L909.384 106.876L903.141 111.087L959.377 138.373C965.623 141.355 971.286 144.018 977.283 146.387C983.721 148.339 990.309 149.755 996.981 150.619C1002.92 151.386 1009.42 151.94 1018.04 152.412C1026.03 152.848 1032.71 153.27 1039.38 153.914C1046.87 154.638 1053.58 155.739 1059.91 157.279C1066.62 158.911 1073 161.181 1078.87 164.025C1079.25 164.208 1079.62 164.394 1080 164.583V166.837C1079.37 166.51 1078.74 166.19 1078.1 165.877L1078 165.827C1072.26 163.046 1066.02 160.825 1059.44 159.226C1053.21 157.709 1046.58 156.624 1039.19 155.908C1031.86 155.198 1024.37 154.764 1017.93 154.412C1009.29 153.939 1002.75 153.382 996.725 152.605C989.93 151.724 983.22 150.282 976.663 148.292L976.623 148.276L976.586 148.263C976.511 148.232 976.436 148.199 976.36 148.169C970.386 145.802 964.738 143.149 958.508 140.177L901.223 112.383L894.979 116.593L955.654 146.031C961.102 148.615 967.285 151.547 973.729 153.67C979.751 155.652 986.221 156.974 993.509 157.71C999.564 158.322 1006.15 158.69 1014.86 158.9C1021.47 159.059 1029.13 159.268 1036.51 159.757C1044.13 160.259 1050.94 161.187 1057.31 162.593C1064.12 164.093 1070.54 166.292 1076.39 169.13L1076.56 169.21C1077.72 169.777 1078.87 170.372 1080 170.994V173.287C1078.59 172.484 1077.15 171.725 1075.69 171.011L1075.53 170.933C1069.81 168.163 1063.54 166.015 1056.89 164.551C1050.61 163.166 1043.9 162.252 1036.38 161.756C1029.02 161.27 1021.39 161.061 1014.82 160.903C1006.07 160.693 999.44 160.322 993.31 159.703C985.872 158.951 979.262 157.6 973.105 155.573C966.559 153.416 960.308 150.453 954.794 147.841L893.052 117.885L886.809 122.095L951.935 153.695C957.377 156.262 963.555 159.175 970.045 161.241C976.024 163.142 982.724 164.404 989.959 164.989C996.068 165.484 1002.93 165.706 1011.54 165.69C1019.03 165.675 1026.34 165.684 1033.48 165.952C1041.24 166.24 1048.13 166.995 1054.55 168.259C1061.46 169.622 1067.92 171.746 1073.76 174.576L1073.91 174.648C1075.99 175.666 1078.02 176.782 1080 177.992V180H1079.44C1077.32 178.682 1075.13 177.473 1072.89 176.379C1067.21 173.625 1060.91 171.554 1054.16 170.227C1047.84 168.981 1041.06 168.239 1033.41 167.953C1026.3 167.688 1019.02 167.68 1011.55 167.694C1002.88 167.711 995.964 167.486 989.799 166.987C982.418 166.39 975.569 165.1 969.443 163.15C962.836 161.048 956.589 158.104 951.077 155.507L884.897 123.395L878.651 127.605L948.219 161.36C953.672 163.91 959.867 166.81 966.347 168.861C972.366 170.765 979.082 171.986 986.308 172.489C992.572 172.925 999.481 173.039 1008.05 172.849L1008.65 172.836C1015.76 172.679 1023.11 172.516 1030.23 172.598C1038.11 172.688 1045.09 173.278 1051.55 174.401C1058.14 175.55 1064.29 177.432 1069.84 180H1064.65C1060.45 178.416 1055.95 177.202 1051.2 176.376C1044.85 175.271 1037.98 174.69 1030.21 174.602C1023.12 174.52 1015.79 174.682 1008.69 174.839L1008.1 174.852C999.463 175.045 992.496 174.929 986.17 174.488C978.774 173.972 971.901 172.722 965.743 170.771C959.123 168.676 952.874 165.751 947.36 163.17L876.725 128.9L870.481 133.113L926.796 160.438C932.696 163.282 938.605 166.128 944.529 168.962C950.159 171.655 956.193 174.46 962.625 176.554C967.86 178.244 973.57 179.4 979.636 180H967.492C965.646 179.556 963.817 179.042 962.01 178.46C955.46 176.326 949.357 173.49 943.67 170.77C937.752 167.937 931.839 165.094 925.93 162.243L868.57 134.412L862.323 138.624L925.859 169.441C930.832 171.833 935.817 174.23 940.813 176.618H940.812C943.228 177.779 945.659 178.906 948.106 180H943.276C942.163 179.48 941.052 178.955 939.944 178.425C935.047 176.086 930.164 173.738 925.287 171.391L922.201 169.907L860.391 139.918L856.423 142.594L856.613 145.316L920.18 176.154C922.845 177.436 925.512 178.718 928.182 180H923.542L922.439 179.47L918.481 177.57L856.792 147.638L857.314 155.124L908.584 180H903.989L857.466 157.427L857.99 164.925L889.07 180ZM1036.34 180H1017.72C1020.71 179.911 1023.71 179.85 1026.71 179.818C1030.08 179.786 1033.28 179.846 1036.34 180Z" fill="white" fill-opacity="0.16"/>
<path d="M425.176 179.469H413.53L412.877 183.565H382.788L382.195 179.217C369.557 179.206 362.531 179.195 361.128 179.195C360.342 173.96 360.487 169.885 360.971 167.979C363.885 159.95 367.308 158.121 374.625 157.026C380.115 156.226 385.654 155.799 391.205 155.734C389.633 157.256 388.968 159.775 390.697 164.135C392.414 168.483 397.228 172.525 401.412 172.525C405.597 172.525 408.547 168.746 408.995 164.135C408.995 164.069 408.995 164.003 408.995 163.937C410.023 164.408 411.111 164.726 412.248 164.89C414.631 165.208 416.832 162.984 419.069 160.75C419.323 160.487 419.589 160.213 419.879 159.929C423.229 162.393 425.164 166.095 425.176 170.005C425.176 171.265 425.176 174.42 425.176 179.469Z" fill="#3399FF"/>
<path d="M382.788 183.576C370.283 183.576 363.341 183.576 361.95 183.576C361.6 182.043 361.333 180.575 361.14 179.195C362.543 179.195 369.569 179.206 382.207 179.217L382.788 183.576Z" fill="#FFB9A3"/>
<path d="M425.176 183.576H412.877L413.53 179.469H425.176V183.576Z" fill="#FFB9A3"/>
<path d="M419.879 159.907C419.613 160.202 419.347 160.476 419.069 160.728C416.832 162.963 414.631 165.197 412.248 164.879C411.111 164.704 410.023 164.386 408.995 163.926C405.391 162.36 401.775 159.206 399.38 155.843C398.715 154.912 398.135 153.937 397.639 152.919C397.99 152.743 398.377 152.623 398.764 152.557C398.86 152.557 399.308 152.557 400.118 152.557C400.046 152.459 399.997 152.404 399.985 152.393C399.586 151.922 399.126 151.451 398.655 151.013C398.449 150.816 398.28 150.596 398.147 150.356C397.844 149.841 397.591 149.315 397.361 148.778C397.361 148.756 397.312 148.647 397.228 148.45L397.167 148.285C397.083 148.033 397.046 147.891 397.034 147.858C396.877 147.343 396.841 146.796 396.962 146.259C397.022 145.963 397.143 145.679 397.312 145.427C397.542 145.076 397.844 144.769 398.207 144.528C398.485 144.353 398.8 144.211 399.138 144.145C399.187 144.134 399.586 144.047 399.634 144.036C399.816 143.992 400.021 144.003 400.203 144.068C400.566 144.189 400.88 144.397 401.134 144.66C401.279 144.813 401.412 144.978 401.533 145.153C401.557 145.186 401.751 145.459 401.775 145.492C401.86 145.624 401.908 145.766 401.908 145.92C401.908 146.314 402.041 146.697 402.283 147.015C402.283 146.949 402.283 146.423 402.283 146.358C402.283 146.128 402.319 145.909 402.404 145.689C402.561 145.262 402.839 144.89 403.214 144.594C403.516 144.353 403.831 144.134 404.182 143.937C404.641 143.663 405.052 143.356 405.427 142.995C405.548 142.875 405.633 142.743 405.693 142.601C405.911 142.053 406.092 141.494 406.25 140.925C406.25 140.881 406.298 140.695 406.395 140.355L406.673 139.26L406.951 138.417C407.193 138.91 407.326 139.183 407.35 139.238C407.568 139.654 407.834 140.049 408.16 140.41C408.221 140.476 408.281 140.542 408.354 140.596C408.487 140.695 409.225 141.1 409.563 141.297C409.672 141.363 409.793 141.429 409.89 141.516C410.482 141.944 411.135 142.305 411.837 142.557H411.861C412.357 142.787 412.841 143.05 413.288 143.356C413.578 143.543 413.881 143.707 414.183 143.849C414.582 143.937 414.969 143.992 415.368 144.025C415.513 144.025 415.876 143.981 415.876 143.981C415.828 143.959 415.393 143.773 415.332 143.751C414.8 143.521 414.389 143.105 414.183 142.601C414.183 142.404 414.183 140.87 414.183 140.673C414.788 140.892 415.368 141.166 415.913 141.494C415.937 141.505 416.13 141.626 416.154 141.637C416.626 141.889 417.074 142.174 417.497 142.502C417.606 142.601 417.727 142.688 417.872 142.765C417.932 142.798 417.993 142.831 418.053 142.864C418.428 143.116 418.742 143.433 418.984 143.806C419.166 144.079 419.371 144.342 419.589 144.594C419.71 144.704 419.819 144.824 419.916 144.956C419.94 144.999 420.097 145.197 420.363 145.547C420.363 144.233 420.363 143.51 420.363 143.356C420.363 142.809 420.218 142.272 419.928 141.779C419.928 141.779 419.916 141.757 419.903 141.724L421.379 142.688C421.415 142.71 421.427 142.721 421.427 142.732C422.141 143.258 422.782 143.849 423.362 144.496C423.834 145.021 424.209 145.591 424.511 146.215C424.511 146.226 424.56 146.314 424.572 146.325C424.354 147.343 423.955 148.406 423.846 149.567C423.749 151.122 424.076 151.768 423.749 153.488C423.35 155.679 421.597 158.056 419.879 159.907Z" fill="#FFBFAA"/>
<path d="M427.063 141.418C427.063 142.316 426.978 143.203 426.785 144.079C426.785 144.09 426.748 144.233 426.748 144.255C426.495 145.043 426.192 145.821 425.829 146.566C425.829 146.577 425.805 146.621 425.769 146.697L424.898 147.869C424.898 147.771 424.898 147.716 424.898 147.705C424.898 147.256 424.801 146.818 424.62 146.401C424.584 146.325 424.572 146.292 424.56 146.281C424.269 145.668 423.882 145.087 423.423 144.561C422.842 143.915 422.189 143.324 421.488 142.798C421.476 142.798 421.464 142.787 421.427 142.765L419.952 141.801C419.976 141.834 419.988 141.845 419.988 141.856C420.266 142.338 420.411 142.875 420.411 143.433C420.411 143.576 420.411 144.309 420.411 145.624C420.145 145.262 419.988 145.065 419.964 145.021C419.867 144.901 419.758 144.78 419.649 144.66C419.42 144.408 419.214 144.145 419.033 143.871C418.791 143.51 418.476 143.192 418.101 142.94C418.041 142.896 417.981 142.864 417.92 142.831C417.787 142.765 417.654 142.666 417.545 142.568C417.134 142.25 416.686 141.954 416.215 141.703C416.191 141.692 415.997 141.571 415.973 141.56C415.417 141.243 414.848 140.969 414.244 140.739C414.244 140.936 414.244 142.469 414.244 142.666C414.437 143.17 414.848 143.586 415.392 143.817C415.441 143.838 415.876 144.025 415.937 144.047C415.937 144.047 415.562 144.09 415.429 144.09C415.03 144.057 414.631 144.003 414.244 143.926C413.929 143.773 413.627 143.608 413.349 143.422C412.889 143.126 412.417 142.853 411.909 142.623C411.909 142.623 411.897 142.623 411.885 142.623C411.184 142.371 410.531 142.02 409.95 141.582C409.841 141.505 409.733 141.429 409.612 141.363C409.273 141.177 408.535 140.761 408.402 140.662C408.33 140.607 408.269 140.552 408.209 140.487C407.882 140.125 407.616 139.731 407.398 139.304C407.374 139.249 407.241 138.975 406.999 138.493L406.721 139.326L406.443 140.421C406.358 140.761 406.31 140.958 406.298 140.991C406.153 141.56 405.959 142.119 405.742 142.666C405.693 142.82 405.597 142.951 405.476 143.061C405.113 143.422 404.689 143.74 404.23 144.003C403.891 144.2 403.565 144.419 403.262 144.66C402.888 144.956 402.609 145.339 402.452 145.755C402.367 145.974 402.331 146.204 402.331 146.423C402.331 146.489 402.331 147.026 402.331 147.091C402.089 146.763 401.968 146.38 401.956 145.996C401.956 145.843 401.908 145.689 401.823 145.558C401.799 145.525 401.569 145.186 401.545 145.142C401.424 144.967 401.279 144.802 401.134 144.649C400.892 144.386 400.566 144.178 400.203 144.057C400.021 143.992 399.828 143.981 399.634 144.025C399.586 144.036 399.187 144.123 399.138 144.134C398.8 144.2 398.485 144.342 398.207 144.518C397.844 144.758 397.542 145.065 397.312 145.416C397.143 145.668 397.022 145.952 396.962 146.248C396.853 146.785 396.877 147.332 397.034 147.847C397.046 147.88 397.095 148.023 397.167 148.274L397.228 148.439C397.312 148.636 397.361 148.745 397.373 148.767C397.59 149.304 397.857 149.83 398.147 150.345C398.28 150.586 398.461 150.805 398.667 151.002C399.126 151.44 399.574 151.911 399.985 152.382C399.997 152.393 400.046 152.448 400.13 152.546C399.308 152.546 398.86 152.546 398.776 152.546C398.377 152.612 398.002 152.732 397.651 152.908C397.566 152.951 397.482 152.995 397.397 153.039C397.385 153.05 397.324 153.083 397.216 153.149C397.034 152.951 396.925 152.842 396.901 152.82C396.526 152.437 396.188 152.02 395.897 151.582C395.619 151.166 395.305 150.695 395.244 150.575C395.172 150.465 395.051 150.169 394.894 149.808C394.507 148.899 394.204 147.979 393.962 147.037C393.926 146.916 393.902 146.796 393.89 146.675C393.878 146.577 393.853 146.478 393.829 146.38C393.587 145.295 393.454 144.189 393.454 143.094C393.454 143.083 393.454 143.061 393.454 143.006C393.515 142.655 393.539 142.469 393.551 142.425C393.733 141.33 393.999 140.235 394.337 139.161C394.446 138.822 394.591 138.493 394.785 138.176C395.208 137.453 395.728 136.774 396.321 136.149C396.466 135.996 396.635 135.865 396.841 135.777C396.937 135.733 397.724 135.394 397.832 135.35C398.086 134.66 398.449 134.003 398.921 133.411C398.921 133.4 398.957 133.367 399.005 133.302C399.586 132.863 399.912 132.622 399.985 132.579C400.469 132.206 400.989 131.878 401.545 131.604C401.557 131.593 401.63 131.549 401.642 131.549C402.501 131.111 403.383 130.717 404.29 130.377C404.702 130.213 405.149 130.114 405.584 130.059C405.705 130.048 406.637 129.95 406.758 129.939C407.81 129.818 408.874 129.764 409.938 129.764C410.12 129.764 411.655 129.764 411.849 129.764C413.264 129.764 414.679 129.873 416.07 130.103C416.215 130.125 416.36 130.158 416.505 130.191C416.541 130.191 416.868 130.268 416.904 130.278C418.198 130.574 419.444 131.012 420.605 131.604C420.702 131.67 421.173 131.987 422.032 132.568C422.334 132.754 422.504 132.852 422.528 132.874C423.399 133.422 424.148 134.09 424.765 134.868C424.85 134.988 425.551 135.996 425.648 136.127C426.132 136.763 426.519 137.464 426.797 138.198C426.978 138.701 427.063 139.227 427.063 139.764C427.063 140.092 427.063 141.253 427.063 141.418Z" fill="#7F694F"/>
<path d="M409.007 164.113C408.56 168.735 405.621 172.514 401.436 172.514C397.24 172.514 392.451 168.472 390.709 164.113C388.968 159.753 389.645 157.245 391.229 155.723C392.293 155.701 394.591 155.723 395.656 155.723C395.764 155.547 396.296 154.693 397.24 153.16C397.349 153.105 397.409 153.061 397.421 153.061C397.506 153.006 397.591 152.962 397.675 152.93C398.159 153.948 398.739 154.923 399.417 155.843C401.787 159.206 405.403 162.36 409.007 163.926C409.007 163.992 409.007 164.047 409.007 164.113Z" fill="#FFB9A3"/>
<path d="M384.686 177.048C381.578 177.048 381.578 181.43 384.686 181.43C387.807 181.43 387.807 177.048 384.686 177.048Z" fill="#3399FF"/>
<path d="M384.686 177.048C381.578 177.048 381.578 181.43 384.686 181.43C387.807 181.43 387.807 177.048 384.686 177.048Z" fill="#3399FF"/>
<path d="M384.662 177.048C381.542 177.048 381.542 181.43 384.662 181.43C387.77 181.43 387.782 177.048 384.662 177.048Z" fill="#3399FF"/>
<path d="M384.638 177.048C381.53 177.048 381.518 181.43 384.638 181.43C387.758 181.43 387.758 177.048 384.638 177.048Z" fill="#3399FF"/>
<path d="M384.614 177.048C381.494 177.048 381.494 181.43 384.614 181.43C387.722 181.43 387.722 177.048 384.614 177.048Z" fill="#3399FF"/>
<path d="M384.348 176.03C381.24 176.03 381.228 180.411 384.348 180.411C387.468 180.411 387.468 176.03 384.348 176.03Z" fill="#3399FF"/>
<path d="M384.348 176.03C381.24 176.03 381.228 180.411 384.348 180.411C387.468 180.411 387.468 176.03 384.348 176.03Z" fill="#3399FF"/>
<path d="M384.324 176.03C381.203 176.03 381.203 180.411 384.324 180.411C387.432 180.411 387.444 176.03 384.324 176.03Z" fill="#3399FF"/>
<path d="M384.299 176.03C381.179 176.03 381.179 180.411 384.299 180.411C387.408 180.411 387.42 176.03 384.299 176.03Z" fill="#3399FF"/>
<path d="M426.035 183.576C429.687 183.576 431.731 183.576 432.13 183.576C431.646 182.109 431.284 180.619 431.078 179.096C430.921 177.968 430.824 176.84 430.776 175.701C430.764 175.383 430.667 172.82 430.655 172.503C430.594 171.21 430.594 170.17 430.594 169.918C430.594 169.162 430.594 168.406 430.643 167.65C430.691 166.424 430.788 165.197 430.933 163.981C430.945 163.894 430.993 163.466 431.09 162.7C431.259 161.67 431.344 161.09 431.368 160.98C431.489 160.235 431.719 159.523 432.058 158.844C432.445 158.034 433.074 157.333 433.86 156.807C434.948 156.073 436.218 155.569 437.548 155.35C439.689 154.978 441.418 154.846 441.841 154.792C443.426 154.649 445.01 154.572 446.594 154.572C446.969 154.572 449.981 154.572 450.356 154.572C450.755 154.572 451.154 154.649 451.517 154.792C451.444 154.715 451.045 154.331 450.343 153.62C449.424 152.699 448.904 152.185 448.808 152.086C447.864 151.078 447.006 150.016 446.232 148.899C446.183 148.822 446.135 148.756 446.099 148.669C446.062 148.581 445.857 148.121 445.482 147.289C445.264 146.807 445.155 146.533 445.131 146.478C444.829 145.788 444.611 145.076 444.466 144.342C444.357 143.816 444.309 143.269 444.309 142.732C444.309 141.867 444.369 141.012 444.478 140.147C444.551 139.621 444.671 139.107 444.853 138.603C445.167 137.716 445.578 136.861 446.062 136.04C446.365 135.525 446.703 135.021 447.066 134.528C447.126 134.452 447.441 134.024 448.009 133.258L449.666 131.582C450.996 130.487 451.734 129.873 451.891 129.753C453.052 128.811 454.346 128 455.737 127.354C455.882 127.277 456.04 127.233 456.197 127.201C456.233 127.19 456.523 127.102 456.56 127.091C458.555 126.467 460.623 126.094 462.727 125.963C462.776 125.974 463.235 126.007 463.296 126.007C464.795 126.105 466.283 126.401 467.698 126.894C467.855 126.949 469.101 127.463 469.258 127.529C470.371 127.978 471.229 128.427 471.447 128.526C472.148 128.887 472.826 129.293 473.455 129.753C474.603 130.574 475.595 131.56 476.381 132.677C477.433 134.057 478.268 135.569 478.873 137.157V137.19C479.356 138.975 479.61 140.804 479.61 142.634C479.61 142.743 479.586 142.853 479.55 142.962C479.514 143.083 479.187 144.003 479.151 144.123C478.897 144.857 478.594 145.58 478.244 146.292C478.22 146.336 478.05 146.664 478.038 146.708C477.724 147.332 477.373 147.946 476.986 148.537C476.95 148.592 476.684 148.997 476.647 149.041C476.272 149.622 475.861 150.169 475.414 150.706C475.402 150.728 475.232 150.914 475.22 150.947C474.809 151.429 474.386 151.9 473.938 152.338C473.817 152.458 473.757 152.513 473.745 152.535C473.031 153.236 472.233 153.86 471.362 154.397C470.879 154.693 470.407 155.011 469.947 155.339C469.911 155.361 469.742 155.482 469.439 155.701C470.54 155.701 471.157 155.701 471.278 155.701C472.209 155.525 473.152 155.438 474.108 155.438C474.724 155.438 475.329 155.471 475.946 155.547C476.768 155.646 477.554 155.942 478.22 156.413C478.715 156.763 479.187 157.135 479.634 157.541C480.408 158.242 480.989 159.096 481.34 160.038C481.352 160.071 481.449 160.334 481.461 160.367C481.884 161.725 482.223 163.105 482.477 164.496C482.501 164.638 482.525 164.781 482.573 164.923C482.67 165.087 482.718 167.431 482.718 167.431C482.718 167.596 482.731 168.428 482.755 169.918L482.948 172.536C483.142 174.124 483.251 175 483.275 175.175C483.275 175.175 483.48 177.388 483.565 178.067L483.867 180.488C483.879 180.564 483.94 181.178 483.952 181.254C484.037 182.032 484.085 182.81 484.085 183.587C484.52 183.587 486.746 183.587 490.737 183.587" stroke="white"/>
<path d="M432.021 172.229C428.913 172.229 428.901 176.61 432.021 176.61C435.142 176.61 435.142 172.229 432.021 172.229Z" fill="#013220"/>
<path d="M429.458 165.471C426.337 165.471 426.337 169.852 429.458 169.852C432.566 169.852 432.578 165.471 429.458 165.471Z" fill="#013220"/>
<path d="M430.437 157.88C427.329 157.88 427.329 162.262 430.437 162.262C433.557 162.262 433.557 157.88 430.437 157.88Z" fill="#013220"/>
<path d="M436.726 154.091C433.606 154.091 433.606 158.472 436.726 158.472C439.834 158.472 439.846 154.091 436.726 154.091Z" fill="#013220"/>
<path d="M444.49 152.754C441.37 152.754 441.37 157.135 444.49 157.135C447.598 157.135 447.61 152.754 444.49 152.754Z" fill="#013220"/>
<path d="M450.126 149.567C447.006 149.567 447.006 153.948 450.126 153.948C453.234 153.948 453.246 149.567 450.126 149.567Z" fill="#013220"/>
<path d="M445.965 143.893C442.845 143.893 442.857 148.274 445.965 148.274C449.086 148.274 449.086 143.893 445.965 143.893Z" fill="#013220"/>
<path d="M444.829 136.894C441.708 136.894 441.708 141.275 444.829 141.275C447.937 141.275 447.949 136.894 444.829 136.894Z" fill="#013220"/>
<path d="M448.747 130.059C445.627 130.059 445.627 134.441 448.747 134.441C451.855 134.441 451.867 130.059 448.747 130.059Z" fill="#013220"/>
<path d="M456.173 125.229C453.052 125.229 453.052 129.61 456.173 129.61C459.281 129.61 459.293 125.229 456.173 125.229Z" fill="#013220"/>
<path d="M465.195 123.608C462.086 123.608 462.074 127.989 465.195 127.989C468.315 127.989 468.315 123.608 465.195 123.608Z" fill="#013220"/>
<path d="M473.152 126.467C470.032 126.467 470.032 130.848 473.152 130.848C476.26 130.848 476.26 126.467 473.152 126.467Z" fill="#013220"/>
<path d="M478.873 131.823C475.752 131.823 475.765 136.204 478.873 136.204C481.993 136.204 481.993 131.823 478.873 131.823Z" fill="#013220"/>
<path d="M479.489 140.038C476.369 140.038 476.381 144.419 479.489 144.419C482.61 144.419 482.61 140.038 479.489 140.038Z" fill="#013220"/>
<path d="M476.176 146.894C473.056 146.894 473.056 151.276 476.176 151.276C479.284 151.276 479.296 146.894 476.176 146.894Z" fill="#013220"/>
<path d="M469.814 151.856C466.694 151.856 466.706 156.237 469.814 156.237C472.935 156.237 472.935 151.856 469.814 151.856Z" fill="#013220"/>
<path d="M476.526 153.543C473.406 153.543 473.406 157.924 476.526 157.924C479.634 157.924 479.647 153.543 476.526 153.543Z" fill="#013220"/>
<path d="M480.844 159.447C477.724 159.447 477.736 163.828 480.844 163.828C483.964 163.828 483.964 159.447 480.844 159.447Z" fill="#013220"/>
<path d="M483.807 166.205C480.687 166.205 480.687 170.586 483.807 170.586C486.915 170.586 486.927 166.205 483.807 166.205Z" fill="#013220"/>
<path d="M482.21 173.127C479.09 173.127 479.09 177.508 482.21 177.508C485.319 177.508 485.319 173.127 482.21 173.127Z" fill="#013220"/>
<path d="M432.807 179.053C429.687 179.053 429.699 183.434 432.807 183.434C435.928 183.434 435.928 179.053 432.807 179.053Z" fill="#013220"/>
<path d="M547.214 159.852C547.214 174.08 547.214 181.988 547.214 183.576C516.823 183.576 499.94 183.576 496.566 183.576C496.566 169.337 496.566 161.429 496.566 159.852C526.957 159.852 543.84 159.852 547.214 159.852Z" fill="#D9D9D9"/>
<path d="M503.459 150.213C497.134 150.246 491.631 146.325 490.168 140.761C490.18 140.761 490.337 140.761 490.35 140.761C490.604 140.761 490.857 140.826 491.075 140.936C491.341 141.078 491.595 141.232 491.837 141.407C491.849 141.429 491.946 141.527 491.958 141.549C492.514 142.206 492.938 142.962 493.204 143.762C493.204 143.751 493.204 143.608 493.204 143.587C493.204 142.71 493.494 141.845 494.05 141.122C494.365 140.706 494.812 140.399 495.344 140.246C498.005 139.468 500.52 138.34 502.806 136.894C504.814 135.635 506.422 133.926 507.498 131.943C507.523 131.9 507.752 131.472 507.777 131.418C511.405 133.247 514.09 137.409 514.597 142.371C514.597 142.371 514.634 142.349 514.682 142.305L514.9 142.141L515.456 141.856C515.613 141.779 515.71 141.725 515.722 141.725C515.892 141.637 516.061 141.582 516.254 141.538C514.295 146.347 509.204 150.213 503.459 150.213Z" fill="#2A0000"/>
<path d="M496.566 165.318V183.576H490.737C490.737 183.138 490.737 182.897 490.737 182.843C490.737 181.583 490.664 180.323 490.507 179.064C490.483 178.943 490.374 177.979 490.35 177.859C490.229 176.873 490.071 175.876 489.878 174.902L488.923 169.973C488.39 167.826 488.1 166.632 488.04 166.391C487.641 164.759 487.145 163.149 486.564 161.572C486.552 161.561 486.516 161.462 486.516 161.451C485.899 159.808 485.391 158.132 484.968 156.435C484.847 155.985 484.823 155.504 484.907 155.043C485.028 154.189 485.439 153.39 486.068 152.743C486.407 152.404 486.806 152.119 487.254 151.9C487.858 151.604 488.487 151.341 489.14 151.111C489.237 151.21 490.059 152.009 490.168 152.108C491.148 153.411 492.018 154.77 492.78 156.183C492.792 156.194 492.829 156.27 492.841 156.281C493.385 157.322 493.663 158.461 493.663 159.611C493.663 159.699 493.663 160.367 493.663 160.443C493.663 161.626 493.99 162.787 494.594 163.839C494.848 164.036 495.514 164.529 496.566 165.318Z" fill="#FFB9A3"/>
<path d="M517.923 143.652C517.911 143.674 517.875 143.838 517.79 144.112C517.694 144.408 517.645 144.572 517.633 144.605C517.536 144.89 517.415 145.175 517.282 145.449C517.27 145.47 517.198 145.646 517.186 145.668C517.101 145.843 517.004 146.007 516.907 146.182C516.883 146.215 516.799 146.369 516.617 146.653C516.448 146.916 516.363 147.059 516.339 147.092C516.194 147.3 516.037 147.497 515.867 147.694C515.674 147.913 515.456 148.11 515.226 148.285C515.13 148.351 515.045 148.417 514.948 148.472C514.924 148.483 514.718 148.614 514.694 148.636C514.549 148.724 514.392 148.811 514.235 148.899C514.211 148.921 513.969 149.052 513.944 149.063C513.703 149.841 513.678 150.52 513.497 151.199C513.412 151.495 513.303 151.769 513.146 152.042C512.203 153.652 510.727 154.726 509.204 155.723C507.438 156.873 505.527 157.848 503.532 157.848C501.548 157.848 499.795 156.862 498.053 155.723C496.493 154.715 494.945 153.652 493.99 152.042C493.651 151.462 493.421 150.848 493.288 150.213C493.131 149.534 493.034 148.822 492.841 148.023C492.817 148.012 492.611 147.946 492.587 147.935C492.442 147.891 492.309 147.836 492.176 147.771C491.934 147.65 491.716 147.508 491.498 147.354C491.486 147.343 491.402 147.278 491.269 147.168C490.954 146.949 490.785 146.829 490.749 146.807C490.398 146.566 490.083 146.281 489.805 145.963C489.648 145.777 489.515 145.58 489.406 145.383C489.358 145.306 488.995 144.704 488.959 144.627C488.898 144.528 488.862 144.43 488.838 144.331C488.693 143.806 488.632 143.258 488.632 142.721C488.632 142.393 488.705 142.064 488.874 141.768C489.031 141.462 489.273 141.199 489.576 140.991C489.745 140.87 489.963 140.783 490.18 140.761C490.192 140.761 490.35 140.761 490.362 140.761C490.616 140.761 490.87 140.815 491.087 140.936C491.353 141.067 491.607 141.232 491.849 141.407C491.861 141.418 491.958 141.527 491.97 141.538C492.526 142.206 492.95 142.951 493.216 143.762C493.216 143.74 493.216 143.597 493.216 143.576C493.216 142.699 493.506 141.845 494.062 141.111C494.377 140.706 494.824 140.399 495.356 140.246C498.017 139.468 500.532 138.329 502.818 136.883C504.826 135.624 506.434 133.926 507.511 131.943C507.595 132.151 508.236 133.805 508.321 134.014C508.551 134.616 508.829 135.196 509.143 135.766C509.784 136.927 510.631 137.99 511.647 138.91C512.747 139.895 513.533 141.133 513.932 142.491C513.944 142.546 514.053 143.061 514.065 143.126C514.223 143.893 514.307 144.671 514.307 145.449C514.319 145.405 514.452 145.065 514.464 145.021C514.561 144.759 514.61 144.485 514.61 144.211C514.61 143.63 514.779 143.061 515.093 142.557C515.093 142.557 515.093 142.546 515.093 142.535C515.456 142.042 515.662 141.768 515.698 141.714C515.867 141.637 516.037 141.571 516.23 141.538C516.242 141.538 516.315 141.538 516.327 141.538C516.399 141.527 516.472 141.527 516.545 141.538C516.702 141.538 516.871 141.56 517.016 141.615C517.173 141.659 517.319 141.735 517.427 141.845C517.609 142.009 517.754 142.217 517.863 142.426C517.947 142.612 517.996 142.809 518.008 143.006C518.008 143.225 517.984 143.433 517.923 143.652Z" fill="#FFB9A3"/>
<path d="M516.351 141.527C516.339 141.527 516.266 141.527 516.254 141.527C516.061 141.56 515.892 141.626 515.722 141.703C515.686 141.757 515.48 142.031 515.118 142.524C515.118 142.535 515.118 142.546 515.118 142.546C514.803 143.05 514.634 143.619 514.634 144.2C514.634 144.474 514.585 144.748 514.489 145.01C514.477 145.054 514.344 145.394 514.331 145.438C514.331 144.66 514.247 143.882 514.09 143.116C514.077 143.05 513.969 142.535 513.957 142.48C513.557 141.122 512.771 139.884 511.671 138.899C510.655 137.979 509.808 136.916 509.167 135.755C508.853 135.185 508.575 134.605 508.345 134.003C508.26 133.794 507.619 132.141 507.535 131.932C506.458 133.915 504.85 135.613 502.842 136.872C500.557 138.318 498.041 139.457 495.381 140.235C494.848 140.388 494.401 140.695 494.087 141.1C493.53 141.834 493.24 142.688 493.24 143.565C493.24 143.587 493.24 143.729 493.24 143.751C492.974 142.94 492.551 142.195 491.994 141.527C491.982 141.516 491.885 141.407 491.873 141.396C491.631 141.221 491.378 141.056 491.111 140.925C490.894 140.804 490.64 140.75 490.386 140.75C490.374 140.75 490.229 140.75 490.204 140.75C489.987 139.862 489.866 138.953 489.866 138.055C489.866 135.021 490.337 132.721 492.405 130.596C493.905 129.096 495.743 127.913 497.799 127.102C497.799 124.309 501.246 122.359 504.415 122.359C507.583 122.359 510.994 124.21 510.994 127.003C510.994 127.102 510.994 127.19 510.994 127.288C512.034 127.715 512.989 128.296 513.811 129.008C516.242 131.22 517.331 133.586 517.331 136.938C517.319 138.515 516.992 140.071 516.351 141.527Z" fill="#5F2B00"/>
<path d="M518.395 152.678C518.322 152.809 518.274 152.886 518.274 152.908C517.863 153.663 517.464 154.441 517.125 155.23C516.617 156.369 516.351 157.574 516.351 158.8C516.351 158.866 516.351 159.217 516.351 159.852H496.566V165.329C495.381 164.43 494.727 163.927 494.594 163.828C493.99 162.776 493.663 161.615 493.663 160.432C493.663 160.356 493.663 159.688 493.663 159.6C493.663 158.45 493.385 157.311 492.841 156.27C492.829 156.259 492.792 156.183 492.78 156.172C492.018 154.759 491.148 153.39 490.168 152.086C490.059 151.977 489.237 151.177 489.14 151.079C489.793 150.848 490.471 150.651 491.148 150.487C491.184 150.476 491.462 150.41 491.498 150.41C492.079 150.268 492.684 150.202 493.288 150.202C493.421 150.838 493.651 151.451 493.99 152.02C494.945 153.642 496.493 154.704 498.053 155.712C499.795 156.84 501.573 157.826 503.532 157.826C505.491 157.826 507.438 156.862 509.204 155.712C510.752 154.704 512.203 153.631 513.146 152.02C513.303 151.758 513.412 151.473 513.497 151.188C513.678 151.243 514.646 151.549 516.363 152.075L518.02 152.546L518.395 152.678Z" fill="#FF1F4B"/>
<path d="M524.732 159.852H516.351C516.351 159.217 516.351 158.866 516.351 158.8C516.351 157.574 516.617 156.369 517.125 155.23C517.476 154.441 517.863 153.663 518.274 152.908C518.274 152.886 518.322 152.809 518.395 152.678C519.048 152.864 519.411 152.962 519.483 152.984C520.136 153.171 520.79 153.401 521.418 153.663C522.023 153.915 522.579 154.244 523.075 154.638C523.16 154.704 523.801 155.208 523.885 155.273C524.43 155.985 524.72 156.829 524.732 157.683C524.732 157.979 524.732 158.702 524.732 159.852Z" fill="#FFB9A3"/>
<path d="M586.543 183.576H573.845C573.845 181.09 573.845 179.71 573.845 179.436C573.845 178.056 573.748 176.676 573.555 175.296C573.542 175.175 573.518 175.055 573.494 174.934C573.422 174.617 573.373 174.441 573.361 174.409C573.361 174.387 573.361 174.365 573.361 174.354C573.361 174.321 573.361 174.299 573.361 174.277C573.446 173.96 573.494 173.631 573.494 173.313C573.494 172.82 573.422 172.327 573.288 171.846C573.022 170.936 572.635 170.071 572.14 169.25C572.115 169.217 571.97 168.976 571.958 168.943C571.934 168.91 571.91 168.866 571.91 168.823C571.765 168.297 571.692 167.76 571.692 167.212C571.692 166.862 571.716 166.522 571.777 166.172C571.994 165.164 572.188 164.156 572.309 163.138C572.309 163.127 572.321 163.039 572.333 162.908L572.381 161.155V161.068L572.055 159.512L571.245 158.242L570.446 157.212C570.277 156.993 570.192 156.873 570.168 156.851C569.757 156.281 569.273 155.755 568.717 155.295C568.705 155.284 568.669 155.23 568.584 155.131C568.572 155.109 568.56 155.098 568.56 155.098C569.842 155.504 571.1 156.007 572.297 156.588C573.482 157.179 574.595 157.869 575.647 158.647C576.735 159.458 577.703 160.411 578.525 161.462C580.23 163.653 581.742 165.964 583.072 168.362C583.955 169.973 584.657 171.67 585.14 173.412C585.177 173.532 585.467 174.551 585.503 174.682C585.636 175.153 585.745 175.635 585.842 176.117C586.084 177.421 586.241 179.184 586.374 180.915C586.471 181.813 586.519 182.711 586.543 183.533C586.543 183.533 586.543 183.554 586.543 183.576Z" fill="#FFC2AF"/>
<path d="M561.811 146.916C561.63 147.453 561.376 147.968 561.037 148.45C560.578 149.085 560.07 149.698 559.502 150.268C559.417 150.366 558.655 151.144 558.558 151.243C558.462 151.473 558.377 151.703 558.292 151.933C557.325 153.083 556.72 153.915 555.716 154.956C553.854 156.873 552.27 158.056 549.573 158.056C549.331 158.056 549.089 158.034 548.847 158.012C546.126 157.683 544.251 155.569 542.316 153.4C541.724 152.754 541.107 152.207 540.575 151.615C539.91 150.925 539.426 150.125 539.124 149.26C538.579 147.661 538.942 146.708 538.942 144.879C538.942 143.181 537.213 141.845 537.14 140.279C537.14 140.202 537.14 140.125 537.14 140.06C537.14 140.06 537.152 140.071 537.164 140.081L537.576 139.282C537.709 139.019 537.781 138.866 537.793 138.844C537.987 138.471 538.229 138.121 538.531 137.814C539.063 137.267 539.692 136.796 540.393 136.434C541.506 136.062 542.691 135.875 543.889 135.875C543.889 135.875 543.937 135.875 544.022 135.875L545.473 135.897C546.198 135.897 546.598 135.897 546.682 135.897C548.545 135.897 550.395 135.7 552.209 135.306C553.515 135.58 554.725 136.138 555.74 136.938C555.849 137.026 555.958 137.113 556.067 137.212C556.103 137.245 556.43 137.54 556.466 137.573C557.325 138.329 558.087 139.183 558.74 140.103C558.74 140.125 558.8 140.333 558.812 140.355C559.078 141.21 559.211 142.097 559.211 142.984C559.526 143.63 560.094 144.145 560.796 144.452C561.098 144.572 561.4 144.693 561.715 144.813C561.908 144.89 562.053 145.054 562.065 145.251C562.065 145.821 561.981 146.38 561.811 146.916Z" fill="#FFC2AF"/>
<path d="M573.845 183.576H547.275C547.239 181.408 547.226 180.214 547.214 179.973C548.291 179.644 549.44 179.567 550.552 179.754C550.576 179.754 550.794 179.787 550.818 179.797C551.544 179.918 552.27 179.973 553.007 179.973C553.914 179.973 554.821 179.808 555.656 179.491C556.502 179.173 557.264 178.713 557.917 178.133C558.038 177.946 558.123 177.749 558.159 177.541C558.534 176.314 558.486 175.011 558.038 173.806C557.893 173.401 557.627 173.05 557.276 172.777C556.345 172.076 555.305 171.506 554.18 171.09C553.007 170.663 551.701 170.608 550.492 170.936C550.081 171.046 549.694 171.21 549.331 171.418C549.101 171.561 548.895 171.714 548.69 171.878C548.69 171.813 548.69 171.243 548.69 171.177C548.69 169.951 548.883 168.724 549.258 167.541C549.379 167.158 549.585 166.796 549.863 166.5C550.153 166.194 550.492 165.942 550.891 165.767C550.963 165.734 551.29 165.591 551.907 165.317C552.681 165.317 553.116 165.317 553.201 165.317C553.999 165.317 554.797 165.252 555.583 165.12C556.817 164.923 557.99 164.496 559.03 163.861C559.453 163.609 559.816 163.28 560.118 162.908C560.203 162.787 560.965 161.845 561.05 161.725C561.412 162.448 561.691 163.204 561.884 163.981C562.017 164.474 562.078 164.967 562.09 165.471C562.114 165.953 562.114 166.446 562.09 166.928C562.066 166.993 562.041 167.048 562.005 167.114C561.412 168.111 560.517 168.932 559.417 169.48C559.417 169.48 559.405 169.48 559.381 169.502L558.57 169.94C559.006 170.476 559.248 170.772 559.296 170.827C559.635 171.243 560.01 171.637 560.397 172.01C560.856 172.448 561.183 172.985 561.352 173.576C561.364 173.587 561.509 173.708 561.533 173.729C562.186 174.288 562.96 174.704 563.807 174.967C564.617 174.792 565.464 174.792 566.274 174.967C566.371 175.022 567.121 175.471 567.217 175.537C567.689 175.821 568.088 176.205 568.378 176.654C568.886 177.103 569.576 177.344 570.289 177.344C570.422 177.344 570.555 177.333 570.688 177.322C570.713 177.322 570.954 177.289 570.979 177.278C571.716 176.807 572.345 176.216 572.829 175.537C572.841 175.526 572.853 175.515 572.865 175.493C573.059 175.23 573.204 174.934 573.325 174.639C573.349 174.562 573.373 174.474 573.397 174.398C573.409 174.452 573.518 174.869 573.53 174.923C573.567 175.11 573.591 175.252 573.591 175.296C573.772 176.665 573.857 178.045 573.845 179.436C573.845 179.984 573.845 181.364 573.845 183.576Z" fill="#FF7526"/>
<path d="M568.753 155.273L568.693 155.23L568.451 155.043L568.62 155.087L568.644 155.131L568.753 155.273Z" fill="#FFC84B"/>
<path d="M573.397 174.277C573.409 174.299 573.409 174.332 573.397 174.354C573.397 174.376 573.397 174.387 573.397 174.409C573.397 174.485 573.349 174.573 573.325 174.65C573.216 174.945 573.059 175.241 572.865 175.504C572.853 175.526 572.853 175.537 572.841 175.548C572.345 176.227 571.716 176.818 570.991 177.289C570.954 177.3 570.725 177.333 570.688 177.333C570.555 177.344 570.422 177.355 570.289 177.355C569.576 177.355 568.898 177.114 568.378 176.665C568.088 176.216 567.701 175.833 567.217 175.548C567.133 175.493 566.371 175.033 566.286 174.978C565.476 174.803 564.629 174.803 563.819 174.978C562.96 174.715 562.186 174.299 561.533 173.741C561.521 173.719 561.376 173.598 561.352 173.587C561.195 172.996 560.868 172.459 560.409 172.021C560.01 171.648 559.635 171.254 559.296 170.838C559.248 170.783 559.006 170.487 558.558 169.973L559.369 169.524C559.393 169.513 559.405 169.502 559.405 169.502C560.493 168.954 561.388 168.133 561.981 167.136C562.017 167.081 562.053 167.026 562.078 166.961C562.102 166.479 562.102 165.986 562.078 165.504C562.066 165 561.993 164.507 561.872 164.014C561.679 163.237 561.4 162.481 561.038 161.747C560.953 161.572 560.856 161.385 560.759 161.221C560.264 160.323 559.792 159.655 559.683 159.48C559.163 158.746 558.703 157.979 558.28 157.19C557.966 156.599 557.784 155.953 557.736 155.285C557.7 154.781 557.724 154.266 557.821 153.762C557.821 153.751 557.821 153.696 557.821 153.696C557.917 153.116 558.075 152.535 558.268 151.977C558.341 151.736 558.437 151.506 558.534 151.287C559.103 150.706 559.417 150.378 559.477 150.312C560.034 149.742 560.554 149.129 561.013 148.483C561.34 148.012 561.606 147.497 561.775 146.96C561.957 146.412 562.041 145.854 562.041 145.295C562.041 145.076 561.896 144.89 561.678 144.802C561.364 144.693 561.062 144.583 560.759 144.441C560.058 144.145 559.49 143.619 559.175 142.984C559.175 142.086 559.042 141.21 558.776 140.344C558.764 140.323 558.703 140.114 558.703 140.093C558.05 139.172 557.288 138.329 556.43 137.562C556.394 137.53 556.067 137.234 556.031 137.201C555.922 137.102 555.813 137.015 555.704 136.927C554.688 136.138 553.479 135.58 552.173 135.306C550.359 135.689 548.508 135.887 546.646 135.887C546.561 135.887 546.162 135.887 545.437 135.887L543.985 135.865C543.901 135.865 543.852 135.865 543.852 135.865C542.655 135.865 541.47 136.062 540.357 136.434C539.656 136.796 539.027 137.256 538.495 137.814C538.192 138.121 537.951 138.461 537.757 138.833C537.745 138.866 537.672 139.008 537.539 139.282L537.128 140.071C537.116 140.06 537.104 140.049 537.104 140.049C536.596 139.72 536.197 139.293 535.919 138.789C535.798 138.592 535.701 138.373 535.629 138.154C535.616 138.132 535.568 137.99 535.556 137.968C535.35 137.365 535.242 136.741 535.242 136.106C535.242 135.186 535.375 134.265 535.641 133.367C535.81 132.798 536.088 132.25 536.475 131.757C537.128 130.914 537.866 130.114 538.664 129.369C538.676 129.358 538.725 129.315 538.809 129.227C539.172 128.92 539.378 128.745 539.426 128.712C540.031 128.197 540.684 127.726 541.373 127.31C541.409 127.288 541.663 127.124 541.7 127.113C542.353 126.708 543.054 126.368 543.78 126.073C544.651 125.722 545.57 125.459 546.501 125.262C547.226 125.12 547.964 125.043 548.702 125.043C548.847 125.043 550.008 125.043 550.153 125.043C550.564 125.043 550.976 125.087 551.363 125.174C552.681 125.437 553.842 126.127 554.64 127.102C554.7 127.058 555.184 126.73 555.245 126.697C555.644 126.423 556.127 126.281 556.623 126.281C556.623 126.281 556.684 126.281 556.696 126.281C557.204 126.292 557.712 126.39 558.183 126.565C558.836 126.806 559.49 127.08 560.13 127.365C560.917 127.716 561.666 128.11 562.38 128.548C562.864 128.833 563.311 129.161 563.722 129.523C564.23 129.972 564.702 130.465 565.125 130.98C565.561 131.527 565.984 132.075 566.371 132.655C566.395 132.688 566.576 132.94 566.601 132.973C566.734 133.159 566.843 133.367 566.927 133.586C567.399 134.813 567.725 136.084 567.907 137.376C567.907 137.431 567.943 137.661 568.004 138.077C568.124 139.304 568.197 139.994 568.209 140.125C568.258 140.574 568.282 141.024 568.294 141.473C568.318 142.447 568.294 143.411 568.245 144.386V144.561C568.149 145.175 568.088 145.514 568.076 145.58C567.967 146.27 567.81 146.938 567.592 147.606C567.375 148.253 567.242 148.921 567.181 149.589C567.133 150.268 567.145 150.805 567.133 150.936C567.133 151.615 567.169 152.283 567.242 152.962C567.568 153.718 568.004 154.43 568.56 155.076C568.548 155.065 568.487 155.055 568.391 155.022L568.632 155.208C568.669 155.241 568.693 155.252 568.693 155.263C569.249 155.723 569.733 156.248 570.156 156.818C570.168 156.84 570.265 156.96 570.422 157.179L571.233 158.209L572.031 159.48L572.357 161.035V161.123L572.321 162.875C572.297 163.006 572.285 163.094 572.285 163.105C572.152 164.124 571.982 165.131 571.765 166.139C571.704 166.49 571.668 166.829 571.668 167.18C571.668 167.727 571.741 168.264 571.886 168.79C571.898 168.834 571.91 168.877 571.934 168.91C571.958 168.943 572.103 169.184 572.115 169.217C572.623 170.038 572.998 170.904 573.264 171.813C573.422 172.306 573.518 172.81 573.53 173.313C573.53 173.642 573.494 173.96 573.397 174.277Z" fill="#FFC84B"/>
<path d="M551.907 165.318C551.302 165.591 550.963 165.745 550.891 165.767C550.504 165.942 550.153 166.194 549.875 166.5C549.585 166.807 549.379 167.158 549.258 167.541C548.883 168.724 548.702 169.951 548.702 171.177C548.702 171.243 548.702 171.813 548.702 171.889C548.242 172.262 547.88 172.711 547.601 173.204C547.577 173.248 547.444 173.478 547.226 173.872V159.852H538.785C539.366 158.976 539.704 158.494 539.765 158.395C539.91 158.176 540.031 157.957 540.14 157.716C540.708 156.5 540.998 155.186 540.998 153.861C540.962 153.631 540.635 151.856 540.599 151.637C541.143 152.229 541.748 152.765 542.328 153.422C544.263 155.591 546.15 157.705 548.871 158.023C548.871 158.045 548.871 158.154 548.871 158.176C549.294 159.918 549.948 161.615 550.806 163.236C550.951 163.51 551.314 164.211 551.907 165.318Z" fill="#FFC84B"/>
<path d="M560.118 162.919C559.816 163.291 559.453 163.609 559.03 163.861C557.99 164.496 556.817 164.923 555.583 165.131C554.797 165.252 553.999 165.318 553.201 165.318C553.116 165.318 552.681 165.318 551.907 165.318C551.242 164.069 550.867 163.368 550.794 163.225C549.935 161.615 549.294 159.918 548.871 158.165C548.871 158.154 548.871 158.034 548.871 158.023C549.101 158.056 549.343 158.067 549.585 158.067C552.282 158.067 553.866 156.895 555.728 154.967C556.744 153.926 557.349 153.094 558.304 151.955C558.111 152.513 557.966 153.083 557.857 153.663C557.857 153.674 557.857 153.729 557.857 153.74C557.772 154.244 557.736 154.748 557.772 155.263C557.821 155.92 558.014 156.566 558.329 157.168C558.752 157.957 559.211 158.713 559.719 159.458C560.312 160.301 560.699 161.013 560.808 161.188C560.88 161.363 560.965 161.55 561.05 161.725C560.868 161.966 560.203 162.798 560.118 162.919Z" fill="#FFB9A3"/>
<path d="M558.159 177.541C558.123 177.749 558.038 177.946 557.917 178.133C557.264 178.713 556.502 179.173 555.656 179.491C554.821 179.809 553.914 179.973 553.007 179.973C552.27 179.973 551.544 179.918 550.818 179.798C550.794 179.787 550.576 179.754 550.552 179.754C549.44 179.568 548.291 179.644 547.214 179.973C547.214 179.568 547.214 177.53 547.214 173.872C547.444 173.467 547.565 173.248 547.589 173.204C547.867 172.7 548.242 172.262 548.69 171.878C548.895 171.714 549.101 171.561 549.331 171.418C549.694 171.21 550.081 171.046 550.492 170.936C551.701 170.608 553.007 170.663 554.18 171.09C555.305 171.506 556.345 172.076 557.276 172.777C557.627 173.05 557.893 173.401 558.038 173.806C558.292 174.463 558.413 175.164 558.413 175.854C558.413 176.424 558.329 176.994 558.159 177.541Z" fill="#FFC2AF"/>
<path d="M594.852 156.194L594.694 156.259" stroke="black"/>
<path d="M639.998 181.747C639.998 182.382 639.804 183.018 639.441 183.565C635.91 183.565 618.277 183.565 586.543 183.565C586.543 183.544 586.543 183.533 586.543 183.533C586.519 182.711 586.471 181.802 586.41 180.893C586.942 179.885 587.595 178.943 588.357 178.067C588.369 178.056 588.454 177.957 588.599 177.793C588.998 177.333 589.216 177.081 589.252 177.026C589.675 176.544 589.893 175.953 589.893 175.351C590.28 175.351 593.328 175.351 593.715 175.351C594.561 175.351 595.396 175.394 596.23 175.482C597.597 175.635 598.927 176.019 600.124 176.632C600.451 176.796 600.765 176.972 601.068 177.18C601.092 177.202 601.298 177.333 601.322 177.355C602.084 177.859 602.713 178.494 603.208 179.217C603.329 179.217 604.369 179.184 604.502 179.184C605.168 179.162 605.881 179.14 606.075 179.14C606.437 179.14 612.17 178.965 612.17 178.965C612.569 178.954 614.54 178.899 618.084 178.801C620.43 178.768 621.724 178.746 621.99 178.735C622.837 178.724 623.683 178.757 624.53 178.834C624.578 178.834 624.772 178.856 625.11 178.888V177.355C627.42 177.355 628.702 177.355 628.968 177.355C630.456 177.355 631.955 177.475 633.419 177.727C633.467 177.727 633.878 177.804 633.927 177.804C635.075 178.012 636.212 178.253 637.349 178.538C637.458 178.571 638.413 178.801 638.522 178.834C639.066 178.976 639.574 179.217 639.998 179.557C639.998 179.995 639.998 181.528 639.998 181.747Z" fill="#FFB9A3"/>
<path d="M623.877 139.008C623.865 139.622 623.792 140.235 623.671 140.837C623.623 141.089 623.574 141.33 623.514 141.582C623.054 143.422 622.099 145.12 620.732 146.533C620.744 146.467 620.865 145.952 620.889 145.887C621.083 145.087 621.143 144.266 621.059 143.455C621.059 143.444 621.059 143.433 621.059 143.433C621.035 143.094 620.95 142.754 620.829 142.436V142.415C620.817 142.393 620.805 142.371 620.793 142.349C620.744 142.25 620.684 142.152 620.623 142.064C620.466 141.965 620.369 141.911 620.357 141.9C619.692 141.604 619.087 141.473 618.422 141.757C618.023 141.933 617.673 142.196 617.419 142.524C617.298 142.656 617.213 142.809 617.128 142.962C616.971 143.313 616.814 143.663 616.681 144.014C616.645 144.09 616.499 144.463 616.233 145.142C616.233 145.109 616.233 145.098 616.233 145.098C615.992 143.63 615.58 142.196 615.024 140.804C614.359 140.136 613.585 139.578 612.726 139.129C612.17 138.691 611.65 138.209 611.154 137.705C611.154 137.705 611.142 137.683 611.13 137.683C610.827 137.354 610.489 137.059 610.138 136.785C609.981 136.796 609.243 136.85 607.913 136.96C606.317 137.146 605.434 137.256 605.252 137.278C604.962 137.31 604.672 137.343 604.382 137.354C603.91 137.387 603.438 137.398 602.979 137.398C601.854 137.398 600.741 137.321 599.641 137.168C599.641 137.168 599.629 137.168 599.592 137.168C598.951 137.048 598.601 136.982 598.528 136.96C597.633 136.796 596.763 136.588 595.904 136.336C595.868 136.325 595.602 136.248 595.565 136.237C594.755 135.996 593.92 135.854 593.074 135.799C593.074 135.799 593.062 135.799 593.026 135.799C592.917 135.405 592.868 135.186 592.856 135.142C592.602 134.178 592.469 133.203 592.469 132.217C592.469 131.516 592.711 130.837 593.146 130.268C593.497 129.829 593.945 129.457 594.453 129.172C594.852 128.953 595.299 128.844 595.771 128.844C595.831 128.844 596.146 128.844 596.726 128.844C596.835 128.668 596.896 128.57 596.908 128.548C597.706 127.244 598.673 126.018 599.774 124.901C599.871 124.824 600.608 124.221 600.705 124.145C600.705 124.758 600.838 125.361 601.104 125.919C601.116 125.941 601.165 126.051 601.261 126.237C601.334 125.853 601.382 125.634 601.394 125.591C601.479 125.142 601.745 124.736 602.144 124.451C602.41 124.254 602.737 124.145 603.088 124.145C603.269 124.145 604.769 124.145 604.95 124.145C605.809 124.145 606.667 124.243 607.502 124.43C608.167 124.572 608.808 124.835 609.364 125.185C609.92 125.547 610.586 125.733 611.275 125.733C612.279 125.733 613.27 126.007 614.093 126.522C614.129 126.543 614.286 126.642 614.589 126.828C614.758 127.047 614.855 127.168 614.867 127.19C615.351 127.781 615.701 128.46 615.883 129.183C616.1 129.183 617.878 129.183 618.096 129.183C618.277 129.216 618.459 129.282 618.616 129.369C619.91 129.972 621.022 130.848 621.845 131.932C621.893 131.987 622.256 132.458 622.304 132.513C622.643 132.962 622.921 133.433 623.151 133.937C623.284 134.375 623.393 134.715 623.478 135.032C623.574 135.339 623.647 135.613 623.707 135.919C623.84 136.62 623.901 137.321 623.877 138.033C623.877 138.23 623.877 138.91 623.877 139.008Z" fill="#603052"/>
<path d="M616.85 157.99C616.85 160.476 616.584 162.952 616.052 165.383C615.846 166.281 615.29 167.07 614.48 167.607C613.645 168.154 612.642 168.45 611.614 168.45C610.44 168.45 609.292 168.154 608.288 167.607C607.671 167.278 607.151 166.829 606.752 166.303C606.728 166.281 606.595 166.106 606.583 166.084C606.196 165.58 605.857 165.044 605.567 164.485C605.119 163.631 604.805 162.733 604.635 161.802C604.478 160.958 604.103 160.17 603.523 159.501C607.066 158.045 612.158 155.58 613.379 153.839C614.347 152.459 615.242 150.651 615.895 149.906C615.931 149.874 616.282 149.6 616.33 149.567C616.681 151.155 616.85 152.765 616.85 154.375C616.85 155.098 616.85 157.628 616.85 157.99Z" fill="#F3B2A0"/>
<path d="M620.732 146.522C620.672 146.675 620.611 146.807 620.551 146.927C619.837 148.264 617.781 149.205 616.33 149.578C616.149 149.644 616.004 149.764 615.895 149.906C615.254 150.64 614.359 152.47 613.391 153.85C612.182 155.58 607.066 158.034 603.523 159.501C602.555 159.907 601.709 160.235 601.08 160.454C600.004 160.827 598.661 159.512 597.657 158.8C596.581 158.045 595.589 157.201 594.694 156.27C594.392 155.942 594.09 155.58 593.775 155.175C592.651 153.74 591.961 152.984 591.659 150.892C591.502 149.841 592.3 147.672 592.3 146.544C592.3 144.649 590.498 141.834 590.909 140.18C591.224 138.888 592.3 137.058 593.05 135.766C593.896 135.821 594.731 135.963 595.541 136.204C595.565 136.215 595.843 136.292 595.868 136.303C596.738 136.555 597.609 136.763 598.492 136.927C598.564 136.949 598.927 137.015 599.568 137.135C599.592 137.135 599.617 137.135 599.617 137.135C600.717 137.288 601.83 137.365 602.942 137.365C603.414 137.365 603.886 137.365 604.357 137.321C604.648 137.321 604.938 137.278 605.228 137.245C605.41 137.223 606.292 137.113 607.889 136.927C609.219 136.817 609.957 136.763 610.102 136.752C610.465 137.026 610.803 137.321 611.106 137.65L611.13 137.672C611.614 138.176 612.146 138.658 612.69 139.096C613.561 139.545 614.335 140.103 615 140.772C615.556 142.163 615.967 143.597 616.209 145.065C616.209 145.065 616.209 145.076 616.209 145.109C616.475 144.43 616.62 144.058 616.645 143.981C616.79 143.619 616.935 143.28 617.104 142.929C617.177 142.776 617.273 142.623 617.382 142.491C617.648 142.163 617.999 141.9 618.398 141.724C619.051 141.44 619.668 141.571 620.321 141.867C620.345 141.878 620.43 141.933 620.599 142.031C620.66 142.119 620.72 142.217 620.769 142.316C620.781 142.338 620.793 142.36 620.805 142.382V142.404C620.926 142.721 620.998 143.061 621.035 143.4C621.035 143.4 621.035 143.411 621.035 143.422C621.119 144.244 621.071 145.065 620.889 145.876C620.853 146.007 620.744 146.456 620.732 146.522Z" fill="#FFB9A3"/>
<path d="M639.998 179.568C639.562 179.239 639.066 178.998 638.522 178.856C638.413 178.834 637.458 178.593 637.349 178.56C636.212 178.275 635.075 178.034 633.927 177.837C633.878 177.826 633.467 177.76 633.419 177.749C631.955 177.497 630.456 177.377 628.968 177.388C628.702 177.388 627.42 177.388 625.11 177.388V178.91C624.772 178.878 624.578 178.856 624.53 178.856C623.683 178.779 622.837 178.746 621.99 178.768C621.724 178.768 620.43 178.79 618.084 178.823C614.54 178.932 612.569 178.987 612.17 178.998C612.17 178.998 606.437 179.162 606.075 179.162C605.881 179.162 605.168 179.184 604.502 179.206C604.369 179.206 603.329 179.239 603.208 179.25C602.713 178.516 602.084 177.881 601.322 177.377C601.298 177.355 601.092 177.224 601.068 177.202C600.766 177.005 600.451 176.818 600.125 176.654C599.484 176.325 598.818 176.063 598.117 175.865C597.391 175.033 596.726 174.146 596.146 173.226C596.121 173.193 596.001 173.007 595.795 172.678C595.42 172.021 595.227 171.648 595.178 171.583C594.707 170.739 594.271 170.104 594.174 169.94C593.195 168.505 592.348 166.993 591.647 165.438C591.635 165.427 591.611 165.35 591.598 165.339C591.381 164.638 591.199 163.927 591.066 163.215C590.933 162.579 590.861 161.933 590.861 161.276C590.861 160.564 590.994 159.841 591.26 159.162C591.538 158.483 591.937 157.858 592.457 157.3C592.675 157.201 594.477 156.38 594.694 156.281C595.589 157.212 596.581 158.067 597.657 158.811C598.649 159.545 600.004 160.849 601.08 160.476C601.709 160.246 602.555 159.918 603.523 159.523C604.103 160.191 604.49 160.98 604.648 161.813C604.817 162.744 605.131 163.653 605.567 164.507C605.857 165.066 606.196 165.591 606.583 166.106C606.607 166.128 606.74 166.292 606.752 166.314C607.151 166.851 607.683 167.3 608.288 167.629C609.292 168.176 610.453 168.461 611.626 168.461C612.654 168.472 613.645 168.176 614.48 167.629C615.29 167.092 615.859 166.292 616.052 165.405C616.584 162.963 616.862 160.498 616.862 158.012C616.862 157.65 616.862 154.759 616.862 154.397C616.862 152.787 616.681 151.177 616.33 149.589C617.781 149.227 619.837 148.285 620.551 146.938C620.611 146.818 620.672 146.686 620.732 146.533C622.825 146.653 624.905 146.938 626.948 147.398C627.868 147.595 628.763 147.858 629.633 148.176C629.863 148.264 631.738 148.954 631.967 149.03C632.983 149.403 633.987 149.797 634.991 150.224C635.886 150.618 636.394 150.827 636.49 150.87C637.99 151.506 639.357 152.371 640.53 153.422C640.88 153.751 641.134 154.036 641.134 154.156C641.231 154.452 641.388 154.715 641.594 154.956C642.67 156.413 643.396 158.056 643.735 159.775C643.831 160.432 643.989 161.09 644.218 161.725C644.388 162.207 644.509 162.711 644.557 163.226C644.908 165.471 645.089 167.738 645.077 170.006C645.077 170.893 645.077 177.947 645.077 178.823C645.125 179.151 645.186 179.469 645.295 179.776C645.561 180.74 645.887 181.682 646.286 182.602C646.323 182.667 646.492 182.985 646.794 183.565C642.38 183.565 639.937 183.565 639.441 183.565C639.804 183.018 639.998 182.394 639.998 181.758C639.998 181.32 639.998 179.787 639.998 179.568Z" fill="#454545"/>
</g>
<defs>
<clipPath id="clip0">
<rect width="1080" height="180" fill="white"/>
</clipPath>
</defs>
</svg>
