<svg width="1080" height="180" viewBox="0 0 1080 180" fill="none" xmlns="http://www.w3.org/2000/svg">
<g clip-path="url(#clip0)">
<path fill-rule="evenodd" clip-rule="evenodd" d="M892.721 180H888.128L885.041 178.502L861.812 167.23L862.336 174.73L873.197 180H868.606L862.488 177.032L862.695 180H860.69L860.25 173.724L860.261 173.729L859.736 166.224L859.726 166.219L858.882 154.119L858.892 154.123L858.366 146.631L858.35 146.623L858 141.583L863.879 137.615L863.886 137.619L870.142 133.401L870.136 133.398L880.216 126.594L880.223 126.597L886.47 122.383L886.462 122.379L896.543 115.58L896.549 115.583L902.795 111.372H902.794L910.954 105.867L910.953 105.866L921.033 99.066L970.458 123.047C976.138 125.804 982.195 128.718 988.302 131.357C994.332 133.545 1000.76 135.444 1007.35 136.978C1013.54 138.078 1020.24 139.075 1027.77 140.018C1034.4 140.849 1041.46 141.755 1048.44 142.878C1055.68 144.041 1062.23 145.474 1068.45 147.262C1073.64 148.745 1078.71 150.579 1083.65 152.752V154.942C1078.55 152.646 1073.28 150.722 1067.9 149.184C1061.75 147.42 1055.28 146.002 1048.12 144.852C1041.17 143.734 1034.13 142.832 1027.52 142.002C1019.96 141.056 1013.23 140.052 1006.95 138.936C1000.23 137.373 993.726 135.451 987.565 133.216C981.365 130.538 975.285 127.613 969.585 124.846L921.197 101.369L914.955 105.579L966.745 130.708C969.656 132.108 972.542 133.484 975.433 134.818L975.745 134.962C977.18 135.622 978.618 136.27 980.059 136.905L980.169 136.953C981.643 137.6 983.124 138.233 984.614 138.848C990.956 140.953 997.453 142.56 1004.04 143.652C1009.92 144.617 1016.31 145.383 1024.77 146.137C1026.58 146.3 1028.39 146.465 1030.2 146.632L1031.11 146.718C1032.16 146.818 1033.21 146.92 1034.26 147.024C1035.25 147.123 1036.24 147.224 1037.22 147.327L1037.78 147.385C1038.52 147.464 1039.25 147.544 1039.97 147.625L1040.45 147.677C1041.12 147.753 1041.78 147.83 1042.44 147.908L1043.18 147.995C1043.7 148.058 1044.22 148.123 1044.73 148.187L1045.77 148.315C1053.15 149.265 1059.78 150.535 1066.04 152.199C1067.7 152.639 1069.34 153.116 1070.96 153.626C1075.29 154.989 1079.53 156.636 1083.65 158.555V160.768C1079.35 158.713 1074.9 156.964 1070.35 155.534C1068.76 155.03 1067.15 154.563 1065.53 154.134C1059.34 152.491 1052.8 151.237 1045.52 150.3C1045.12 150.248 1044.71 150.2 1044.31 150.15C1043.87 150.095 1043.42 150.038 1042.97 149.984L1041.96 149.866C1041.41 149.801 1040.86 149.736 1040.3 149.673L1039.45 149.579C1038.85 149.513 1038.25 149.447 1037.66 149.384L1036.68 149.28C1036.16 149.227 1035.64 149.172 1035.12 149.121L1033.63 148.972L1032.66 148.875C1031.84 148.796 1031.02 148.718 1030.19 148.64C1028.39 148.471 1026.53 148.302 1024.59 148.13C1016.08 147.372 1009.65 146.6 1003.72 145.627C997.015 144.516 990.404 142.881 983.952 140.736H983.951L983.885 140.711C980.852 139.454 977.844 138.137 974.864 136.758L974.848 136.75C971.845 135.36 968.852 133.947 965.871 132.511L913.035 106.876L906.792 111.087L963.028 138.373C969.274 141.355 974.937 144.018 980.934 146.387C987.372 148.339 993.96 149.755 1000.63 150.619C1006.57 151.386 1013.07 151.94 1021.69 152.412C1029.68 152.848 1036.36 153.27 1043.03 153.914C1050.52 154.638 1057.23 155.739 1063.56 157.279C1070.27 158.911 1076.65 161.181 1082.52 164.025C1082.9 164.208 1083.28 164.394 1083.65 164.583V166.837C1083.02 166.51 1082.39 166.19 1081.75 165.877L1081.65 165.827C1075.91 163.046 1069.67 160.825 1063.09 159.226C1056.86 157.709 1050.23 156.624 1042.84 155.908C1035.51 155.198 1028.02 154.764 1021.58 154.412C1012.94 153.939 1006.4 153.382 1000.38 152.605C993.581 151.724 986.871 150.282 980.314 148.292L980.274 148.276L980.237 148.263C980.162 148.232 980.087 148.199 980.011 148.169C974.037 145.802 968.389 143.149 962.159 140.177L904.874 112.383L898.63 116.593L959.305 146.031C964.753 148.615 970.936 151.547 977.38 153.67C983.402 155.652 989.872 156.974 997.16 157.71C1003.21 158.322 1009.8 158.69 1018.51 158.9C1025.12 159.059 1032.78 159.268 1040.16 159.757C1047.78 160.259 1054.59 161.187 1060.96 162.593C1067.77 164.093 1074.19 166.292 1080.05 169.13L1080.21 169.21C1081.37 169.777 1082.52 170.371 1083.65 170.994V173.287C1082.24 172.484 1080.8 171.725 1079.34 171.011L1079.18 170.933C1073.46 168.163 1067.19 166.015 1060.54 164.551C1054.26 163.166 1047.55 162.252 1040.03 161.756C1032.67 161.27 1025.04 161.061 1018.47 160.903C1009.72 160.693 1003.09 160.322 996.961 159.703C989.523 158.951 982.913 157.6 976.756 155.573C970.21 153.416 963.959 150.453 958.445 147.841L896.703 117.885L890.46 122.095L955.586 153.695C961.028 156.262 967.206 159.175 973.696 161.241C979.675 163.142 986.375 164.404 993.61 164.989C999.719 165.484 1006.58 165.706 1015.2 165.69C1022.68 165.675 1029.99 165.684 1037.13 165.952C1044.89 166.24 1051.78 166.995 1058.2 168.259C1065.11 169.622 1071.57 171.746 1077.41 174.576L1077.56 174.648C1079.64 175.666 1081.67 176.782 1083.65 177.992V180H1083.09C1080.97 178.682 1078.78 177.473 1076.54 176.379C1070.86 173.625 1064.56 171.554 1057.81 170.227C1051.5 168.981 1044.71 168.239 1037.06 167.953C1029.95 167.688 1022.67 167.68 1015.2 167.694C1006.53 167.711 999.615 167.486 993.45 166.987C986.069 166.39 979.22 165.1 973.094 163.15C966.487 161.048 960.24 158.104 954.728 155.507L888.548 123.395L882.302 127.605L951.87 161.36C957.323 163.91 963.518 166.81 969.998 168.861C976.017 170.765 982.733 171.986 989.959 172.489C996.223 172.925 1003.13 173.039 1011.7 172.849L1012.3 172.836C1019.41 172.679 1026.76 172.516 1033.88 172.598C1041.77 172.688 1048.74 173.278 1055.2 174.401C1061.79 175.55 1067.94 177.432 1073.49 180H1068.31C1064.1 178.416 1059.6 177.202 1054.85 176.376C1048.5 175.271 1041.63 174.69 1033.86 174.602C1026.77 174.52 1019.44 174.682 1012.34 174.839L1011.75 174.852C1003.11 175.045 996.147 174.929 989.821 174.488C982.425 173.972 975.552 172.722 969.394 170.771C962.774 168.676 956.525 165.751 951.011 163.17L880.376 128.9L874.132 133.113L930.447 160.438C936.347 163.282 942.256 166.128 948.18 168.962C953.81 171.655 959.844 174.46 966.276 176.554C971.511 178.244 977.221 179.4 983.287 180H971.143C969.297 179.556 967.468 179.042 965.661 178.46C959.111 176.326 953.008 173.49 947.321 170.77C941.403 167.937 935.49 165.094 929.581 162.243L872.221 134.412L865.974 138.624L929.51 169.441C934.483 171.833 939.468 174.23 944.464 176.618H944.463C946.879 177.779 949.31 178.906 951.757 180H946.927C945.814 179.48 944.703 178.955 943.595 178.425C938.698 176.086 933.815 173.738 928.938 171.391L925.852 169.907L864.042 139.918L860.074 142.594L860.264 145.316L923.831 176.154C926.496 177.436 929.163 178.718 931.833 180H927.193L926.09 179.47L922.132 177.57L860.443 147.638L860.965 155.124L912.235 180H907.64L861.117 157.427L861.641 164.925L892.721 180ZM1039.99 180H1021.37C1024.37 179.911 1027.36 179.85 1030.36 179.818C1033.73 179.786 1036.93 179.846 1039.99 180Z" fill="white" fill-opacity="0.16"/>
<path d="M117.176 179.469H105.53L104.877 183.565H74.7878L74.1952 179.217C61.5572 179.206 54.5307 179.195 53.1279 179.195C52.3418 173.96 52.4869 169.885 52.9706 167.979C55.8852 159.95 59.3078 158.121 66.6245 157.026C72.1151 156.226 77.654 155.799 83.205 155.734C81.6328 157.256 80.9677 159.775 82.6971 164.135C84.4144 168.483 89.2277 172.525 93.4122 172.525C97.5966 172.525 100.547 168.746 100.995 164.135C100.995 164.069 100.995 164.003 100.995 163.937C102.023 164.408 103.111 164.726 104.248 164.89C106.631 165.208 108.832 162.984 111.069 160.75C111.323 160.487 111.589 160.213 111.879 159.929C115.229 162.393 117.164 166.095 117.176 170.005C117.176 171.265 117.176 174.42 117.176 179.469Z" fill="#3399FF"/>
<path d="M74.7877 183.576C62.2828 183.576 55.341 183.576 53.9502 183.576C53.5995 182.043 53.3335 180.575 53.14 179.195C54.5428 179.195 61.5693 179.206 74.2072 179.217L74.7877 183.576Z" fill="#FFB9A3"/>
<path d="M117.176 183.576H104.877L105.53 179.469H117.176V183.576Z" fill="#FFB9A3"/>
<path d="M111.879 159.907C111.613 160.202 111.347 160.476 111.069 160.728C108.832 162.963 106.631 165.197 104.248 164.879C103.111 164.704 102.023 164.386 100.995 163.926C97.391 162.36 93.7749 159.206 91.3804 155.843C90.7152 154.912 90.1347 153.937 89.6389 152.919C89.9896 152.743 90.3766 152.623 90.7636 152.557C90.8603 152.557 91.3078 152.557 92.1181 152.557C92.0455 152.459 91.9972 152.404 91.9851 152.393C91.586 151.922 91.1264 151.451 90.6548 151.013C90.4492 150.816 90.2798 150.596 90.1468 150.356C89.8445 149.841 89.5905 149.315 89.3607 148.778C89.3607 148.756 89.3124 148.647 89.2277 148.45L89.1672 148.285C89.0826 148.033 89.0463 147.891 89.0342 147.858C88.877 147.343 88.8407 146.796 88.9616 146.259C89.0221 145.963 89.143 145.679 89.3123 145.427C89.5421 145.076 89.8445 144.769 90.2073 144.528C90.4854 144.353 90.7999 144.211 91.1385 144.145C91.1869 144.134 91.586 144.047 91.6343 144.036C91.8157 143.992 92.0213 144.003 92.2028 144.068C92.5656 144.189 92.88 144.397 93.134 144.66C93.2791 144.813 93.4121 144.978 93.5331 145.153C93.5573 145.186 93.7508 145.459 93.7749 145.492C93.8596 145.624 93.908 145.766 93.908 145.92C93.908 146.314 94.041 146.697 94.2829 147.015C94.2829 146.949 94.2829 146.423 94.2829 146.358C94.2829 146.128 94.3192 145.909 94.4038 145.689C94.561 145.262 94.8392 144.89 95.2141 144.594C95.5164 144.353 95.8309 144.134 96.1816 143.937C96.6412 143.663 97.0524 143.356 97.4273 142.995C97.5482 142.875 97.6329 142.743 97.6933 142.601C97.911 142.053 98.0924 141.494 98.2496 140.925C98.2496 140.881 98.298 140.695 98.3947 140.355L98.6729 139.26L98.9511 138.417C99.1929 138.91 99.326 139.183 99.3502 139.238C99.5678 139.654 99.8339 140.049 100.16 140.41C100.221 140.476 100.281 140.542 100.354 140.596C100.487 140.695 101.225 141.1 101.563 141.297C101.672 141.363 101.793 141.429 101.89 141.516C102.482 141.944 103.135 142.305 103.837 142.557H103.861C104.357 142.787 104.841 143.05 105.288 143.356C105.578 143.543 105.881 143.707 106.183 143.849C106.582 143.937 106.969 143.992 107.368 144.025C107.513 144.025 107.876 143.981 107.876 143.981C107.828 143.959 107.393 143.773 107.332 143.751C106.8 143.521 106.389 143.105 106.183 142.601C106.183 142.404 106.183 140.87 106.183 140.673C106.788 140.892 107.368 141.166 107.913 141.494C107.937 141.505 108.13 141.626 108.154 141.637C108.626 141.889 109.074 142.174 109.497 142.502C109.606 142.601 109.727 142.688 109.872 142.765C109.932 142.798 109.993 142.831 110.053 142.864C110.428 143.116 110.742 143.433 110.984 143.806C111.166 144.079 111.371 144.342 111.589 144.594C111.71 144.704 111.819 144.824 111.916 144.956C111.94 144.999 112.097 145.197 112.363 145.547C112.363 144.233 112.363 143.51 112.363 143.356C112.363 142.809 112.218 142.272 111.928 141.779C111.928 141.779 111.916 141.757 111.903 141.724L113.379 142.688C113.415 142.71 113.427 142.721 113.427 142.732C114.141 143.258 114.782 143.849 115.362 144.496C115.834 145.021 116.209 145.591 116.511 146.215C116.511 146.226 116.56 146.314 116.572 146.325C116.354 147.343 115.955 148.406 115.846 149.567C115.749 151.122 116.076 151.768 115.749 153.488C115.35 155.679 113.597 158.056 111.879 159.907Z" fill="#FFBFAA"/>
<path d="M119.063 141.418C119.063 142.316 118.978 143.203 118.785 144.079C118.785 144.09 118.748 144.233 118.748 144.255C118.495 145.043 118.192 145.821 117.829 146.566C117.829 146.577 117.805 146.621 117.769 146.697L116.898 147.869C116.898 147.771 116.898 147.716 116.898 147.705C116.898 147.256 116.801 146.818 116.62 146.401C116.584 146.325 116.572 146.292 116.56 146.281C116.269 145.668 115.882 145.087 115.423 144.561C114.842 143.915 114.189 143.324 113.488 142.798C113.476 142.798 113.464 142.787 113.427 142.765L111.952 141.801C111.976 141.834 111.988 141.845 111.988 141.856C112.266 142.338 112.411 142.875 112.411 143.433C112.411 143.576 112.411 144.309 112.411 145.624C112.145 145.262 111.988 145.065 111.964 145.021C111.867 144.901 111.758 144.78 111.649 144.66C111.42 144.408 111.214 144.145 111.033 143.871C110.791 143.51 110.476 143.192 110.101 142.94C110.041 142.896 109.981 142.864 109.92 142.831C109.787 142.765 109.654 142.666 109.545 142.568C109.134 142.25 108.686 141.954 108.215 141.703C108.191 141.692 107.997 141.571 107.973 141.56C107.417 141.243 106.848 140.969 106.244 140.739C106.244 140.936 106.244 142.469 106.244 142.666C106.437 143.17 106.848 143.586 107.392 143.817C107.441 143.838 107.876 144.025 107.937 144.047C107.937 144.047 107.562 144.09 107.429 144.09C107.03 144.057 106.631 144.003 106.244 143.926C105.929 143.773 105.627 143.608 105.349 143.422C104.889 143.126 104.417 142.853 103.909 142.623C103.909 142.623 103.897 142.623 103.885 142.623C103.184 142.371 102.531 142.02 101.95 141.582C101.841 141.505 101.733 141.429 101.612 141.363C101.273 141.177 100.535 140.761 100.402 140.662C100.33 140.607 100.269 140.552 100.209 140.487C99.8822 140.125 99.6162 139.731 99.3985 139.304C99.3743 139.249 99.2413 138.975 98.9994 138.493L98.7212 139.326L98.4431 140.421C98.3584 140.761 98.3101 140.958 98.298 140.991C98.1528 141.56 97.9593 142.119 97.7417 142.666C97.6933 142.82 97.5965 142.951 97.4756 143.061C97.1128 143.422 96.6895 143.74 96.2299 144.003C95.8913 144.2 95.5648 144.419 95.2624 144.66C94.8875 144.956 94.6094 145.339 94.4522 145.755C94.3675 145.974 94.3312 146.204 94.3312 146.423C94.3312 146.489 94.3312 147.026 94.3312 147.091C94.0894 146.763 93.9684 146.38 93.9563 145.996C93.9563 145.843 93.9079 145.689 93.8233 145.558C93.7991 145.525 93.5693 145.186 93.5451 145.142C93.4242 144.967 93.2791 144.802 93.1339 144.649C92.8921 144.386 92.5655 144.178 92.2027 144.057C92.0213 143.992 91.8278 143.981 91.6343 144.025C91.5859 144.036 91.1868 144.123 91.1385 144.134C90.7998 144.2 90.4854 144.342 90.2073 144.518C89.8444 144.758 89.5421 145.065 89.3123 145.416C89.143 145.668 89.0221 145.952 88.9616 146.248C88.8528 146.785 88.8769 147.332 89.0342 147.847C89.0463 147.88 89.0946 148.023 89.1672 148.274L89.2277 148.439C89.3123 148.636 89.3607 148.745 89.3728 148.767C89.5905 149.304 89.8565 149.83 90.1468 150.345C90.2798 150.586 90.4612 150.805 90.6668 151.002C91.1264 151.44 91.5739 151.911 91.985 152.382C91.9971 152.393 92.0455 152.448 92.1302 152.546C91.3078 152.546 90.8603 152.546 90.7757 152.546C90.3766 152.612 90.0017 152.732 89.6509 152.908C89.5663 152.951 89.4816 152.995 89.397 153.039C89.3849 153.05 89.3244 153.083 89.2156 153.149C89.0342 152.951 88.9253 152.842 88.9011 152.82C88.5262 152.437 88.1876 152.02 87.8973 151.582C87.6192 151.166 87.3048 150.695 87.2443 150.575C87.1717 150.465 87.0508 150.169 86.8936 149.808C86.5066 148.899 86.2042 147.979 85.9623 147.037C85.9261 146.916 85.9019 146.796 85.8898 146.675C85.8777 146.577 85.8535 146.478 85.8293 146.38C85.5874 145.295 85.4544 144.189 85.4544 143.094C85.4544 143.083 85.4544 143.061 85.4544 143.006C85.5149 142.655 85.5391 142.469 85.5512 142.425C85.7326 141.33 85.9986 140.235 86.3373 139.161C86.4461 138.822 86.5912 138.493 86.7847 138.176C87.208 137.453 87.728 136.774 88.3206 136.149C88.4658 135.996 88.6351 135.865 88.8407 135.777C88.9374 135.733 89.7235 135.394 89.8324 135.35C90.0863 134.66 90.4491 134.003 90.9208 133.411C90.9208 133.4 90.9571 133.367 91.0054 133.302C91.5859 132.863 91.9125 132.622 91.985 132.579C92.4688 132.206 92.9888 131.878 93.5451 131.604C93.5572 131.593 93.6298 131.549 93.6419 131.549C94.5005 131.111 95.3834 130.717 96.2904 130.377C96.7016 130.213 97.1491 130.114 97.5844 130.059C97.7054 130.048 98.6366 129.95 98.7575 129.939C99.8097 129.818 100.874 129.764 101.938 129.764C102.12 129.764 103.655 129.764 103.849 129.764C105.264 129.764 106.679 129.873 108.07 130.103C108.215 130.125 108.36 130.158 108.505 130.191C108.541 130.191 108.868 130.268 108.904 130.278C110.198 130.574 111.444 131.012 112.605 131.604C112.702 131.67 113.173 131.987 114.032 132.568C114.334 132.754 114.504 132.852 114.528 132.874C115.399 133.422 116.148 134.09 116.765 134.868C116.85 134.988 117.551 135.996 117.648 136.127C118.132 136.763 118.519 137.464 118.797 138.198C118.978 138.701 119.063 139.227 119.063 139.764C119.063 140.092 119.063 141.253 119.063 141.418Z" fill="#7F694F"/>
<path d="M101.007 164.113C100.559 168.735 97.6207 172.514 93.4363 172.514C89.2398 172.514 84.4506 168.472 82.7091 164.113C80.9676 159.753 81.6449 157.245 83.2292 155.723C84.2934 155.701 86.5912 155.723 87.6555 155.723C87.7643 155.547 88.2964 154.693 89.2398 153.16C89.3486 153.105 89.4091 153.061 89.4212 153.061C89.5058 153.006 89.5905 152.962 89.6751 152.93C90.1589 153.948 90.7394 154.923 91.4166 155.843C93.787 159.206 97.403 162.36 101.007 163.926C101.007 163.992 101.007 164.047 101.007 164.113Z" fill="#FFB9A3"/>
<path d="M76.6864 177.048C73.5783 177.048 73.5783 181.43 76.6864 181.43C79.8066 181.43 79.8066 177.048 76.6864 177.048Z" fill="#3399FF"/>
<path d="M76.6864 177.048C73.5783 177.048 73.5783 181.43 76.6864 181.43C79.8066 181.43 79.8066 177.048 76.6864 177.048Z" fill="#3399FF"/>
<path d="M76.6623 177.048C73.5421 177.048 73.5421 181.43 76.6623 181.43C79.7704 181.43 79.7825 177.048 76.6623 177.048Z" fill="#3399FF"/>
<path d="M76.6381 177.048C73.5299 177.048 73.5178 181.43 76.6381 181.43C79.7583 181.43 79.7583 177.048 76.6381 177.048Z" fill="#3399FF"/>
<path d="M76.6139 177.048C73.4937 177.048 73.4937 181.43 76.6139 181.43C79.722 181.43 79.722 177.048 76.6139 177.048Z" fill="#3399FF"/>
<path d="M76.3478 176.03C73.2397 176.03 73.2276 180.411 76.3478 180.411C79.468 180.411 79.468 176.03 76.3478 176.03Z" fill="#3399FF"/>
<path d="M76.3478 176.03C73.2397 176.03 73.2276 180.411 76.3478 180.411C79.468 180.411 79.468 176.03 76.3478 176.03Z" fill="#3399FF"/>
<path d="M76.3236 176.03C73.2035 176.03 73.2035 180.411 76.3236 180.411C79.4317 180.411 79.4438 176.03 76.3236 176.03Z" fill="#3399FF"/>
<path d="M76.2995 176.03C73.1793 176.03 73.1793 180.411 76.2995 180.411C79.4076 180.411 79.4197 176.03 76.2995 176.03Z" fill="#3399FF"/>
<path d="M118.035 183.576C121.687 183.576 123.731 183.576 124.13 183.576C123.646 182.109 123.284 180.619 123.078 179.096C122.921 177.968 122.824 176.84 122.776 175.701C122.764 175.383 122.667 172.82 122.655 172.503C122.594 171.21 122.594 170.17 122.594 169.918C122.594 169.162 122.594 168.406 122.643 167.65C122.691 166.424 122.788 165.197 122.933 163.981C122.945 163.894 122.993 163.466 123.09 162.7C123.259 161.67 123.344 161.09 123.368 160.98C123.489 160.235 123.719 159.523 124.058 158.844C124.445 158.034 125.074 157.333 125.86 156.807C126.948 156.073 128.218 155.569 129.548 155.35C131.689 154.978 133.418 154.846 133.841 154.792C135.426 154.649 137.01 154.572 138.594 154.572C138.969 154.572 141.981 154.572 142.356 154.572C142.755 154.572 143.154 154.649 143.517 154.792C143.444 154.715 143.045 154.331 142.343 153.62C141.424 152.699 140.904 152.185 140.808 152.086C139.864 151.078 139.006 150.016 138.232 148.899C138.183 148.822 138.135 148.756 138.099 148.669C138.062 148.581 137.857 148.121 137.482 147.289C137.264 146.807 137.155 146.533 137.131 146.478C136.829 145.788 136.611 145.076 136.466 144.342C136.357 143.816 136.309 143.269 136.309 142.732C136.309 141.867 136.369 141.012 136.478 140.147C136.551 139.621 136.671 139.107 136.853 138.603C137.167 137.716 137.578 136.861 138.062 136.04C138.365 135.525 138.703 135.021 139.066 134.528C139.126 134.452 139.441 134.024 140.009 133.258L141.666 131.582C142.996 130.487 143.734 129.873 143.891 129.753C145.052 128.811 146.346 128 147.737 127.354C147.882 127.277 148.04 127.233 148.197 127.201C148.233 127.19 148.523 127.102 148.56 127.091C150.555 126.467 152.623 126.094 154.727 125.963C154.776 125.974 155.235 126.007 155.296 126.007C156.795 126.105 158.283 126.401 159.698 126.894C159.855 126.949 161.101 127.463 161.258 127.529C162.371 127.978 163.229 128.427 163.447 128.526C164.148 128.887 164.826 129.293 165.455 129.753C166.603 130.574 167.595 131.56 168.381 132.677C169.433 134.057 170.268 135.569 170.873 137.157V137.19C171.356 138.975 171.61 140.804 171.61 142.634C171.61 142.743 171.586 142.853 171.55 142.962C171.514 143.083 171.187 144.003 171.151 144.123C170.897 144.857 170.594 145.58 170.244 146.292C170.22 146.336 170.05 146.664 170.038 146.708C169.724 147.332 169.373 147.946 168.986 148.537C168.95 148.592 168.684 148.997 168.647 149.041C168.272 149.622 167.861 150.169 167.414 150.706C167.402 150.728 167.232 150.914 167.22 150.947C166.809 151.429 166.386 151.9 165.938 152.338C165.817 152.458 165.757 152.513 165.745 152.535C165.031 153.236 164.233 153.86 163.362 154.397C162.879 154.693 162.407 155.011 161.947 155.339C161.911 155.361 161.742 155.482 161.439 155.701C162.54 155.701 163.157 155.701 163.278 155.701C164.209 155.525 165.152 155.438 166.108 155.438C166.724 155.438 167.329 155.471 167.946 155.547C168.768 155.646 169.554 155.942 170.22 156.413C170.715 156.763 171.187 157.135 171.634 157.541C172.408 158.242 172.989 159.096 173.34 160.038C173.352 160.071 173.449 160.334 173.461 160.367C173.884 161.725 174.223 163.105 174.477 164.496C174.501 164.638 174.525 164.781 174.573 164.923C174.67 165.087 174.718 167.431 174.718 167.431C174.718 167.596 174.731 168.428 174.755 169.918L174.948 172.536C175.142 174.124 175.251 175 175.275 175.175C175.275 175.175 175.48 177.388 175.565 178.067L175.867 180.488C175.879 180.564 175.94 181.178 175.952 181.254C176.037 182.032 176.085 182.81 176.085 183.587C176.52 183.587 178.746 183.587 182.737 183.587" stroke="white"/>
<path d="M124.021 172.229C120.913 172.229 120.901 176.61 124.021 176.61C127.142 176.61 127.142 172.229 124.021 172.229Z" fill="#013220"/>
<path d="M121.458 165.471C118.337 165.471 118.337 169.852 121.458 169.852C124.566 169.852 124.578 165.471 121.458 165.471Z" fill="#013220"/>
<path d="M122.437 157.88C119.329 157.88 119.329 162.262 122.437 162.262C125.557 162.262 125.557 157.88 122.437 157.88Z" fill="#013220"/>
<path d="M128.726 154.091C125.606 154.091 125.606 158.472 128.726 158.472C131.834 158.472 131.846 154.091 128.726 154.091Z" fill="#013220"/>
<path d="M136.49 152.754C133.37 152.754 133.37 157.135 136.49 157.135C139.598 157.135 139.61 152.754 136.49 152.754Z" fill="#013220"/>
<path d="M142.126 149.567C139.006 149.567 139.006 153.948 142.126 153.948C145.234 153.948 145.246 149.567 142.126 149.567Z" fill="#013220"/>
<path d="M137.965 143.893C134.845 143.893 134.857 148.274 137.965 148.274C141.086 148.274 141.086 143.893 137.965 143.893Z" fill="#013220"/>
<path d="M136.829 136.894C133.708 136.894 133.708 141.275 136.829 141.275C139.937 141.275 139.949 136.894 136.829 136.894Z" fill="#013220"/>
<path d="M140.747 130.059C137.627 130.059 137.627 134.441 140.747 134.441C143.855 134.441 143.867 130.059 140.747 130.059Z" fill="#013220"/>
<path d="M148.173 125.229C145.052 125.229 145.052 129.61 148.173 129.61C151.281 129.61 151.293 125.229 148.173 125.229Z" fill="#013220"/>
<path d="M157.195 123.608C154.086 123.608 154.074 127.989 157.195 127.989C160.315 127.989 160.315 123.608 157.195 123.608Z" fill="#013220"/>
<path d="M165.152 126.467C162.032 126.467 162.032 130.848 165.152 130.848C168.26 130.848 168.26 126.467 165.152 126.467Z" fill="#013220"/>
<path d="M170.873 131.823C167.752 131.823 167.765 136.204 170.873 136.204C173.993 136.204 173.993 131.823 170.873 131.823Z" fill="#013220"/>
<path d="M171.489 140.038C168.369 140.038 168.381 144.419 171.489 144.419C174.61 144.419 174.61 140.038 171.489 140.038Z" fill="#013220"/>
<path d="M168.176 146.894C165.056 146.894 165.056 151.276 168.176 151.276C171.284 151.276 171.296 146.894 168.176 146.894Z" fill="#013220"/>
<path d="M161.814 151.856C158.694 151.856 158.706 156.237 161.814 156.237C164.935 156.237 164.935 151.856 161.814 151.856Z" fill="#013220"/>
<path d="M168.526 153.543C165.406 153.543 165.406 157.924 168.526 157.924C171.634 157.924 171.647 153.543 168.526 153.543Z" fill="#013220"/>
<path d="M172.844 159.447C169.724 159.447 169.736 163.828 172.844 163.828C175.964 163.828 175.964 159.447 172.844 159.447Z" fill="#013220"/>
<path d="M175.807 166.205C172.687 166.205 172.687 170.586 175.807 170.586C178.915 170.586 178.927 166.205 175.807 166.205Z" fill="#013220"/>
<path d="M174.21 173.127C171.09 173.127 171.09 177.508 174.21 177.508C177.319 177.508 177.319 173.127 174.21 173.127Z" fill="#013220"/>
<path d="M124.807 179.053C121.687 179.053 121.699 183.434 124.807 183.434C127.928 183.434 127.928 179.053 124.807 179.053Z" fill="#013220"/>
<path d="M239.214 159.852C239.214 174.08 239.214 181.988 239.214 183.576C208.823 183.576 191.94 183.576 188.566 183.576C188.566 169.337 188.566 161.429 188.566 159.852C218.957 159.852 235.84 159.852 239.214 159.852Z" fill="#D9D9D9"/>
<path d="M195.459 150.213C189.134 150.246 183.631 146.325 182.168 140.761C182.18 140.761 182.337 140.761 182.35 140.761C182.604 140.761 182.857 140.826 183.075 140.936C183.341 141.078 183.595 141.232 183.837 141.407C183.849 141.429 183.946 141.527 183.958 141.549C184.514 142.206 184.938 142.962 185.204 143.762C185.204 143.751 185.204 143.608 185.204 143.587C185.204 142.71 185.494 141.845 186.05 141.122C186.365 140.706 186.812 140.399 187.344 140.246C190.005 139.468 192.52 138.34 194.806 136.894C196.814 135.635 198.422 133.926 199.498 131.943C199.523 131.9 199.752 131.472 199.777 131.418C203.405 133.247 206.09 137.409 206.597 142.371C206.597 142.371 206.634 142.349 206.682 142.305L206.9 142.141L207.456 141.856C207.613 141.779 207.71 141.725 207.722 141.725C207.892 141.637 208.061 141.582 208.254 141.538C206.295 146.347 201.204 150.213 195.459 150.213Z" fill="#2A0000"/>
<path d="M188.566 165.318V183.576H182.737C182.737 183.138 182.737 182.897 182.737 182.843C182.737 181.583 182.664 180.323 182.507 179.064C182.483 178.943 182.374 177.979 182.35 177.859C182.229 176.873 182.071 175.876 181.878 174.902L180.923 169.973C180.39 167.826 180.1 166.632 180.04 166.391C179.641 164.759 179.145 163.149 178.564 161.572C178.552 161.561 178.516 161.462 178.516 161.451C177.899 159.808 177.391 158.132 176.968 156.435C176.847 155.985 176.823 155.504 176.907 155.043C177.028 154.189 177.439 153.39 178.068 152.743C178.407 152.404 178.806 152.119 179.254 151.9C179.858 151.604 180.487 151.341 181.14 151.111C181.237 151.21 182.059 152.009 182.168 152.108C183.148 153.411 184.018 154.77 184.78 156.183C184.792 156.194 184.829 156.27 184.841 156.281C185.385 157.322 185.663 158.461 185.663 159.611C185.663 159.699 185.663 160.367 185.663 160.443C185.663 161.626 185.99 162.787 186.594 163.839C186.848 164.036 187.514 164.529 188.566 165.318Z" fill="#FFB9A3"/>
<path d="M209.923 143.652C209.911 143.674 209.875 143.838 209.79 144.112C209.694 144.408 209.645 144.572 209.633 144.605C209.536 144.89 209.415 145.175 209.282 145.449C209.27 145.47 209.198 145.646 209.186 145.668C209.101 145.843 209.004 146.007 208.907 146.182C208.883 146.215 208.799 146.369 208.617 146.653C208.448 146.916 208.363 147.059 208.339 147.092C208.194 147.3 208.037 147.497 207.867 147.694C207.674 147.913 207.456 148.11 207.226 148.285C207.13 148.351 207.045 148.417 206.948 148.472C206.924 148.483 206.718 148.614 206.694 148.636C206.549 148.724 206.392 148.811 206.235 148.899C206.211 148.921 205.969 149.052 205.944 149.063C205.703 149.841 205.678 150.52 205.497 151.199C205.412 151.495 205.303 151.769 205.146 152.042C204.203 153.652 202.727 154.726 201.204 155.723C199.438 156.873 197.527 157.848 195.532 157.848C193.548 157.848 191.795 156.862 190.053 155.723C188.493 154.715 186.945 153.652 185.99 152.042C185.651 151.462 185.421 150.848 185.288 150.213C185.131 149.534 185.034 148.822 184.841 148.023C184.817 148.012 184.611 147.946 184.587 147.935C184.442 147.891 184.309 147.836 184.176 147.771C183.934 147.65 183.716 147.508 183.498 147.354C183.486 147.343 183.402 147.278 183.269 147.168C182.954 146.949 182.785 146.829 182.749 146.807C182.398 146.566 182.083 146.281 181.805 145.963C181.648 145.777 181.515 145.58 181.406 145.383C181.358 145.306 180.995 144.704 180.959 144.627C180.898 144.528 180.862 144.43 180.838 144.331C180.693 143.806 180.632 143.258 180.632 142.721C180.632 142.393 180.705 142.064 180.874 141.768C181.031 141.462 181.273 141.199 181.576 140.991C181.745 140.87 181.963 140.783 182.18 140.761C182.192 140.761 182.35 140.761 182.362 140.761C182.616 140.761 182.87 140.815 183.087 140.936C183.353 141.067 183.607 141.232 183.849 141.407C183.861 141.418 183.958 141.527 183.97 141.538C184.526 142.206 184.95 142.951 185.216 143.762C185.216 143.74 185.216 143.597 185.216 143.576C185.216 142.699 185.506 141.845 186.062 141.111C186.377 140.706 186.824 140.399 187.356 140.246C190.017 139.468 192.532 138.329 194.818 136.883C196.826 135.624 198.434 133.926 199.511 131.943C199.595 132.151 200.236 133.805 200.321 134.014C200.551 134.616 200.829 135.196 201.143 135.766C201.784 136.927 202.631 137.99 203.647 138.91C204.747 139.895 205.533 141.133 205.932 142.491C205.944 142.546 206.053 143.061 206.065 143.126C206.223 143.893 206.307 144.671 206.307 145.449C206.319 145.405 206.452 145.065 206.464 145.021C206.561 144.759 206.61 144.485 206.61 144.211C206.61 143.63 206.779 143.061 207.093 142.557C207.093 142.557 207.093 142.546 207.093 142.535C207.456 142.042 207.662 141.768 207.698 141.714C207.867 141.637 208.037 141.571 208.23 141.538C208.242 141.538 208.315 141.538 208.327 141.538C208.399 141.527 208.472 141.527 208.545 141.538C208.702 141.538 208.871 141.56 209.016 141.615C209.173 141.659 209.319 141.735 209.427 141.845C209.609 142.009 209.754 142.217 209.863 142.426C209.947 142.612 209.996 142.809 210.008 143.006C210.008 143.225 209.984 143.433 209.923 143.652Z" fill="#FFB9A3"/>
<path d="M208.351 141.527C208.339 141.527 208.266 141.527 208.254 141.527C208.061 141.56 207.892 141.626 207.722 141.703C207.686 141.757 207.48 142.031 207.118 142.524C207.118 142.535 207.118 142.546 207.118 142.546C206.803 143.05 206.634 143.619 206.634 144.2C206.634 144.474 206.585 144.748 206.489 145.01C206.477 145.054 206.344 145.394 206.331 145.438C206.331 144.66 206.247 143.882 206.09 143.116C206.077 143.05 205.969 142.535 205.957 142.48C205.557 141.122 204.771 139.884 203.671 138.899C202.655 137.979 201.808 136.916 201.167 135.755C200.853 135.185 200.575 134.605 200.345 134.003C200.26 133.794 199.619 132.141 199.535 131.932C198.458 133.915 196.85 135.613 194.842 136.872C192.557 138.318 190.041 139.457 187.381 140.235C186.848 140.388 186.401 140.695 186.087 141.1C185.53 141.834 185.24 142.688 185.24 143.565C185.24 143.587 185.24 143.729 185.24 143.751C184.974 142.94 184.551 142.195 183.994 141.527C183.982 141.516 183.885 141.407 183.873 141.396C183.631 141.221 183.378 141.056 183.111 140.925C182.894 140.804 182.64 140.75 182.386 140.75C182.374 140.75 182.229 140.75 182.204 140.75C181.987 139.862 181.866 138.953 181.866 138.055C181.866 135.021 182.337 132.721 184.405 130.596C185.905 129.096 187.743 127.913 189.799 127.102C189.799 124.309 193.246 122.359 196.415 122.359C199.583 122.359 202.994 124.21 202.994 127.003C202.994 127.102 202.994 127.19 202.994 127.288C204.034 127.715 204.989 128.296 205.811 129.008C208.242 131.22 209.331 133.586 209.331 136.938C209.319 138.515 208.992 140.071 208.351 141.527Z" fill="#5F2B00"/>
<path d="M210.395 152.678C210.322 152.809 210.274 152.886 210.274 152.908C209.863 153.663 209.464 154.441 209.125 155.23C208.617 156.369 208.351 157.574 208.351 158.8C208.351 158.866 208.351 159.217 208.351 159.852H188.566V165.329C187.381 164.43 186.727 163.927 186.594 163.828C185.99 162.776 185.663 161.615 185.663 160.432C185.663 160.356 185.663 159.688 185.663 159.6C185.663 158.45 185.385 157.311 184.841 156.27C184.829 156.259 184.792 156.183 184.78 156.172C184.018 154.759 183.148 153.39 182.168 152.086C182.059 151.977 181.237 151.177 181.14 151.079C181.793 150.848 182.471 150.651 183.148 150.487C183.184 150.476 183.462 150.41 183.498 150.41C184.079 150.268 184.684 150.202 185.288 150.202C185.421 150.838 185.651 151.451 185.99 152.02C186.945 153.642 188.493 154.704 190.053 155.712C191.795 156.84 193.573 157.826 195.532 157.826C197.491 157.826 199.438 156.862 201.204 155.712C202.752 154.704 204.203 153.631 205.146 152.02C205.303 151.758 205.412 151.473 205.497 151.188C205.678 151.243 206.646 151.549 208.363 152.075L210.02 152.546L210.395 152.678Z" fill="#FF1F4B"/>
<path d="M216.732 159.852H208.351C208.351 159.217 208.351 158.866 208.351 158.8C208.351 157.574 208.617 156.369 209.125 155.23C209.476 154.441 209.863 153.663 210.274 152.908C210.274 152.886 210.322 152.809 210.395 152.678C211.048 152.864 211.411 152.962 211.483 152.984C212.136 153.171 212.79 153.401 213.418 153.663C214.023 153.915 214.579 154.244 215.075 154.638C215.16 154.704 215.801 155.208 215.885 155.273C216.43 155.985 216.72 156.829 216.732 157.683C216.732 157.979 216.732 158.702 216.732 159.852Z" fill="#FFB9A3"/>
<path d="M278.543 183.576H265.845C265.845 181.09 265.845 179.71 265.845 179.436C265.845 178.056 265.748 176.676 265.555 175.296C265.542 175.175 265.518 175.055 265.494 174.934C265.422 174.617 265.373 174.441 265.361 174.409C265.361 174.387 265.361 174.365 265.361 174.354C265.361 174.321 265.361 174.299 265.361 174.277C265.446 173.96 265.494 173.631 265.494 173.313C265.494 172.82 265.422 172.327 265.288 171.846C265.022 170.936 264.635 170.071 264.14 169.25C264.115 169.217 263.97 168.976 263.958 168.943C263.934 168.91 263.91 168.866 263.91 168.823C263.765 168.297 263.692 167.76 263.692 167.212C263.692 166.862 263.716 166.522 263.777 166.172C263.994 165.164 264.188 164.156 264.309 163.138C264.309 163.127 264.321 163.039 264.333 162.908L264.381 161.155V161.068L264.055 159.512L263.245 158.242L262.446 157.212C262.277 156.993 262.192 156.873 262.168 156.851C261.757 156.281 261.273 155.755 260.717 155.295C260.705 155.284 260.669 155.23 260.584 155.131C260.572 155.109 260.56 155.098 260.56 155.098C261.842 155.504 263.1 156.007 264.297 156.588C265.482 157.179 266.595 157.869 267.647 158.647C268.735 159.458 269.703 160.411 270.525 161.462C272.23 163.653 273.742 165.964 275.072 168.362C275.955 169.973 276.657 171.67 277.14 173.412C277.177 173.532 277.467 174.551 277.503 174.682C277.636 175.153 277.745 175.635 277.842 176.117C278.084 177.421 278.241 179.184 278.374 180.915C278.471 181.813 278.519 182.711 278.543 183.533C278.543 183.533 278.543 183.554 278.543 183.576Z" fill="#FFC2AF"/>
<path d="M253.811 146.916C253.63 147.453 253.376 147.968 253.037 148.45C252.578 149.085 252.07 149.698 251.502 150.268C251.417 150.366 250.655 151.144 250.558 151.243C250.462 151.473 250.377 151.703 250.292 151.933C249.325 153.083 248.72 153.915 247.716 154.956C245.854 156.873 244.27 158.056 241.573 158.056C241.331 158.056 241.089 158.034 240.847 158.012C238.126 157.683 236.251 155.569 234.316 153.4C233.724 152.754 233.107 152.207 232.575 151.615C231.91 150.925 231.426 150.125 231.124 149.26C230.579 147.661 230.942 146.708 230.942 144.879C230.942 143.181 229.213 141.845 229.14 140.279C229.14 140.202 229.14 140.125 229.14 140.06C229.14 140.06 229.152 140.071 229.164 140.081L229.576 139.282C229.709 139.019 229.781 138.866 229.793 138.844C229.987 138.471 230.229 138.121 230.531 137.814C231.063 137.267 231.692 136.796 232.393 136.434C233.506 136.062 234.691 135.875 235.889 135.875C235.889 135.875 235.937 135.875 236.022 135.875L237.473 135.897C238.198 135.897 238.598 135.897 238.682 135.897C240.545 135.897 242.395 135.7 244.209 135.306C245.515 135.58 246.725 136.138 247.74 136.938C247.849 137.026 247.958 137.113 248.067 137.212C248.103 137.245 248.43 137.54 248.466 137.573C249.325 138.329 250.087 139.183 250.74 140.103C250.74 140.125 250.8 140.333 250.812 140.355C251.078 141.21 251.211 142.097 251.211 142.984C251.526 143.63 252.094 144.145 252.796 144.452C253.098 144.572 253.4 144.693 253.715 144.813C253.908 144.89 254.053 145.054 254.065 145.251C254.065 145.821 253.981 146.38 253.811 146.916Z" fill="#FFC2AF"/>
<path d="M265.845 183.576H239.275C239.239 181.408 239.226 180.214 239.214 179.973C240.291 179.644 241.44 179.567 242.552 179.754C242.576 179.754 242.794 179.787 242.818 179.797C243.544 179.918 244.27 179.973 245.007 179.973C245.914 179.973 246.821 179.808 247.656 179.491C248.502 179.173 249.264 178.713 249.917 178.133C250.038 177.946 250.123 177.749 250.159 177.541C250.534 176.314 250.486 175.011 250.038 173.806C249.893 173.401 249.627 173.05 249.276 172.777C248.345 172.076 247.305 171.506 246.18 171.09C245.007 170.663 243.701 170.608 242.492 170.936C242.081 171.046 241.694 171.21 241.331 171.418C241.101 171.561 240.895 171.714 240.69 171.878C240.69 171.813 240.69 171.243 240.69 171.177C240.69 169.951 240.883 168.724 241.258 167.541C241.379 167.158 241.585 166.796 241.863 166.5C242.153 166.194 242.492 165.942 242.891 165.767C242.963 165.734 243.29 165.591 243.907 165.317C244.681 165.317 245.116 165.317 245.201 165.317C245.999 165.317 246.797 165.252 247.583 165.12C248.817 164.923 249.99 164.496 251.03 163.861C251.453 163.609 251.816 163.28 252.118 162.908C252.203 162.787 252.965 161.845 253.05 161.725C253.412 162.448 253.691 163.204 253.884 163.981C254.017 164.474 254.078 164.967 254.09 165.471C254.114 165.953 254.114 166.446 254.09 166.928C254.066 166.993 254.041 167.048 254.005 167.114C253.412 168.111 252.517 168.932 251.417 169.48C251.417 169.48 251.405 169.48 251.381 169.502L250.57 169.94C251.006 170.476 251.248 170.772 251.296 170.827C251.635 171.243 252.01 171.637 252.397 172.01C252.856 172.448 253.183 172.985 253.352 173.576C253.364 173.587 253.509 173.708 253.533 173.729C254.186 174.288 254.96 174.704 255.807 174.967C256.617 174.792 257.464 174.792 258.274 174.967C258.371 175.022 259.121 175.471 259.217 175.537C259.689 175.821 260.088 176.205 260.378 176.654C260.886 177.103 261.576 177.344 262.289 177.344C262.422 177.344 262.555 177.333 262.688 177.322C262.713 177.322 262.954 177.289 262.979 177.278C263.716 176.807 264.345 176.216 264.829 175.537C264.841 175.526 264.853 175.515 264.865 175.493C265.059 175.23 265.204 174.934 265.325 174.639C265.349 174.562 265.373 174.474 265.397 174.398C265.409 174.452 265.518 174.869 265.53 174.923C265.567 175.11 265.591 175.252 265.591 175.296C265.772 176.665 265.857 178.045 265.845 179.436C265.845 179.984 265.845 181.364 265.845 183.576Z" fill="#FF7526"/>
<path d="M260.753 155.273L260.693 155.23L260.451 155.043L260.62 155.087L260.644 155.131L260.753 155.273Z" fill="#FFC84B"/>
<path d="M265.397 174.277C265.409 174.299 265.409 174.332 265.397 174.354C265.397 174.376 265.397 174.387 265.397 174.409C265.397 174.485 265.349 174.573 265.325 174.65C265.216 174.945 265.059 175.241 264.865 175.504C264.853 175.526 264.853 175.537 264.841 175.548C264.345 176.227 263.716 176.818 262.991 177.289C262.954 177.3 262.725 177.333 262.688 177.333C262.555 177.344 262.422 177.355 262.289 177.355C261.576 177.355 260.898 177.114 260.378 176.665C260.088 176.216 259.701 175.833 259.217 175.548C259.133 175.493 258.371 175.033 258.286 174.978C257.476 174.803 256.629 174.803 255.819 174.978C254.96 174.715 254.186 174.299 253.533 173.741C253.521 173.719 253.376 173.598 253.352 173.587C253.195 172.996 252.868 172.459 252.409 172.021C252.01 171.648 251.635 171.254 251.296 170.838C251.248 170.783 251.006 170.487 250.558 169.973L251.369 169.524C251.393 169.513 251.405 169.502 251.405 169.502C252.493 168.954 253.388 168.133 253.981 167.136C254.017 167.081 254.053 167.026 254.078 166.961C254.102 166.479 254.102 165.986 254.078 165.504C254.066 165 253.993 164.507 253.872 164.014C253.679 163.237 253.4 162.481 253.038 161.747C252.953 161.572 252.856 161.385 252.759 161.221C252.264 160.323 251.792 159.655 251.683 159.48C251.163 158.746 250.703 157.979 250.28 157.19C249.966 156.599 249.784 155.953 249.736 155.285C249.7 154.781 249.724 154.266 249.821 153.762C249.821 153.751 249.821 153.696 249.821 153.696C249.917 153.116 250.075 152.535 250.268 151.977C250.341 151.736 250.437 151.506 250.534 151.287C251.103 150.706 251.417 150.378 251.477 150.312C252.034 149.742 252.554 149.129 253.013 148.483C253.34 148.012 253.606 147.497 253.775 146.96C253.957 146.412 254.041 145.854 254.041 145.295C254.041 145.076 253.896 144.89 253.678 144.802C253.364 144.693 253.062 144.583 252.759 144.441C252.058 144.145 251.49 143.619 251.175 142.984C251.175 142.086 251.042 141.21 250.776 140.344C250.764 140.323 250.703 140.114 250.703 140.093C250.05 139.172 249.288 138.329 248.43 137.562C248.394 137.53 248.067 137.234 248.031 137.201C247.922 137.102 247.813 137.015 247.704 136.927C246.688 136.138 245.479 135.58 244.173 135.306C242.359 135.689 240.508 135.887 238.646 135.887C238.561 135.887 238.162 135.887 237.437 135.887L235.985 135.865C235.901 135.865 235.852 135.865 235.852 135.865C234.655 135.865 233.47 136.062 232.357 136.434C231.656 136.796 231.027 137.256 230.495 137.814C230.192 138.121 229.951 138.461 229.757 138.833C229.745 138.866 229.672 139.008 229.539 139.282L229.128 140.071C229.116 140.06 229.104 140.049 229.104 140.049C228.596 139.72 228.197 139.293 227.919 138.789C227.798 138.592 227.701 138.373 227.629 138.154C227.616 138.132 227.568 137.99 227.556 137.968C227.35 137.365 227.242 136.741 227.242 136.106C227.242 135.186 227.375 134.265 227.641 133.367C227.81 132.798 228.088 132.25 228.475 131.757C229.128 130.914 229.866 130.114 230.664 129.369C230.676 129.358 230.725 129.315 230.809 129.227C231.172 128.92 231.378 128.745 231.426 128.712C232.031 128.197 232.684 127.726 233.373 127.31C233.409 127.288 233.663 127.124 233.7 127.113C234.353 126.708 235.054 126.368 235.78 126.073C236.651 125.722 237.57 125.459 238.501 125.262C239.226 125.12 239.964 125.043 240.702 125.043C240.847 125.043 242.008 125.043 242.153 125.043C242.564 125.043 242.976 125.087 243.363 125.174C244.681 125.437 245.842 126.127 246.64 127.102C246.7 127.058 247.184 126.73 247.245 126.697C247.644 126.423 248.127 126.281 248.623 126.281C248.623 126.281 248.684 126.281 248.696 126.281C249.204 126.292 249.712 126.39 250.183 126.565C250.836 126.806 251.49 127.08 252.13 127.365C252.917 127.716 253.666 128.11 254.38 128.548C254.864 128.833 255.311 129.161 255.722 129.523C256.23 129.972 256.702 130.465 257.125 130.98C257.561 131.527 257.984 132.075 258.371 132.655C258.395 132.688 258.576 132.94 258.601 132.973C258.734 133.159 258.843 133.367 258.927 133.586C259.399 134.813 259.725 136.084 259.907 137.376C259.907 137.431 259.943 137.661 260.004 138.077C260.124 139.304 260.197 139.994 260.209 140.125C260.258 140.574 260.282 141.024 260.294 141.473C260.318 142.447 260.294 143.411 260.245 144.386V144.561C260.149 145.175 260.088 145.514 260.076 145.58C259.967 146.27 259.81 146.938 259.592 147.606C259.375 148.253 259.242 148.921 259.181 149.589C259.133 150.268 259.145 150.805 259.133 150.936C259.133 151.615 259.169 152.283 259.242 152.962C259.568 153.718 260.004 154.43 260.56 155.076C260.548 155.065 260.487 155.055 260.391 155.022L260.632 155.208C260.669 155.241 260.693 155.252 260.693 155.263C261.249 155.723 261.733 156.248 262.156 156.818C262.168 156.84 262.265 156.96 262.422 157.179L263.233 158.209L264.031 159.48L264.357 161.035V161.123L264.321 162.875C264.297 163.006 264.285 163.094 264.285 163.105C264.152 164.124 263.982 165.131 263.765 166.139C263.704 166.49 263.668 166.829 263.668 167.18C263.668 167.727 263.741 168.264 263.886 168.79C263.898 168.834 263.91 168.877 263.934 168.91C263.958 168.943 264.103 169.184 264.115 169.217C264.623 170.038 264.998 170.904 265.264 171.813C265.422 172.306 265.518 172.81 265.53 173.313C265.53 173.642 265.494 173.96 265.397 174.277Z" fill="#FFC84B"/>
<path d="M243.907 165.318C243.302 165.591 242.963 165.745 242.891 165.767C242.504 165.942 242.153 166.194 241.875 166.5C241.585 166.807 241.379 167.158 241.258 167.541C240.883 168.724 240.702 169.951 240.702 171.177C240.702 171.243 240.702 171.813 240.702 171.889C240.242 172.262 239.88 172.711 239.601 173.204C239.577 173.248 239.444 173.478 239.226 173.872V159.852H230.785C231.366 158.976 231.704 158.494 231.765 158.395C231.91 158.176 232.031 157.957 232.14 157.716C232.708 156.5 232.998 155.186 232.998 153.861C232.962 153.631 232.635 151.856 232.599 151.637C233.143 152.229 233.748 152.765 234.328 153.422C236.263 155.591 238.15 157.705 240.871 158.023C240.871 158.045 240.871 158.154 240.871 158.176C241.294 159.918 241.948 161.615 242.806 163.236C242.951 163.51 243.314 164.211 243.907 165.318Z" fill="#FFC84B"/>
<path d="M252.118 162.919C251.816 163.291 251.453 163.609 251.03 163.861C249.99 164.496 248.817 164.923 247.583 165.131C246.797 165.252 245.999 165.318 245.201 165.318C245.116 165.318 244.681 165.318 243.907 165.318C243.242 164.069 242.867 163.368 242.794 163.225C241.935 161.615 241.294 159.918 240.871 158.165C240.871 158.154 240.871 158.034 240.871 158.023C241.101 158.056 241.343 158.067 241.585 158.067C244.282 158.067 245.866 156.895 247.728 154.967C248.744 153.926 249.349 153.094 250.304 151.955C250.111 152.513 249.966 153.083 249.857 153.663C249.857 153.674 249.857 153.729 249.857 153.74C249.772 154.244 249.736 154.748 249.772 155.263C249.821 155.92 250.014 156.566 250.329 157.168C250.752 157.957 251.211 158.713 251.719 159.458C252.312 160.301 252.699 161.013 252.808 161.188C252.88 161.363 252.965 161.55 253.05 161.725C252.868 161.966 252.203 162.798 252.118 162.919Z" fill="#FFB9A3"/>
<path d="M250.159 177.541C250.123 177.749 250.038 177.946 249.917 178.133C249.264 178.713 248.502 179.173 247.656 179.491C246.821 179.809 245.914 179.973 245.007 179.973C244.27 179.973 243.544 179.918 242.818 179.798C242.794 179.787 242.576 179.754 242.552 179.754C241.44 179.568 240.291 179.644 239.214 179.973C239.214 179.568 239.214 177.53 239.214 173.872C239.444 173.467 239.565 173.248 239.589 173.204C239.867 172.7 240.242 172.262 240.69 171.878C240.895 171.714 241.101 171.561 241.331 171.418C241.694 171.21 242.081 171.046 242.492 170.936C243.701 170.608 245.007 170.663 246.18 171.09C247.305 171.506 248.345 172.076 249.276 172.777C249.627 173.05 249.893 173.401 250.038 173.806C250.292 174.463 250.413 175.164 250.413 175.854C250.413 176.424 250.329 176.994 250.159 177.541Z" fill="#FFC2AF"/>
<path d="M286.852 156.194L286.694 156.259" stroke="black"/>
<path d="M331.998 181.747C331.998 182.382 331.804 183.018 331.441 183.565C327.91 183.565 310.277 183.565 278.543 183.565C278.543 183.544 278.543 183.533 278.543 183.533C278.519 182.711 278.471 181.802 278.41 180.893C278.942 179.885 279.595 178.943 280.357 178.067C280.369 178.056 280.454 177.957 280.599 177.793C280.998 177.333 281.216 177.081 281.252 177.026C281.675 176.544 281.893 175.953 281.893 175.351C282.28 175.351 285.328 175.351 285.715 175.351C286.561 175.351 287.396 175.394 288.23 175.482C289.597 175.635 290.927 176.019 292.124 176.632C292.451 176.796 292.765 176.972 293.068 177.18C293.092 177.202 293.298 177.333 293.322 177.355C294.084 177.859 294.713 178.494 295.208 179.217C295.329 179.217 296.369 179.184 296.502 179.184C297.168 179.162 297.881 179.14 298.075 179.14C298.437 179.14 304.17 178.965 304.17 178.965C304.569 178.954 306.54 178.899 310.084 178.801C312.43 178.768 313.724 178.746 313.99 178.735C314.837 178.724 315.683 178.757 316.53 178.834C316.578 178.834 316.772 178.856 317.11 178.888V177.355C319.42 177.355 320.702 177.355 320.968 177.355C322.456 177.355 323.955 177.475 325.419 177.727C325.467 177.727 325.878 177.804 325.927 177.804C327.075 178.012 328.212 178.253 329.349 178.538C329.458 178.571 330.413 178.801 330.522 178.834C331.066 178.976 331.574 179.217 331.998 179.557C331.998 179.995 331.998 181.528 331.998 181.747Z" fill="#FFB9A3"/>
<path d="M315.877 139.008C315.865 139.622 315.792 140.235 315.671 140.837C315.623 141.089 315.574 141.33 315.514 141.582C315.054 143.422 314.099 145.12 312.732 146.533C312.744 146.467 312.865 145.952 312.889 145.887C313.083 145.087 313.143 144.266 313.059 143.455C313.059 143.444 313.059 143.433 313.059 143.433C313.035 143.094 312.95 142.754 312.829 142.436V142.415C312.817 142.393 312.805 142.371 312.793 142.349C312.744 142.25 312.684 142.152 312.623 142.064C312.466 141.965 312.369 141.911 312.357 141.9C311.692 141.604 311.087 141.473 310.422 141.757C310.023 141.933 309.673 142.196 309.419 142.524C309.298 142.656 309.213 142.809 309.128 142.962C308.971 143.313 308.814 143.663 308.681 144.014C308.645 144.09 308.499 144.463 308.233 145.142C308.233 145.109 308.233 145.098 308.233 145.098C307.992 143.63 307.58 142.196 307.024 140.804C306.359 140.136 305.585 139.578 304.726 139.129C304.17 138.691 303.65 138.209 303.154 137.705C303.154 137.705 303.142 137.683 303.13 137.683C302.827 137.354 302.489 137.059 302.138 136.785C301.981 136.796 301.243 136.85 299.913 136.96C298.317 137.146 297.434 137.256 297.252 137.278C296.962 137.31 296.672 137.343 296.382 137.354C295.91 137.387 295.438 137.398 294.979 137.398C293.854 137.398 292.741 137.321 291.641 137.168C291.641 137.168 291.629 137.168 291.592 137.168C290.951 137.048 290.601 136.982 290.528 136.96C289.633 136.796 288.763 136.588 287.904 136.336C287.868 136.325 287.602 136.248 287.565 136.237C286.755 135.996 285.92 135.854 285.074 135.799C285.074 135.799 285.062 135.799 285.026 135.799C284.917 135.405 284.868 135.186 284.856 135.142C284.602 134.178 284.469 133.203 284.469 132.217C284.469 131.516 284.711 130.837 285.146 130.268C285.497 129.829 285.945 129.457 286.453 129.172C286.852 128.953 287.299 128.844 287.771 128.844C287.831 128.844 288.146 128.844 288.726 128.844C288.835 128.668 288.896 128.57 288.908 128.548C289.706 127.244 290.673 126.018 291.774 124.901C291.871 124.824 292.608 124.221 292.705 124.145C292.705 124.758 292.838 125.361 293.104 125.919C293.116 125.941 293.165 126.051 293.261 126.237C293.334 125.853 293.382 125.634 293.394 125.591C293.479 125.142 293.745 124.736 294.144 124.451C294.41 124.254 294.737 124.145 295.088 124.145C295.269 124.145 296.769 124.145 296.95 124.145C297.809 124.145 298.667 124.243 299.502 124.43C300.167 124.572 300.808 124.835 301.364 125.185C301.92 125.547 302.586 125.733 303.275 125.733C304.279 125.733 305.27 126.007 306.093 126.522C306.129 126.543 306.286 126.642 306.589 126.828C306.758 127.047 306.855 127.168 306.867 127.19C307.351 127.781 307.701 128.46 307.883 129.183C308.1 129.183 309.878 129.183 310.096 129.183C310.277 129.216 310.459 129.282 310.616 129.369C311.91 129.972 313.022 130.848 313.845 131.932C313.893 131.987 314.256 132.458 314.304 132.513C314.643 132.962 314.921 133.433 315.151 133.937C315.284 134.375 315.393 134.715 315.478 135.032C315.574 135.339 315.647 135.613 315.707 135.919C315.84 136.62 315.901 137.321 315.877 138.033C315.877 138.23 315.877 138.91 315.877 139.008Z" fill="#603052"/>
<path d="M308.85 157.99C308.85 160.476 308.584 162.952 308.052 165.383C307.846 166.281 307.29 167.07 306.48 167.607C305.645 168.154 304.642 168.45 303.614 168.45C302.44 168.45 301.292 168.154 300.288 167.607C299.671 167.278 299.151 166.829 298.752 166.303C298.728 166.281 298.595 166.106 298.583 166.084C298.196 165.58 297.857 165.044 297.567 164.485C297.119 163.631 296.805 162.733 296.635 161.802C296.478 160.958 296.103 160.17 295.523 159.501C299.066 158.045 304.158 155.58 305.379 153.839C306.347 152.459 307.242 150.651 307.895 149.906C307.931 149.874 308.282 149.6 308.33 149.567C308.681 151.155 308.85 152.765 308.85 154.375C308.85 155.098 308.85 157.628 308.85 157.99Z" fill="#F3B2A0"/>
<path d="M312.732 146.522C312.672 146.675 312.611 146.807 312.551 146.927C311.837 148.264 309.781 149.205 308.33 149.578C308.149 149.644 308.004 149.764 307.895 149.906C307.254 150.64 306.359 152.47 305.391 153.85C304.182 155.58 299.066 158.034 295.523 159.501C294.555 159.907 293.709 160.235 293.08 160.454C292.004 160.827 290.661 159.512 289.657 158.8C288.581 158.045 287.589 157.201 286.694 156.27C286.392 155.942 286.09 155.58 285.775 155.175C284.651 153.74 283.961 152.984 283.659 150.892C283.502 149.841 284.3 147.672 284.3 146.544C284.3 144.649 282.498 141.834 282.909 140.18C283.224 138.888 284.3 137.058 285.05 135.766C285.896 135.821 286.731 135.963 287.541 136.204C287.565 136.215 287.843 136.292 287.868 136.303C288.738 136.555 289.609 136.763 290.492 136.927C290.564 136.949 290.927 137.015 291.568 137.135C291.592 137.135 291.617 137.135 291.617 137.135C292.717 137.288 293.83 137.365 294.942 137.365C295.414 137.365 295.886 137.365 296.357 137.321C296.648 137.321 296.938 137.278 297.228 137.245C297.41 137.223 298.292 137.113 299.889 136.927C301.219 136.817 301.957 136.763 302.102 136.752C302.465 137.026 302.803 137.321 303.106 137.65L303.13 137.672C303.614 138.176 304.146 138.658 304.69 139.096C305.561 139.545 306.335 140.103 307 140.772C307.556 142.163 307.967 143.597 308.209 145.065C308.209 145.065 308.209 145.076 308.209 145.109C308.475 144.43 308.62 144.058 308.645 143.981C308.79 143.619 308.935 143.28 309.104 142.929C309.177 142.776 309.273 142.623 309.382 142.491C309.648 142.163 309.999 141.9 310.398 141.724C311.051 141.44 311.668 141.571 312.321 141.867C312.345 141.878 312.43 141.933 312.599 142.031C312.66 142.119 312.72 142.217 312.769 142.316C312.781 142.338 312.793 142.36 312.805 142.382V142.404C312.926 142.721 312.998 143.061 313.035 143.4C313.035 143.4 313.035 143.411 313.035 143.422C313.119 144.244 313.071 145.065 312.889 145.876C312.853 146.007 312.744 146.456 312.732 146.522Z" fill="#FFB9A3"/>
<path d="M331.998 179.568C331.562 179.239 331.066 178.998 330.522 178.856C330.413 178.834 329.458 178.593 329.349 178.56C328.212 178.275 327.075 178.034 325.927 177.837C325.878 177.826 325.467 177.76 325.419 177.749C323.955 177.497 322.456 177.377 320.968 177.388C320.702 177.388 319.42 177.388 317.11 177.388V178.91C316.772 178.878 316.578 178.856 316.53 178.856C315.683 178.779 314.837 178.746 313.99 178.768C313.724 178.768 312.43 178.79 310.084 178.823C306.54 178.932 304.569 178.987 304.17 178.998C304.17 178.998 298.437 179.162 298.075 179.162C297.881 179.162 297.168 179.184 296.502 179.206C296.369 179.206 295.329 179.239 295.208 179.25C294.713 178.516 294.084 177.881 293.322 177.377C293.298 177.355 293.092 177.224 293.068 177.202C292.766 177.005 292.451 176.818 292.125 176.654C291.484 176.325 290.818 176.063 290.117 175.865C289.391 175.033 288.726 174.146 288.146 173.226C288.121 173.193 288.001 173.007 287.795 172.678C287.42 172.021 287.227 171.648 287.178 171.583C286.707 170.739 286.271 170.104 286.174 169.94C285.195 168.505 284.348 166.993 283.647 165.438C283.635 165.427 283.611 165.35 283.598 165.339C283.381 164.638 283.199 163.927 283.066 163.215C282.933 162.579 282.861 161.933 282.861 161.276C282.861 160.564 282.994 159.841 283.26 159.162C283.538 158.483 283.937 157.858 284.457 157.3C284.675 157.201 286.477 156.38 286.694 156.281C287.589 157.212 288.581 158.067 289.657 158.811C290.649 159.545 292.004 160.849 293.08 160.476C293.709 160.246 294.555 159.918 295.523 159.523C296.103 160.191 296.49 160.98 296.648 161.813C296.817 162.744 297.131 163.653 297.567 164.507C297.857 165.066 298.196 165.591 298.583 166.106C298.607 166.128 298.74 166.292 298.752 166.314C299.151 166.851 299.683 167.3 300.288 167.629C301.292 168.176 302.453 168.461 303.626 168.461C304.654 168.472 305.645 168.176 306.48 167.629C307.29 167.092 307.859 166.292 308.052 165.405C308.584 162.963 308.862 160.498 308.862 158.012C308.862 157.65 308.862 154.759 308.862 154.397C308.862 152.787 308.681 151.177 308.33 149.589C309.781 149.227 311.837 148.285 312.551 146.938C312.611 146.818 312.672 146.686 312.732 146.533C314.825 146.653 316.905 146.938 318.948 147.398C319.868 147.595 320.763 147.858 321.633 148.176C321.863 148.264 323.738 148.954 323.967 149.03C324.983 149.403 325.987 149.797 326.991 150.224C327.886 150.618 328.394 150.827 328.49 150.87C329.99 151.506 331.357 152.371 332.53 153.422C332.88 153.751 333.134 154.036 333.134 154.156C333.231 154.452 333.388 154.715 333.594 154.956C334.67 156.413 335.396 158.056 335.735 159.775C335.831 160.432 335.989 161.09 336.218 161.725C336.388 162.207 336.509 162.711 336.557 163.226C336.908 165.471 337.089 167.738 337.077 170.006C337.077 170.893 337.077 177.947 337.077 178.823C337.125 179.151 337.186 179.469 337.295 179.776C337.561 180.74 337.887 181.682 338.286 182.602C338.323 182.667 338.492 182.985 338.794 183.565C334.38 183.565 331.937 183.565 331.441 183.565C331.804 183.018 331.998 182.394 331.998 181.758C331.998 181.32 331.998 179.787 331.998 179.568Z" fill="#454545"/>
</g>
<defs>
<clipPath id="clip0">
<rect width="1080" height="180" fill="white"/>
</clipPath>
</defs>
</svg>
