<svg width="1080" height="180" viewBox="0 0 1080 180" fill="none" xmlns="http://www.w3.org/2000/svg">
<g clip-path="url(#clip0)">
<path d="M833.176 179.469H821.53L820.877 183.565H790.788L790.195 179.217C777.557 179.206 770.531 179.195 769.128 179.195C768.342 173.96 768.487 169.885 768.971 167.979C771.885 159.95 775.308 158.121 782.625 157.026C788.115 156.226 793.654 155.799 799.205 155.734C797.633 157.256 796.968 159.775 798.697 164.135C800.414 168.483 805.228 172.525 809.412 172.525C813.597 172.525 816.547 168.746 816.995 164.135C816.995 164.069 816.995 164.003 816.995 163.937C818.023 164.408 819.111 164.726 820.248 164.89C822.631 165.208 824.832 162.984 827.069 160.75C827.323 160.487 827.589 160.213 827.879 159.929C831.229 162.393 833.164 166.095 833.176 170.005C833.176 171.265 833.176 174.42 833.176 179.469Z" fill="#3399FF"/>
<path d="M790.788 183.576C778.283 183.576 771.341 183.576 769.95 183.576C769.6 182.043 769.333 180.575 769.14 179.195C770.543 179.195 777.569 179.206 790.207 179.217L790.788 183.576Z" fill="#FFB9A3"/>
<path d="M833.176 183.576H820.877L821.53 179.469H833.176V183.576Z" fill="#FFB9A3"/>
<path d="M827.879 159.907C827.613 160.202 827.347 160.476 827.069 160.728C824.832 162.963 822.631 165.197 820.248 164.879C819.111 164.704 818.023 164.386 816.995 163.926C813.391 162.36 809.775 159.206 807.38 155.843C806.715 154.912 806.135 153.937 805.639 152.919C805.99 152.743 806.377 152.623 806.764 152.557C806.86 152.557 807.308 152.557 808.118 152.557C808.046 152.459 807.997 152.404 807.985 152.393C807.586 151.922 807.126 151.451 806.655 151.013C806.449 150.816 806.28 150.596 806.147 150.356C805.844 149.841 805.591 149.315 805.361 148.778C805.361 148.756 805.312 148.647 805.228 148.45L805.167 148.285C805.083 148.033 805.046 147.891 805.034 147.858C804.877 147.343 804.841 146.796 804.962 146.259C805.022 145.963 805.143 145.679 805.312 145.427C805.542 145.076 805.844 144.769 806.207 144.528C806.485 144.353 806.8 144.211 807.138 144.145C807.187 144.134 807.586 144.047 807.634 144.036C807.816 143.992 808.021 144.003 808.203 144.068C808.566 144.189 808.88 144.397 809.134 144.66C809.279 144.813 809.412 144.978 809.533 145.153C809.557 145.186 809.751 145.459 809.775 145.492C809.86 145.624 809.908 145.766 809.908 145.92C809.908 146.314 810.041 146.697 810.283 147.015C810.283 146.949 810.283 146.423 810.283 146.358C810.283 146.128 810.319 145.909 810.404 145.689C810.561 145.262 810.839 144.89 811.214 144.594C811.516 144.353 811.831 144.134 812.182 143.937C812.641 143.663 813.052 143.356 813.427 142.995C813.548 142.875 813.633 142.743 813.693 142.601C813.911 142.053 814.092 141.494 814.25 140.925C814.25 140.881 814.298 140.695 814.395 140.355L814.673 139.26L814.951 138.417C815.193 138.91 815.326 139.183 815.35 139.238C815.568 139.654 815.834 140.049 816.16 140.41C816.221 140.476 816.281 140.542 816.354 140.596C816.487 140.695 817.225 141.1 817.563 141.297C817.672 141.363 817.793 141.429 817.89 141.516C818.482 141.944 819.135 142.305 819.837 142.557H819.861C820.357 142.787 820.841 143.05 821.288 143.356C821.578 143.543 821.881 143.707 822.183 143.849C822.582 143.937 822.969 143.992 823.368 144.025C823.513 144.025 823.876 143.981 823.876 143.981C823.828 143.959 823.393 143.773 823.332 143.751C822.8 143.521 822.389 143.105 822.183 142.601C822.183 142.404 822.183 140.87 822.183 140.673C822.788 140.892 823.368 141.166 823.913 141.494C823.937 141.505 824.13 141.626 824.154 141.637C824.626 141.889 825.074 142.174 825.497 142.502C825.606 142.601 825.727 142.688 825.872 142.765C825.932 142.798 825.993 142.831 826.053 142.864C826.428 143.116 826.742 143.433 826.984 143.806C827.166 144.079 827.371 144.342 827.589 144.594C827.71 144.704 827.819 144.824 827.916 144.956C827.94 144.999 828.097 145.197 828.363 145.547C828.363 144.233 828.363 143.51 828.363 143.356C828.363 142.809 828.218 142.272 827.928 141.779C827.928 141.779 827.916 141.757 827.903 141.724L829.379 142.688C829.415 142.71 829.427 142.721 829.427 142.732C830.141 143.258 830.782 143.849 831.362 144.496C831.834 145.021 832.209 145.591 832.511 146.215C832.511 146.226 832.56 146.314 832.572 146.325C832.354 147.343 831.955 148.406 831.846 149.567C831.749 151.122 832.076 151.768 831.749 153.488C831.35 155.679 829.597 158.056 827.879 159.907Z" fill="#FFBFAA"/>
<path d="M835.063 141.418C835.063 142.316 834.978 143.203 834.785 144.079C834.785 144.09 834.748 144.233 834.748 144.255C834.495 145.043 834.192 145.821 833.829 146.566C833.829 146.577 833.805 146.621 833.769 146.697L832.898 147.869C832.898 147.771 832.898 147.716 832.898 147.705C832.898 147.256 832.801 146.818 832.62 146.401C832.584 146.325 832.572 146.292 832.56 146.281C832.269 145.668 831.882 145.087 831.423 144.561C830.842 143.915 830.189 143.324 829.488 142.798C829.476 142.798 829.464 142.787 829.427 142.765L827.952 141.801C827.976 141.834 827.988 141.845 827.988 141.856C828.266 142.338 828.411 142.875 828.411 143.433C828.411 143.576 828.411 144.309 828.411 145.624C828.145 145.262 827.988 145.065 827.964 145.021C827.867 144.901 827.758 144.78 827.649 144.66C827.42 144.408 827.214 144.145 827.033 143.871C826.791 143.51 826.476 143.192 826.101 142.94C826.041 142.896 825.981 142.864 825.92 142.831C825.787 142.765 825.654 142.666 825.545 142.568C825.134 142.25 824.686 141.954 824.215 141.703C824.191 141.692 823.997 141.571 823.973 141.56C823.417 141.243 822.848 140.969 822.244 140.739C822.244 140.936 822.244 142.469 822.244 142.666C822.437 143.17 822.848 143.586 823.392 143.817C823.441 143.838 823.876 144.025 823.937 144.047C823.937 144.047 823.562 144.09 823.429 144.09C823.03 144.057 822.631 144.003 822.244 143.926C821.929 143.773 821.627 143.608 821.349 143.422C820.889 143.126 820.417 142.853 819.909 142.623C819.909 142.623 819.897 142.623 819.885 142.623C819.184 142.371 818.531 142.02 817.95 141.582C817.841 141.505 817.733 141.429 817.612 141.363C817.273 141.177 816.535 140.761 816.402 140.662C816.33 140.607 816.269 140.552 816.209 140.487C815.882 140.125 815.616 139.731 815.398 139.304C815.374 139.249 815.241 138.975 814.999 138.493L814.721 139.326L814.443 140.421C814.358 140.761 814.31 140.958 814.298 140.991C814.153 141.56 813.959 142.119 813.742 142.666C813.693 142.82 813.597 142.951 813.476 143.061C813.113 143.422 812.689 143.74 812.23 144.003C811.891 144.2 811.565 144.419 811.262 144.66C810.888 144.956 810.609 145.339 810.452 145.755C810.367 145.974 810.331 146.204 810.331 146.423C810.331 146.489 810.331 147.026 810.331 147.091C810.089 146.763 809.968 146.38 809.956 145.996C809.956 145.843 809.908 145.689 809.823 145.558C809.799 145.525 809.569 145.186 809.545 145.142C809.424 144.967 809.279 144.802 809.134 144.649C808.892 144.386 808.566 144.178 808.203 144.057C808.021 143.992 807.828 143.981 807.634 144.025C807.586 144.036 807.187 144.123 807.138 144.134C806.8 144.2 806.485 144.342 806.207 144.518C805.844 144.758 805.542 145.065 805.312 145.416C805.143 145.668 805.022 145.952 804.962 146.248C804.853 146.785 804.877 147.332 805.034 147.847C805.046 147.88 805.095 148.023 805.167 148.274L805.228 148.439C805.312 148.636 805.361 148.745 805.373 148.767C805.59 149.304 805.857 149.83 806.147 150.345C806.28 150.586 806.461 150.805 806.667 151.002C807.126 151.44 807.574 151.911 807.985 152.382C807.997 152.393 808.046 152.448 808.13 152.546C807.308 152.546 806.86 152.546 806.776 152.546C806.377 152.612 806.002 152.732 805.651 152.908C805.566 152.951 805.482 152.995 805.397 153.039C805.385 153.05 805.324 153.083 805.216 153.149C805.034 152.951 804.925 152.842 804.901 152.82C804.526 152.437 804.188 152.02 803.897 151.582C803.619 151.166 803.305 150.695 803.244 150.575C803.172 150.465 803.051 150.169 802.894 149.808C802.507 148.899 802.204 147.979 801.962 147.037C801.926 146.916 801.902 146.796 801.89 146.675C801.878 146.577 801.853 146.478 801.829 146.38C801.587 145.295 801.454 144.189 801.454 143.094C801.454 143.083 801.454 143.061 801.454 143.006C801.515 142.655 801.539 142.469 801.551 142.425C801.733 141.33 801.999 140.235 802.337 139.161C802.446 138.822 802.591 138.493 802.785 138.176C803.208 137.453 803.728 136.774 804.321 136.149C804.466 135.996 804.635 135.865 804.841 135.777C804.937 135.733 805.724 135.394 805.832 135.35C806.086 134.66 806.449 134.003 806.921 133.411C806.921 133.4 806.957 133.367 807.005 133.302C807.586 132.863 807.912 132.622 807.985 132.579C808.469 132.206 808.989 131.878 809.545 131.604C809.557 131.593 809.63 131.549 809.642 131.549C810.501 131.111 811.383 130.717 812.29 130.377C812.702 130.213 813.149 130.114 813.584 130.059C813.705 130.048 814.637 129.95 814.758 129.939C815.81 129.818 816.874 129.764 817.938 129.764C818.12 129.764 819.655 129.764 819.849 129.764C821.264 129.764 822.679 129.873 824.07 130.103C824.215 130.125 824.36 130.158 824.505 130.191C824.541 130.191 824.868 130.268 824.904 130.278C826.198 130.574 827.444 131.012 828.605 131.604C828.702 131.67 829.173 131.987 830.032 132.568C830.334 132.754 830.504 132.852 830.528 132.874C831.399 133.422 832.148 134.09 832.765 134.868C832.85 134.988 833.551 135.996 833.648 136.127C834.132 136.763 834.519 137.464 834.797 138.198C834.978 138.701 835.063 139.227 835.063 139.764C835.063 140.092 835.063 141.253 835.063 141.418Z" fill="#7F694F"/>
<path d="M817.007 164.113C816.56 168.735 813.621 172.514 809.436 172.514C805.24 172.514 800.451 168.472 798.709 164.113C796.968 159.753 797.645 157.245 799.229 155.723C800.293 155.701 802.591 155.723 803.656 155.723C803.764 155.547 804.296 154.693 805.24 153.16C805.349 153.105 805.409 153.061 805.421 153.061C805.506 153.006 805.591 152.962 805.675 152.93C806.159 153.948 806.739 154.923 807.417 155.843C809.787 159.206 813.403 162.36 817.007 163.926C817.007 163.992 817.007 164.047 817.007 164.113Z" fill="#FFB9A3"/>
<path d="M792.686 177.048C789.578 177.048 789.578 181.43 792.686 181.43C795.807 181.43 795.807 177.048 792.686 177.048Z" fill="#3399FF"/>
<path d="M792.686 177.048C789.578 177.048 789.578 181.43 792.686 181.43C795.807 181.43 795.807 177.048 792.686 177.048Z" fill="#3399FF"/>
<path d="M792.662 177.048C789.542 177.048 789.542 181.43 792.662 181.43C795.77 181.43 795.782 177.048 792.662 177.048Z" fill="#3399FF"/>
<path d="M792.638 177.048C789.53 177.048 789.518 181.43 792.638 181.43C795.758 181.43 795.758 177.048 792.638 177.048Z" fill="#3399FF"/>
<path d="M792.614 177.048C789.494 177.048 789.494 181.43 792.614 181.43C795.722 181.43 795.722 177.048 792.614 177.048Z" fill="#3399FF"/>
<path d="M792.348 176.03C789.24 176.03 789.228 180.411 792.348 180.411C795.468 180.411 795.468 176.03 792.348 176.03Z" fill="#3399FF"/>
<path d="M792.348 176.03C789.24 176.03 789.228 180.411 792.348 180.411C795.468 180.411 795.468 176.03 792.348 176.03Z" fill="#3399FF"/>
<path d="M792.324 176.03C789.203 176.03 789.203 180.411 792.324 180.411C795.432 180.411 795.444 176.03 792.324 176.03Z" fill="#3399FF"/>
<path d="M792.299 176.03C789.179 176.03 789.179 180.411 792.299 180.411C795.408 180.411 795.42 176.03 792.299 176.03Z" fill="#3399FF"/>
<path d="M834.035 183.576C837.687 183.576 839.731 183.576 840.13 183.576C839.646 182.109 839.284 180.619 839.078 179.096C838.921 177.968 838.824 176.84 838.776 175.701C838.764 175.383 838.667 172.82 838.655 172.503C838.594 171.21 838.594 170.17 838.594 169.918C838.594 169.162 838.594 168.406 838.643 167.65C838.691 166.424 838.788 165.197 838.933 163.981C838.945 163.894 838.993 163.466 839.09 162.7C839.259 161.67 839.344 161.09 839.368 160.98C839.489 160.235 839.719 159.523 840.058 158.844C840.445 158.034 841.074 157.333 841.86 156.807C842.948 156.073 844.218 155.569 845.548 155.35C847.689 154.978 849.418 154.846 849.841 154.792C851.426 154.649 853.01 154.572 854.594 154.572C854.969 154.572 857.981 154.572 858.356 154.572C858.755 154.572 859.154 154.649 859.517 154.792C859.444 154.715 859.045 154.331 858.343 153.62C857.424 152.699 856.904 152.185 856.808 152.086C855.864 151.078 855.006 150.016 854.232 148.899C854.183 148.822 854.135 148.756 854.099 148.669C854.062 148.581 853.857 148.121 853.482 147.289C853.264 146.807 853.155 146.533 853.131 146.478C852.829 145.788 852.611 145.076 852.466 144.342C852.357 143.816 852.309 143.269 852.309 142.732C852.309 141.867 852.369 141.012 852.478 140.147C852.551 139.621 852.671 139.107 852.853 138.603C853.167 137.716 853.578 136.861 854.062 136.04C854.365 135.525 854.703 135.021 855.066 134.528C855.126 134.452 855.441 134.024 856.009 133.258L857.666 131.582C858.996 130.487 859.734 129.873 859.891 129.753C861.052 128.811 862.346 128 863.737 127.354C863.882 127.277 864.04 127.233 864.197 127.201C864.233 127.19 864.523 127.102 864.56 127.091C866.555 126.467 868.623 126.094 870.727 125.963C870.776 125.974 871.235 126.007 871.296 126.007C872.795 126.105 874.283 126.401 875.698 126.894C875.855 126.949 877.101 127.463 877.258 127.529C878.371 127.978 879.229 128.427 879.447 128.526C880.148 128.887 880.826 129.293 881.455 129.753C882.603 130.574 883.595 131.56 884.381 132.677C885.433 134.057 886.268 135.569 886.873 137.157V137.19C887.356 138.975 887.61 140.804 887.61 142.634C887.61 142.743 887.586 142.853 887.55 142.962C887.514 143.083 887.187 144.003 887.151 144.123C886.897 144.857 886.594 145.58 886.244 146.292C886.22 146.336 886.05 146.664 886.038 146.708C885.724 147.332 885.373 147.946 884.986 148.537C884.95 148.592 884.684 148.997 884.647 149.041C884.272 149.622 883.861 150.169 883.414 150.706C883.402 150.728 883.232 150.914 883.22 150.947C882.809 151.429 882.386 151.9 881.938 152.338C881.817 152.458 881.757 152.513 881.745 152.535C881.031 153.236 880.233 153.86 879.362 154.397C878.879 154.693 878.407 155.011 877.947 155.339C877.911 155.361 877.742 155.482 877.439 155.701C878.54 155.701 879.157 155.701 879.278 155.701C880.209 155.525 881.152 155.438 882.108 155.438C882.724 155.438 883.329 155.471 883.946 155.547C884.768 155.646 885.554 155.942 886.22 156.413C886.715 156.763 887.187 157.135 887.634 157.541C888.408 158.242 888.989 159.096 889.34 160.038C889.352 160.071 889.449 160.334 889.461 160.367C889.884 161.725 890.223 163.105 890.477 164.496C890.501 164.638 890.525 164.781 890.573 164.923C890.67 165.087 890.718 167.431 890.718 167.431C890.718 167.596 890.731 168.428 890.755 169.918L890.948 172.536C891.142 174.124 891.251 175 891.275 175.175C891.275 175.175 891.48 177.388 891.565 178.067L891.867 180.488C891.879 180.564 891.94 181.178 891.952 181.254C892.037 182.032 892.085 182.81 892.085 183.587C892.52 183.587 894.746 183.587 898.737 183.587" stroke="white"/>
<path d="M840.021 172.229C836.913 172.229 836.901 176.61 840.021 176.61C843.142 176.61 843.142 172.229 840.021 172.229Z" fill="#013220"/>
<path d="M837.458 165.471C834.337 165.471 834.337 169.852 837.458 169.852C840.566 169.852 840.578 165.471 837.458 165.471Z" fill="#013220"/>
<path d="M838.437 157.88C835.329 157.88 835.329 162.262 838.437 162.262C841.557 162.262 841.557 157.88 838.437 157.88Z" fill="#013220"/>
<path d="M844.726 154.091C841.606 154.091 841.606 158.472 844.726 158.472C847.834 158.472 847.846 154.091 844.726 154.091Z" fill="#013220"/>
<path d="M852.49 152.754C849.37 152.754 849.37 157.135 852.49 157.135C855.598 157.135 855.61 152.754 852.49 152.754Z" fill="#013220"/>
<path d="M858.126 149.567C855.006 149.567 855.006 153.948 858.126 153.948C861.234 153.948 861.246 149.567 858.126 149.567Z" fill="#013220"/>
<path d="M853.965 143.893C850.845 143.893 850.857 148.274 853.965 148.274C857.086 148.274 857.086 143.893 853.965 143.893Z" fill="#013220"/>
<path d="M852.829 136.894C849.708 136.894 849.708 141.275 852.829 141.275C855.937 141.275 855.949 136.894 852.829 136.894Z" fill="#013220"/>
<path d="M856.747 130.059C853.627 130.059 853.627 134.441 856.747 134.441C859.855 134.441 859.867 130.059 856.747 130.059Z" fill="#013220"/>
<path d="M864.173 125.229C861.052 125.229 861.052 129.61 864.173 129.61C867.281 129.61 867.293 125.229 864.173 125.229Z" fill="#013220"/>
<path d="M873.195 123.608C870.086 123.608 870.074 127.989 873.195 127.989C876.315 127.989 876.315 123.608 873.195 123.608Z" fill="#013220"/>
<path d="M881.152 126.467C878.032 126.467 878.032 130.848 881.152 130.848C884.26 130.848 884.26 126.467 881.152 126.467Z" fill="#013220"/>
<path d="M886.873 131.823C883.752 131.823 883.765 136.204 886.873 136.204C889.993 136.204 889.993 131.823 886.873 131.823Z" fill="#013220"/>
<path d="M887.489 140.038C884.369 140.038 884.381 144.419 887.489 144.419C890.61 144.419 890.61 140.038 887.489 140.038Z" fill="#013220"/>
<path d="M884.176 146.894C881.056 146.894 881.056 151.276 884.176 151.276C887.284 151.276 887.296 146.894 884.176 146.894Z" fill="#013220"/>
<path d="M877.814 151.856C874.694 151.856 874.706 156.237 877.814 156.237C880.935 156.237 880.935 151.856 877.814 151.856Z" fill="#013220"/>
<path d="M884.526 153.543C881.406 153.543 881.406 157.924 884.526 157.924C887.634 157.924 887.647 153.543 884.526 153.543Z" fill="#013220"/>
<path d="M888.844 159.447C885.724 159.447 885.736 163.828 888.844 163.828C891.964 163.828 891.964 159.447 888.844 159.447Z" fill="#013220"/>
<path d="M891.807 166.205C888.687 166.205 888.687 170.586 891.807 170.586C894.915 170.586 894.927 166.205 891.807 166.205Z" fill="#013220"/>
<path d="M890.21 173.127C887.09 173.127 887.09 177.508 890.21 177.508C893.319 177.508 893.319 173.127 890.21 173.127Z" fill="#013220"/>
<path d="M840.807 179.053C837.687 179.053 837.699 183.434 840.807 183.434C843.928 183.434 843.928 179.053 840.807 179.053Z" fill="#013220"/>
<path d="M955.214 159.852C955.214 174.08 955.214 181.988 955.214 183.576C924.823 183.576 907.94 183.576 904.566 183.576C904.566 169.337 904.566 161.429 904.566 159.852C934.957 159.852 951.84 159.852 955.214 159.852Z" fill="#D9D9D9"/>
<path d="M911.459 150.213C905.134 150.246 899.631 146.325 898.168 140.761C898.18 140.761 898.337 140.761 898.35 140.761C898.604 140.761 898.857 140.826 899.075 140.936C899.341 141.078 899.595 141.232 899.837 141.407C899.849 141.429 899.946 141.527 899.958 141.549C900.514 142.206 900.938 142.962 901.204 143.762C901.204 143.751 901.204 143.608 901.204 143.587C901.204 142.71 901.494 141.845 902.05 141.122C902.365 140.706 902.812 140.399 903.344 140.246C906.005 139.468 908.52 138.34 910.806 136.894C912.814 135.635 914.422 133.926 915.498 131.943C915.523 131.9 915.752 131.472 915.777 131.418C919.405 133.247 922.09 137.409 922.597 142.371C922.597 142.371 922.634 142.349 922.682 142.305L922.9 142.141L923.456 141.856C923.613 141.779 923.71 141.725 923.722 141.725C923.892 141.637 924.061 141.582 924.254 141.538C922.295 146.347 917.204 150.213 911.459 150.213Z" fill="#2A0000"/>
<path d="M904.566 165.318V183.576H898.737C898.737 183.138 898.737 182.897 898.737 182.843C898.737 181.583 898.664 180.323 898.507 179.064C898.483 178.943 898.374 177.979 898.35 177.859C898.229 176.873 898.071 175.876 897.878 174.902L896.923 169.973C896.39 167.826 896.1 166.632 896.04 166.391C895.641 164.759 895.145 163.149 894.564 161.572C894.552 161.561 894.516 161.462 894.516 161.451C893.899 159.808 893.391 158.132 892.968 156.435C892.847 155.985 892.823 155.504 892.907 155.043C893.028 154.189 893.439 153.39 894.068 152.743C894.407 152.404 894.806 152.119 895.254 151.9C895.858 151.604 896.487 151.341 897.14 151.111C897.237 151.21 898.059 152.009 898.168 152.108C899.148 153.411 900.018 154.77 900.78 156.183C900.792 156.194 900.829 156.27 900.841 156.281C901.385 157.322 901.663 158.461 901.663 159.611C901.663 159.699 901.663 160.367 901.663 160.443C901.663 161.626 901.99 162.787 902.594 163.839C902.848 164.036 903.514 164.529 904.566 165.318Z" fill="#FFB9A3"/>
<path d="M925.923 143.652C925.911 143.674 925.875 143.838 925.79 144.112C925.694 144.408 925.645 144.572 925.633 144.605C925.536 144.89 925.415 145.175 925.282 145.449C925.27 145.47 925.198 145.646 925.186 145.668C925.101 145.843 925.004 146.007 924.907 146.182C924.883 146.215 924.799 146.369 924.617 146.653C924.448 146.916 924.363 147.059 924.339 147.092C924.194 147.3 924.037 147.497 923.867 147.694C923.674 147.913 923.456 148.11 923.226 148.285C923.13 148.351 923.045 148.417 922.948 148.472C922.924 148.483 922.718 148.614 922.694 148.636C922.549 148.724 922.392 148.811 922.235 148.899C922.211 148.921 921.969 149.052 921.944 149.063C921.703 149.841 921.678 150.52 921.497 151.199C921.412 151.495 921.303 151.769 921.146 152.042C920.203 153.652 918.727 154.726 917.204 155.723C915.438 156.873 913.527 157.848 911.532 157.848C909.548 157.848 907.795 156.862 906.053 155.723C904.493 154.715 902.945 153.652 901.99 152.042C901.651 151.462 901.421 150.848 901.288 150.213C901.131 149.534 901.034 148.822 900.841 148.023C900.817 148.012 900.611 147.946 900.587 147.935C900.442 147.891 900.309 147.836 900.176 147.771C899.934 147.65 899.716 147.508 899.498 147.354C899.486 147.343 899.402 147.278 899.269 147.168C898.954 146.949 898.785 146.829 898.749 146.807C898.398 146.566 898.083 146.281 897.805 145.963C897.648 145.777 897.515 145.58 897.406 145.383C897.358 145.306 896.995 144.704 896.959 144.627C896.898 144.528 896.862 144.43 896.838 144.331C896.693 143.806 896.632 143.258 896.632 142.721C896.632 142.393 896.705 142.064 896.874 141.768C897.031 141.462 897.273 141.199 897.576 140.991C897.745 140.87 897.963 140.783 898.18 140.761C898.192 140.761 898.35 140.761 898.362 140.761C898.616 140.761 898.87 140.815 899.087 140.936C899.353 141.067 899.607 141.232 899.849 141.407C899.861 141.418 899.958 141.527 899.97 141.538C900.526 142.206 900.95 142.951 901.216 143.762C901.216 143.74 901.216 143.597 901.216 143.576C901.216 142.699 901.506 141.845 902.062 141.111C902.377 140.706 902.824 140.399 903.356 140.246C906.017 139.468 908.532 138.329 910.818 136.883C912.826 135.624 914.434 133.926 915.511 131.943C915.595 132.151 916.236 133.805 916.321 134.014C916.551 134.616 916.829 135.196 917.143 135.766C917.784 136.927 918.631 137.99 919.647 138.91C920.747 139.895 921.533 141.133 921.932 142.491C921.944 142.546 922.053 143.061 922.065 143.126C922.223 143.893 922.307 144.671 922.307 145.449C922.319 145.405 922.452 145.065 922.464 145.021C922.561 144.759 922.61 144.485 922.61 144.211C922.61 143.63 922.779 143.061 923.093 142.557C923.093 142.557 923.093 142.546 923.093 142.535C923.456 142.042 923.662 141.768 923.698 141.714C923.867 141.637 924.037 141.571 924.23 141.538C924.242 141.538 924.315 141.538 924.327 141.538C924.399 141.527 924.472 141.527 924.545 141.538C924.702 141.538 924.871 141.56 925.016 141.615C925.173 141.659 925.319 141.735 925.427 141.845C925.609 142.009 925.754 142.217 925.863 142.426C925.947 142.612 925.996 142.809 926.008 143.006C926.008 143.225 925.984 143.433 925.923 143.652Z" fill="#FFB9A3"/>
<path d="M924.351 141.527C924.339 141.527 924.266 141.527 924.254 141.527C924.061 141.56 923.892 141.626 923.722 141.703C923.686 141.757 923.48 142.031 923.118 142.524C923.118 142.535 923.118 142.546 923.118 142.546C922.803 143.05 922.634 143.619 922.634 144.2C922.634 144.474 922.585 144.748 922.489 145.01C922.477 145.054 922.344 145.394 922.331 145.438C922.331 144.66 922.247 143.882 922.09 143.116C922.077 143.05 921.969 142.535 921.957 142.48C921.557 141.122 920.771 139.884 919.671 138.899C918.655 137.979 917.808 136.916 917.167 135.755C916.853 135.185 916.575 134.605 916.345 134.003C916.26 133.794 915.619 132.141 915.535 131.932C914.458 133.915 912.85 135.613 910.842 136.872C908.557 138.318 906.041 139.457 903.381 140.235C902.848 140.388 902.401 140.695 902.087 141.1C901.53 141.834 901.24 142.688 901.24 143.565C901.24 143.587 901.24 143.729 901.24 143.751C900.974 142.94 900.551 142.195 899.994 141.527C899.982 141.516 899.885 141.407 899.873 141.396C899.631 141.221 899.378 141.056 899.111 140.925C898.894 140.804 898.64 140.75 898.386 140.75C898.374 140.75 898.229 140.75 898.204 140.75C897.987 139.862 897.866 138.953 897.866 138.055C897.866 135.021 898.337 132.721 900.405 130.596C901.905 129.096 903.743 127.913 905.799 127.102C905.799 124.309 909.246 122.359 912.415 122.359C915.583 122.359 918.994 124.21 918.994 127.003C918.994 127.102 918.994 127.19 918.994 127.288C920.034 127.715 920.989 128.296 921.811 129.008C924.242 131.22 925.331 133.586 925.331 136.938C925.319 138.515 924.992 140.071 924.351 141.527Z" fill="#5F2B00"/>
<path d="M926.395 152.678C926.322 152.809 926.274 152.886 926.274 152.908C925.863 153.663 925.464 154.441 925.125 155.23C924.617 156.369 924.351 157.574 924.351 158.8C924.351 158.866 924.351 159.217 924.351 159.852H904.566V165.329C903.381 164.43 902.727 163.927 902.594 163.828C901.99 162.776 901.663 161.615 901.663 160.432C901.663 160.356 901.663 159.688 901.663 159.6C901.663 158.45 901.385 157.311 900.841 156.27C900.829 156.259 900.792 156.183 900.78 156.172C900.018 154.759 899.148 153.39 898.168 152.086C898.059 151.977 897.237 151.177 897.14 151.079C897.793 150.848 898.471 150.651 899.148 150.487C899.184 150.476 899.462 150.41 899.498 150.41C900.079 150.268 900.684 150.202 901.288 150.202C901.421 150.838 901.651 151.451 901.99 152.02C902.945 153.642 904.493 154.704 906.053 155.712C907.795 156.84 909.573 157.826 911.532 157.826C913.491 157.826 915.438 156.862 917.204 155.712C918.752 154.704 920.203 153.631 921.146 152.02C921.303 151.758 921.412 151.473 921.497 151.188C921.678 151.243 922.646 151.549 924.363 152.075L926.02 152.546L926.395 152.678Z" fill="#FF1F4B"/>
<path d="M932.732 159.852H924.351C924.351 159.217 924.351 158.866 924.351 158.8C924.351 157.574 924.617 156.369 925.125 155.23C925.476 154.441 925.863 153.663 926.274 152.908C926.274 152.886 926.322 152.809 926.395 152.678C927.048 152.864 927.411 152.962 927.483 152.984C928.136 153.171 928.79 153.401 929.418 153.663C930.023 153.915 930.579 154.244 931.075 154.638C931.16 154.704 931.801 155.208 931.885 155.273C932.43 155.985 932.72 156.829 932.732 157.683C932.732 157.979 932.732 158.702 932.732 159.852Z" fill="#FFB9A3"/>
<path d="M994.543 183.576H981.845C981.845 181.09 981.845 179.71 981.845 179.436C981.845 178.056 981.748 176.676 981.555 175.296C981.542 175.175 981.518 175.055 981.494 174.934C981.422 174.617 981.373 174.441 981.361 174.409C981.361 174.387 981.361 174.365 981.361 174.354C981.361 174.321 981.361 174.299 981.361 174.277C981.446 173.96 981.494 173.631 981.494 173.313C981.494 172.82 981.422 172.327 981.288 171.846C981.022 170.936 980.635 170.071 980.14 169.25C980.115 169.217 979.97 168.976 979.958 168.943C979.934 168.91 979.91 168.866 979.91 168.823C979.765 168.297 979.692 167.76 979.692 167.212C979.692 166.862 979.716 166.522 979.777 166.172C979.994 165.164 980.188 164.156 980.309 163.138C980.309 163.127 980.321 163.039 980.333 162.908L980.381 161.155V161.068L980.055 159.512L979.245 158.242L978.446 157.212C978.277 156.993 978.192 156.873 978.168 156.851C977.757 156.281 977.273 155.755 976.717 155.295C976.705 155.284 976.669 155.23 976.584 155.131C976.572 155.109 976.56 155.098 976.56 155.098C977.842 155.504 979.1 156.007 980.297 156.588C981.482 157.179 982.595 157.869 983.647 158.647C984.735 159.458 985.703 160.411 986.525 161.462C988.23 163.653 989.742 165.964 991.072 168.362C991.955 169.973 992.657 171.67 993.14 173.412C993.177 173.532 993.467 174.551 993.503 174.682C993.636 175.153 993.745 175.635 993.842 176.117C994.084 177.421 994.241 179.184 994.374 180.915C994.471 181.813 994.519 182.711 994.543 183.533C994.543 183.533 994.543 183.554 994.543 183.576Z" fill="#FFC2AF"/>
<path d="M969.811 146.916C969.63 147.453 969.376 147.968 969.037 148.45C968.578 149.085 968.07 149.698 967.502 150.268C967.417 150.366 966.655 151.144 966.558 151.243C966.462 151.473 966.377 151.703 966.292 151.933C965.325 153.083 964.72 153.915 963.716 154.956C961.854 156.873 960.27 158.056 957.573 158.056C957.331 158.056 957.089 158.034 956.847 158.012C954.126 157.683 952.251 155.569 950.316 153.4C949.724 152.754 949.107 152.207 948.575 151.615C947.91 150.925 947.426 150.125 947.124 149.26C946.579 147.661 946.942 146.708 946.942 144.879C946.942 143.181 945.213 141.845 945.14 140.279C945.14 140.202 945.14 140.125 945.14 140.06C945.14 140.06 945.152 140.071 945.164 140.081L945.576 139.282C945.709 139.019 945.781 138.866 945.793 138.844C945.987 138.471 946.229 138.121 946.531 137.814C947.063 137.267 947.692 136.796 948.393 136.434C949.506 136.062 950.691 135.875 951.889 135.875C951.889 135.875 951.937 135.875 952.022 135.875L953.473 135.897C954.198 135.897 954.598 135.897 954.682 135.897C956.545 135.897 958.395 135.7 960.209 135.306C961.515 135.58 962.725 136.138 963.74 136.938C963.849 137.026 963.958 137.113 964.067 137.212C964.103 137.245 964.43 137.54 964.466 137.573C965.325 138.329 966.087 139.183 966.74 140.103C966.74 140.125 966.8 140.333 966.812 140.355C967.078 141.21 967.211 142.097 967.211 142.984C967.526 143.63 968.094 144.145 968.796 144.452C969.098 144.572 969.4 144.693 969.715 144.813C969.908 144.89 970.053 145.054 970.065 145.251C970.065 145.821 969.981 146.38 969.811 146.916Z" fill="#FFC2AF"/>
<path d="M981.845 183.576H955.275C955.239 181.408 955.226 180.214 955.214 179.973C956.291 179.644 957.44 179.567 958.552 179.754C958.576 179.754 958.794 179.787 958.818 179.797C959.544 179.918 960.27 179.973 961.007 179.973C961.914 179.973 962.821 179.808 963.656 179.491C964.502 179.173 965.264 178.713 965.917 178.133C966.038 177.946 966.123 177.749 966.159 177.541C966.534 176.314 966.486 175.011 966.038 173.806C965.893 173.401 965.627 173.05 965.276 172.777C964.345 172.076 963.305 171.506 962.18 171.09C961.007 170.663 959.701 170.608 958.492 170.936C958.081 171.046 957.694 171.21 957.331 171.418C957.101 171.561 956.895 171.714 956.69 171.878C956.69 171.813 956.69 171.243 956.69 171.177C956.69 169.951 956.883 168.724 957.258 167.541C957.379 167.158 957.585 166.796 957.863 166.5C958.153 166.194 958.492 165.942 958.891 165.767C958.963 165.734 959.29 165.591 959.907 165.317C960.681 165.317 961.116 165.317 961.201 165.317C961.999 165.317 962.797 165.252 963.583 165.12C964.817 164.923 965.99 164.496 967.03 163.861C967.453 163.609 967.816 163.28 968.118 162.908C968.203 162.787 968.965 161.845 969.05 161.725C969.412 162.448 969.691 163.204 969.884 163.981C970.017 164.474 970.078 164.967 970.09 165.471C970.114 165.953 970.114 166.446 970.09 166.928C970.066 166.993 970.041 167.048 970.005 167.114C969.412 168.111 968.517 168.932 967.417 169.48C967.417 169.48 967.405 169.48 967.381 169.502L966.57 169.94C967.006 170.476 967.248 170.772 967.296 170.827C967.635 171.243 968.01 171.637 968.397 172.01C968.856 172.448 969.183 172.985 969.352 173.576C969.364 173.587 969.509 173.708 969.533 173.729C970.186 174.288 970.96 174.704 971.807 174.967C972.617 174.792 973.464 174.792 974.274 174.967C974.371 175.022 975.121 175.471 975.217 175.537C975.689 175.821 976.088 176.205 976.378 176.654C976.886 177.103 977.576 177.344 978.289 177.344C978.422 177.344 978.555 177.333 978.688 177.322C978.713 177.322 978.954 177.289 978.979 177.278C979.716 176.807 980.345 176.216 980.829 175.537C980.841 175.526 980.853 175.515 980.865 175.493C981.059 175.23 981.204 174.934 981.325 174.639C981.349 174.562 981.373 174.474 981.397 174.398C981.409 174.452 981.518 174.869 981.53 174.923C981.567 175.11 981.591 175.252 981.591 175.296C981.772 176.665 981.857 178.045 981.845 179.436C981.845 179.984 981.845 181.364 981.845 183.576Z" fill="#FF7526"/>
<path d="M976.753 155.273L976.693 155.23L976.451 155.043L976.62 155.087L976.644 155.131L976.753 155.273Z" fill="#FFC84B"/>
<path d="M981.397 174.277C981.409 174.299 981.409 174.332 981.397 174.354C981.397 174.376 981.397 174.387 981.397 174.409C981.397 174.485 981.349 174.573 981.325 174.65C981.216 174.945 981.059 175.241 980.865 175.504C980.853 175.526 980.853 175.537 980.841 175.548C980.345 176.227 979.716 176.818 978.991 177.289C978.954 177.3 978.725 177.333 978.688 177.333C978.555 177.344 978.422 177.355 978.289 177.355C977.576 177.355 976.898 177.114 976.378 176.665C976.088 176.216 975.701 175.833 975.217 175.548C975.133 175.493 974.371 175.033 974.286 174.978C973.476 174.803 972.629 174.803 971.819 174.978C970.96 174.715 970.186 174.299 969.533 173.741C969.521 173.719 969.376 173.598 969.352 173.587C969.195 172.996 968.868 172.459 968.409 172.021C968.01 171.648 967.635 171.254 967.296 170.838C967.248 170.783 967.006 170.487 966.558 169.973L967.369 169.524C967.393 169.513 967.405 169.502 967.405 169.502C968.493 168.954 969.388 168.133 969.981 167.136C970.017 167.081 970.053 167.026 970.078 166.961C970.102 166.479 970.102 165.986 970.078 165.504C970.066 165 969.993 164.507 969.872 164.014C969.679 163.237 969.4 162.481 969.038 161.747C968.953 161.572 968.856 161.385 968.759 161.221C968.264 160.323 967.792 159.655 967.683 159.48C967.163 158.746 966.703 157.979 966.28 157.19C965.966 156.599 965.784 155.953 965.736 155.285C965.7 154.781 965.724 154.266 965.821 153.762C965.821 153.751 965.821 153.696 965.821 153.696C965.917 153.116 966.075 152.535 966.268 151.977C966.341 151.736 966.437 151.506 966.534 151.287C967.103 150.706 967.417 150.378 967.477 150.312C968.034 149.742 968.554 149.129 969.013 148.483C969.34 148.012 969.606 147.497 969.775 146.96C969.957 146.412 970.041 145.854 970.041 145.295C970.041 145.076 969.896 144.89 969.678 144.802C969.364 144.693 969.062 144.583 968.759 144.441C968.058 144.145 967.49 143.619 967.175 142.984C967.175 142.086 967.042 141.21 966.776 140.344C966.764 140.323 966.703 140.114 966.703 140.093C966.05 139.172 965.288 138.329 964.43 137.562C964.394 137.53 964.067 137.234 964.031 137.201C963.922 137.102 963.813 137.015 963.704 136.927C962.688 136.138 961.479 135.58 960.173 135.306C958.359 135.689 956.508 135.887 954.646 135.887C954.561 135.887 954.162 135.887 953.437 135.887L951.985 135.865C951.901 135.865 951.852 135.865 951.852 135.865C950.655 135.865 949.47 136.062 948.357 136.434C947.656 136.796 947.027 137.256 946.495 137.814C946.192 138.121 945.951 138.461 945.757 138.833C945.745 138.866 945.672 139.008 945.539 139.282L945.128 140.071C945.116 140.06 945.104 140.049 945.104 140.049C944.596 139.72 944.197 139.293 943.919 138.789C943.798 138.592 943.701 138.373 943.629 138.154C943.616 138.132 943.568 137.99 943.556 137.968C943.35 137.365 943.242 136.741 943.242 136.106C943.242 135.186 943.375 134.265 943.641 133.367C943.81 132.798 944.088 132.25 944.475 131.757C945.128 130.914 945.866 130.114 946.664 129.369C946.676 129.358 946.725 129.315 946.809 129.227C947.172 128.92 947.378 128.745 947.426 128.712C948.031 128.197 948.684 127.726 949.373 127.31C949.409 127.288 949.663 127.124 949.7 127.113C950.353 126.708 951.054 126.368 951.78 126.073C952.651 125.722 953.57 125.459 954.501 125.262C955.226 125.12 955.964 125.043 956.702 125.043C956.847 125.043 958.008 125.043 958.153 125.043C958.564 125.043 958.976 125.087 959.363 125.174C960.681 125.437 961.842 126.127 962.64 127.102C962.7 127.058 963.184 126.73 963.245 126.697C963.644 126.423 964.127 126.281 964.623 126.281C964.623 126.281 964.684 126.281 964.696 126.281C965.204 126.292 965.712 126.39 966.183 126.565C966.836 126.806 967.49 127.08 968.13 127.365C968.917 127.716 969.666 128.11 970.38 128.548C970.864 128.833 971.311 129.161 971.722 129.523C972.23 129.972 972.702 130.465 973.125 130.98C973.561 131.527 973.984 132.075 974.371 132.655C974.395 132.688 974.576 132.94 974.601 132.973C974.734 133.159 974.843 133.367 974.927 133.586C975.399 134.813 975.725 136.084 975.907 137.376C975.907 137.431 975.943 137.661 976.004 138.077C976.124 139.304 976.197 139.994 976.209 140.125C976.258 140.574 976.282 141.024 976.294 141.473C976.318 142.447 976.294 143.411 976.245 144.386V144.561C976.149 145.175 976.088 145.514 976.076 145.58C975.967 146.27 975.81 146.938 975.592 147.606C975.375 148.253 975.242 148.921 975.181 149.589C975.133 150.268 975.145 150.805 975.133 150.936C975.133 151.615 975.169 152.283 975.242 152.962C975.568 153.718 976.004 154.43 976.56 155.076C976.548 155.065 976.487 155.055 976.391 155.022L976.632 155.208C976.669 155.241 976.693 155.252 976.693 155.263C977.249 155.723 977.733 156.248 978.156 156.818C978.168 156.84 978.265 156.96 978.422 157.179L979.233 158.209L980.031 159.48L980.357 161.035V161.123L980.321 162.875C980.297 163.006 980.285 163.094 980.285 163.105C980.152 164.124 979.982 165.131 979.765 166.139C979.704 166.49 979.668 166.829 979.668 167.18C979.668 167.727 979.741 168.264 979.886 168.79C979.898 168.834 979.91 168.877 979.934 168.91C979.958 168.943 980.103 169.184 980.115 169.217C980.623 170.038 980.998 170.904 981.264 171.813C981.422 172.306 981.518 172.81 981.53 173.313C981.53 173.642 981.494 173.96 981.397 174.277Z" fill="#FFC84B"/>
<path d="M959.907 165.318C959.302 165.591 958.963 165.745 958.891 165.767C958.504 165.942 958.153 166.194 957.875 166.5C957.585 166.807 957.379 167.158 957.258 167.541C956.883 168.724 956.702 169.951 956.702 171.177C956.702 171.243 956.702 171.813 956.702 171.889C956.242 172.262 955.88 172.711 955.601 173.204C955.577 173.248 955.444 173.478 955.226 173.872V159.852H946.785C947.366 158.976 947.704 158.494 947.765 158.395C947.91 158.176 948.031 157.957 948.14 157.716C948.708 156.5 948.998 155.186 948.998 153.861C948.962 153.631 948.635 151.856 948.599 151.637C949.143 152.229 949.748 152.765 950.328 153.422C952.263 155.591 954.15 157.705 956.871 158.023C956.871 158.045 956.871 158.154 956.871 158.176C957.294 159.918 957.948 161.615 958.806 163.236C958.951 163.51 959.314 164.211 959.907 165.318Z" fill="#FFC84B"/>
<path d="M968.118 162.919C967.816 163.291 967.453 163.609 967.03 163.861C965.99 164.496 964.817 164.923 963.583 165.131C962.797 165.252 961.999 165.318 961.201 165.318C961.116 165.318 960.681 165.318 959.907 165.318C959.242 164.069 958.867 163.368 958.794 163.225C957.935 161.615 957.294 159.918 956.871 158.165C956.871 158.154 956.871 158.034 956.871 158.023C957.101 158.056 957.343 158.067 957.585 158.067C960.282 158.067 961.866 156.895 963.728 154.967C964.744 153.926 965.349 153.094 966.304 151.955C966.111 152.513 965.966 153.083 965.857 153.663C965.857 153.674 965.857 153.729 965.857 153.74C965.772 154.244 965.736 154.748 965.772 155.263C965.821 155.92 966.014 156.566 966.329 157.168C966.752 157.957 967.211 158.713 967.719 159.458C968.312 160.301 968.699 161.013 968.808 161.188C968.88 161.363 968.965 161.55 969.05 161.725C968.868 161.966 968.203 162.798 968.118 162.919Z" fill="#FFB9A3"/>
<path d="M966.159 177.541C966.123 177.749 966.038 177.946 965.917 178.133C965.264 178.713 964.502 179.173 963.656 179.491C962.821 179.809 961.914 179.973 961.007 179.973C960.27 179.973 959.544 179.918 958.818 179.798C958.794 179.787 958.576 179.754 958.552 179.754C957.44 179.568 956.291 179.644 955.214 179.973C955.214 179.568 955.214 177.53 955.214 173.872C955.444 173.467 955.565 173.248 955.589 173.204C955.867 172.7 956.242 172.262 956.69 171.878C956.895 171.714 957.101 171.561 957.331 171.418C957.694 171.21 958.081 171.046 958.492 170.936C959.701 170.608 961.007 170.663 962.18 171.09C963.305 171.506 964.345 172.076 965.276 172.777C965.627 173.05 965.893 173.401 966.038 173.806C966.292 174.463 966.413 175.164 966.413 175.854C966.413 176.424 966.329 176.994 966.159 177.541Z" fill="#FFC2AF"/>
<path d="M1002.85 156.194L1002.69 156.259" stroke="black"/>
<path d="M1048 181.747C1048 182.382 1047.8 183.018 1047.44 183.565C1043.91 183.565 1026.28 183.565 994.543 183.565C994.543 183.544 994.543 183.533 994.543 183.533C994.519 182.711 994.471 181.802 994.41 180.893C994.942 179.885 995.595 178.943 996.357 178.067C996.369 178.056 996.454 177.957 996.599 177.793C996.998 177.333 997.216 177.081 997.252 177.026C997.675 176.544 997.893 175.953 997.893 175.351C998.28 175.351 1001.33 175.351 1001.71 175.351C1002.56 175.351 1003.4 175.394 1004.23 175.482C1005.6 175.635 1006.93 176.019 1008.12 176.632C1008.45 176.796 1008.77 176.972 1009.07 177.18C1009.09 177.202 1009.3 177.333 1009.32 177.355C1010.08 177.859 1010.71 178.494 1011.21 179.217C1011.33 179.217 1012.37 179.184 1012.5 179.184C1013.17 179.162 1013.88 179.14 1014.07 179.14C1014.44 179.14 1020.17 178.965 1020.17 178.965C1020.57 178.954 1022.54 178.899 1026.08 178.801C1028.43 178.768 1029.72 178.746 1029.99 178.735C1030.84 178.724 1031.68 178.757 1032.53 178.834C1032.58 178.834 1032.77 178.856 1033.11 178.888V177.355C1035.42 177.355 1036.7 177.355 1036.97 177.355C1038.46 177.355 1039.96 177.475 1041.42 177.727C1041.47 177.727 1041.88 177.804 1041.93 177.804C1043.08 178.012 1044.21 178.253 1045.35 178.538C1045.46 178.571 1046.41 178.801 1046.52 178.834C1047.07 178.976 1047.57 179.217 1048 179.557C1048 179.995 1048 181.528 1048 181.747Z" fill="#FFB9A3"/>
<path d="M1031.88 139.008C1031.86 139.622 1031.79 140.235 1031.67 140.837C1031.62 141.089 1031.57 141.33 1031.51 141.582C1031.05 143.422 1030.1 145.12 1028.73 146.533C1028.74 146.467 1028.87 145.952 1028.89 145.887C1029.08 145.087 1029.14 144.266 1029.06 143.455C1029.06 143.444 1029.06 143.433 1029.06 143.433C1029.03 143.094 1028.95 142.754 1028.83 142.436V142.415C1028.82 142.393 1028.8 142.371 1028.79 142.349C1028.74 142.25 1028.68 142.152 1028.62 142.064C1028.47 141.965 1028.37 141.911 1028.36 141.9C1027.69 141.604 1027.09 141.473 1026.42 141.757C1026.02 141.933 1025.67 142.196 1025.42 142.524C1025.3 142.656 1025.21 142.809 1025.13 142.962C1024.97 143.313 1024.81 143.663 1024.68 144.014C1024.64 144.09 1024.5 144.463 1024.23 145.142C1024.23 145.109 1024.23 145.098 1024.23 145.098C1023.99 143.63 1023.58 142.196 1023.02 140.804C1022.36 140.136 1021.58 139.578 1020.73 139.129C1020.17 138.691 1019.65 138.209 1019.15 137.705C1019.15 137.705 1019.14 137.683 1019.13 137.683C1018.83 137.354 1018.49 137.059 1018.14 136.785C1017.98 136.796 1017.24 136.85 1015.91 136.96C1014.32 137.146 1013.43 137.256 1013.25 137.278C1012.96 137.31 1012.67 137.343 1012.38 137.354C1011.91 137.387 1011.44 137.398 1010.98 137.398C1009.85 137.398 1008.74 137.321 1007.64 137.168C1007.64 137.168 1007.63 137.168 1007.59 137.168C1006.95 137.048 1006.6 136.982 1006.53 136.96C1005.63 136.796 1004.76 136.588 1003.9 136.336C1003.87 136.325 1003.6 136.248 1003.57 136.237C1002.75 135.996 1001.92 135.854 1001.07 135.799C1001.07 135.799 1001.06 135.799 1001.03 135.799C1000.92 135.405 1000.87 135.186 1000.86 135.142C1000.6 134.178 1000.47 133.203 1000.47 132.217C1000.47 131.516 1000.71 130.837 1001.15 130.268C1001.5 129.829 1001.94 129.457 1002.45 129.172C1002.85 128.953 1003.3 128.844 1003.77 128.844C1003.83 128.844 1004.15 128.844 1004.73 128.844C1004.84 128.668 1004.9 128.57 1004.91 128.548C1005.71 127.244 1006.67 126.018 1007.77 124.901C1007.87 124.824 1008.61 124.221 1008.71 124.145C1008.71 124.758 1008.84 125.361 1009.1 125.919C1009.12 125.941 1009.16 126.051 1009.26 126.237C1009.33 125.853 1009.38 125.634 1009.39 125.591C1009.48 125.142 1009.75 124.736 1010.14 124.451C1010.41 124.254 1010.74 124.145 1011.09 124.145C1011.27 124.145 1012.77 124.145 1012.95 124.145C1013.81 124.145 1014.67 124.243 1015.5 124.43C1016.17 124.572 1016.81 124.835 1017.36 125.185C1017.92 125.547 1018.59 125.733 1019.27 125.733C1020.28 125.733 1021.27 126.007 1022.09 126.522C1022.13 126.543 1022.29 126.642 1022.59 126.828C1022.76 127.047 1022.85 127.168 1022.87 127.19C1023.35 127.781 1023.7 128.46 1023.88 129.183C1024.1 129.183 1025.88 129.183 1026.1 129.183C1026.28 129.216 1026.46 129.282 1026.62 129.369C1027.91 129.972 1029.02 130.848 1029.84 131.932C1029.89 131.987 1030.26 132.458 1030.3 132.513C1030.64 132.962 1030.92 133.433 1031.15 133.937C1031.28 134.375 1031.39 134.715 1031.48 135.032C1031.57 135.339 1031.65 135.613 1031.71 135.919C1031.84 136.62 1031.9 137.321 1031.88 138.033C1031.88 138.23 1031.88 138.91 1031.88 139.008Z" fill="#603052"/>
<path d="M1024.85 157.99C1024.85 160.476 1024.58 162.952 1024.05 165.383C1023.85 166.281 1023.29 167.07 1022.48 167.607C1021.65 168.154 1020.64 168.45 1019.61 168.45C1018.44 168.45 1017.29 168.154 1016.29 167.607C1015.67 167.278 1015.15 166.829 1014.75 166.303C1014.73 166.281 1014.59 166.106 1014.58 166.084C1014.2 165.58 1013.86 165.044 1013.57 164.485C1013.12 163.631 1012.8 162.733 1012.64 161.802C1012.48 160.958 1012.1 160.17 1011.52 159.501C1015.07 158.045 1020.16 155.58 1021.38 153.839C1022.35 152.459 1023.24 150.651 1023.89 149.906C1023.93 149.874 1024.28 149.6 1024.33 149.567C1024.68 151.155 1024.85 152.765 1024.85 154.375C1024.85 155.098 1024.85 157.628 1024.85 157.99Z" fill="#F3B2A0"/>
<path d="M1028.73 146.522C1028.67 146.675 1028.61 146.807 1028.55 146.927C1027.84 148.264 1025.78 149.205 1024.33 149.578C1024.15 149.644 1024 149.764 1023.89 149.906C1023.25 150.64 1022.36 152.47 1021.39 153.85C1020.18 155.58 1015.07 158.034 1011.52 159.501C1010.56 159.907 1009.71 160.235 1009.08 160.454C1008 160.827 1006.66 159.512 1005.66 158.8C1004.58 158.045 1003.59 157.201 1002.69 156.27C1002.39 155.942 1002.09 155.58 1001.78 155.175C1000.65 153.74 999.961 152.984 999.659 150.892C999.502 149.841 1000.3 147.672 1000.3 146.544C1000.3 144.649 998.498 141.834 998.909 140.18C999.224 138.888 1000.3 137.058 1001.05 135.766C1001.9 135.821 1002.73 135.963 1003.54 136.204C1003.57 136.215 1003.84 136.292 1003.87 136.303C1004.74 136.555 1005.61 136.763 1006.49 136.927C1006.56 136.949 1006.93 137.015 1007.57 137.135C1007.59 137.135 1007.62 137.135 1007.62 137.135C1008.72 137.288 1009.83 137.365 1010.94 137.365C1011.41 137.365 1011.89 137.365 1012.36 137.321C1012.65 137.321 1012.94 137.278 1013.23 137.245C1013.41 137.223 1014.29 137.113 1015.89 136.927C1017.22 136.817 1017.96 136.763 1018.1 136.752C1018.46 137.026 1018.8 137.321 1019.11 137.65L1019.13 137.672C1019.61 138.176 1020.15 138.658 1020.69 139.096C1021.56 139.545 1022.33 140.103 1023 140.772C1023.56 142.163 1023.97 143.597 1024.21 145.065C1024.21 145.065 1024.21 145.076 1024.21 145.109C1024.48 144.43 1024.62 144.058 1024.64 143.981C1024.79 143.619 1024.93 143.28 1025.1 142.929C1025.18 142.776 1025.27 142.623 1025.38 142.491C1025.65 142.163 1026 141.9 1026.4 141.724C1027.05 141.44 1027.67 141.571 1028.32 141.867C1028.35 141.878 1028.43 141.933 1028.6 142.031C1028.66 142.119 1028.72 142.217 1028.77 142.316C1028.78 142.338 1028.79 142.36 1028.8 142.382V142.404C1028.93 142.721 1029 143.061 1029.03 143.4C1029.03 143.4 1029.03 143.411 1029.03 143.422C1029.12 144.244 1029.07 145.065 1028.89 145.876C1028.85 146.007 1028.74 146.456 1028.73 146.522Z" fill="#FFB9A3"/>
<path d="M1048 179.568C1047.56 179.239 1047.07 178.998 1046.52 178.856C1046.41 178.834 1045.46 178.593 1045.35 178.56C1044.21 178.275 1043.08 178.034 1041.93 177.837C1041.88 177.826 1041.47 177.76 1041.42 177.749C1039.96 177.497 1038.46 177.377 1036.97 177.388C1036.7 177.388 1035.42 177.388 1033.11 177.388V178.91C1032.77 178.878 1032.58 178.856 1032.53 178.856C1031.68 178.779 1030.84 178.746 1029.99 178.768C1029.72 178.768 1028.43 178.79 1026.08 178.823C1022.54 178.932 1020.57 178.987 1020.17 178.998C1020.17 178.998 1014.44 179.162 1014.07 179.162C1013.88 179.162 1013.17 179.184 1012.5 179.206C1012.37 179.206 1011.33 179.239 1011.21 179.25C1010.71 178.516 1010.08 177.881 1009.32 177.377C1009.3 177.355 1009.09 177.224 1009.07 177.202C1008.77 177.005 1008.45 176.818 1008.12 176.654C1007.48 176.325 1006.82 176.063 1006.12 175.865C1005.39 175.033 1004.73 174.146 1004.15 173.226C1004.12 173.193 1004 173.007 1003.79 172.678C1003.42 172.021 1003.23 171.648 1003.18 171.583C1002.71 170.739 1002.27 170.104 1002.17 169.94C1001.19 168.505 1000.35 166.993 999.647 165.438C999.635 165.427 999.611 165.35 999.598 165.339C999.381 164.638 999.199 163.927 999.066 163.215C998.933 162.579 998.861 161.933 998.861 161.276C998.861 160.564 998.994 159.841 999.26 159.162C999.538 158.483 999.937 157.858 1000.46 157.3C1000.67 157.201 1002.48 156.38 1002.69 156.281C1003.59 157.212 1004.58 158.067 1005.66 158.811C1006.65 159.545 1008 160.849 1009.08 160.476C1009.71 160.246 1010.56 159.918 1011.52 159.523C1012.1 160.191 1012.49 160.98 1012.65 161.813C1012.82 162.744 1013.13 163.653 1013.57 164.507C1013.86 165.066 1014.2 165.591 1014.58 166.106C1014.61 166.128 1014.74 166.292 1014.75 166.314C1015.15 166.851 1015.68 167.3 1016.29 167.629C1017.29 168.176 1018.45 168.461 1019.63 168.461C1020.65 168.472 1021.65 168.176 1022.48 167.629C1023.29 167.092 1023.86 166.292 1024.05 165.405C1024.58 162.963 1024.86 160.498 1024.86 158.012C1024.86 157.65 1024.86 154.759 1024.86 154.397C1024.86 152.787 1024.68 151.177 1024.33 149.589C1025.78 149.227 1027.84 148.285 1028.55 146.938C1028.61 146.818 1028.67 146.686 1028.73 146.533C1030.82 146.653 1032.9 146.938 1034.95 147.398C1035.87 147.595 1036.76 147.858 1037.63 148.176C1037.86 148.264 1039.74 148.954 1039.97 149.03C1040.98 149.403 1041.99 149.797 1042.99 150.224C1043.89 150.618 1044.39 150.827 1044.49 150.87C1045.99 151.506 1047.36 152.371 1048.53 153.422C1048.88 153.751 1049.13 154.036 1049.13 154.156C1049.23 154.452 1049.39 154.715 1049.59 154.956C1050.67 156.413 1051.4 158.056 1051.73 159.775C1051.83 160.432 1051.99 161.09 1052.22 161.725C1052.39 162.207 1052.51 162.711 1052.56 163.226C1052.91 165.471 1053.09 167.738 1053.08 170.006C1053.08 170.893 1053.08 177.947 1053.08 178.823C1053.13 179.151 1053.19 179.469 1053.29 179.776C1053.56 180.74 1053.89 181.682 1054.29 182.602C1054.32 182.667 1054.49 182.985 1054.79 183.565C1050.38 183.565 1047.94 183.565 1047.44 183.565C1047.8 183.018 1048 182.394 1048 181.758C1048 181.32 1048 179.787 1048 179.568Z" fill="#454545"/>
</g>
<defs>
<clipPath id="clip0">
<rect width="1080" height="180" fill="white"/>
</clipPath>
</defs>
</svg>
