<svg xmlns="http://www.w3.org/2000/svg" viewBox="0 0 1920 1080"><defs><style>.cls-1{fill:#013220;}.cls-11,.cls-2,.cls-5,.cls-6{fill:none;}.cls-2{stroke:#fff;}.cls-11,.cls-2,.cls-5{stroke-miterlimit:10;}.cls-3{fill:#39f;}.cls-4{fill:#ffb9a3;}.cls-5{stroke:#231f20;}.cls-7{fill:#ffbfaa;}.cls-8{fill:#7f694f;}.cls-9{fill:#d9d9d9;}.cls-10{fill:#2a0000;}.cls-11{stroke:#000;}.cls-12{fill:#5f2b00;}.cls-13{fill:#ff1f4b;}.cls-14{fill:#ffc2af;}.cls-15{fill:#ff7526;}.cls-16{fill:#ffc84b;}.cls-17{fill:#603052;}.cls-18{fill:#f3b2a0;}.cls-19{fill:#454545;}</style></defs><g id="Layer_2" data-name="Layer 2"><rect class="cls-1" width="1920" height="1080"/><line class="cls-2" x1="1403.61" y1="640.25" x2="1285.37" y2="640.25"/><line class="cls-2" x1="465.96" y1="640.25" x2="578.78" y2="640.25"/><path class="cls-3" d="M735.62,603.08V629H706.73l-1.61,11.24H630.49L629,628.33l-52.25-.07c-1.94-14.35-1.6-25.5-.39-30.71,7.24-22,15.73-27,33.88-30A280.45,280.45,0,0,1,651.37,564c-3.91,4.16-5.56,11.08-1.28,23s16.22,23,26.6,23,17.69-10.36,18.8-23c0-.18,0-.35,0-.52a28.32,28.32,0,0,0,8.06,2.6c5.91.87,11.37-5.23,16.93-11.35.64-.71,1.3-1.46,2-2.25A35.6,35.6,0,0,1,735.62,603.08Z"/><path class="cls-4" d="M630.49,640.25H578.78c-.85-4.19-1.52-8.2-2-12l52.25.07Z"/><polygon class="cls-4" points="735.62 629.01 735.62 640.25 705.12 640.25 706.73 629.01 735.62 629.01"/><line class="cls-5" x1="576.75" y1="628.26" x2="576.74" y2="628.26"/><line class="cls-6" x1="708.33" y1="617.78" x2="706.73" y2="629.01"/><line class="cls-5" x1="629" y1="628.33" x2="629" y2="628.32"/><path class="cls-7" d="M732.09,557.85c-1,6-5.35,12.5-9.61,17.59-.66.79-1.32,1.54-2,2.25-5.56,6.12-11,12.22-16.93,11.35a28.32,28.32,0,0,1-8.06-2.6c-8.94-4.28-17.91-12.94-23.85-22.15a53.06,53.06,0,0,1-4.31-8,9.5,9.5,0,0,1,2.79-1h3.36l-.34-.43c-1-1.31-2.13-2.58-3.29-3.8a7.85,7.85,0,0,1-1.28-1.8,40.64,40.64,0,0,1-1.93-4.32l-.34-.88-.15-.46-.33-1.16a9.4,9.4,0,0,1-.18-4.38,7.05,7.05,0,0,1,.87-2.3,8.31,8.31,0,0,1,2.21-2.44,6.63,6.63,0,0,1,2.32-1.07l1.22-.29a2.46,2.46,0,0,1,1.42.09,5.53,5.53,0,0,1,2.31,1.62,12.2,12.2,0,0,1,1,1.36l.58.92a2.22,2.22,0,0,1,.34,1.18,5.45,5.45,0,0,0,.92,3v-1.81a5.45,5.45,0,0,1,.31-1.83,7,7,0,0,1,2-3,19.33,19.33,0,0,1,2.4-1.81,16.29,16.29,0,0,0,3.1-2.58,3,3,0,0,0,.66-1.07,43.37,43.37,0,0,0,1.37-4.6l.36-1.56.69-3,.69-2.29,1,2.24a15.15,15.15,0,0,0,2,3.22,4.85,4.85,0,0,0,.48.5c.35.26,2.17,1.39,3,1.91a7,7,0,0,1,.83.6,18.5,18.5,0,0,0,4.82,2.86l.06,0a26,26,0,0,1,3.55,2.18,19.32,19.32,0,0,0,2.22,1.37,20.83,20.83,0,0,0,2.94.46c.34,0,1.26-.11,1.26-.11l-1.35-.63a5.51,5.51,0,0,1-2.85-3.16v-5.27a25.73,25.73,0,0,1,4.29,2.24l.6.4a22.68,22.68,0,0,1,3.31,2.37,5.27,5.27,0,0,0,.93.72,2.54,2.54,0,0,1,.45.28,8.83,8.83,0,0,1,2.31,2.56,17.12,17.12,0,0,0,1.52,2.16,11.52,11.52,0,0,1,.79,1l1.12,1.63v-6a9.15,9.15,0,0,0-1.07-4.32l-.07-.15,3.66,2.64.13.1a35.91,35.91,0,0,1,4.8,4.83,21.32,21.32,0,0,1,2.84,4.71l.14.32c-.54,2.78-1.52,5.7-1.8,8.88C732.08,551.38,732.89,553.15,732.09,557.85Z"/><path class="cls-8" d="M740.32,520.26v4.54a37.79,37.79,0,0,1-.7,7.27l-.1.49a50.85,50.85,0,0,1-2.26,6.34l-.15.34-2.18,3.21V542a9.72,9.72,0,0,0-.68-3.57h0l-.14-.32a21.32,21.32,0,0,0-2.84-4.71,35.91,35.91,0,0,0-4.8-4.83l-.13-.1-3.66-2.64.07.15a9.15,9.15,0,0,1,1.07,4.32v6l-1.12-1.63a11.52,11.52,0,0,0-.79-1,17.12,17.12,0,0,1-1.52-2.16,8.83,8.83,0,0,0-2.31-2.56,2.54,2.54,0,0,0-.45-.28,5.27,5.27,0,0,1-.93-.72,22.68,22.68,0,0,0-3.31-2.37l-.6-.4a25.73,25.73,0,0,0-4.29-2.24v5.27a5.51,5.51,0,0,0,2.85,3.16l1.35.63s-.92.11-1.26.11a20.83,20.83,0,0,1-2.94-.46,19.32,19.32,0,0,1-2.22-1.37,26,26,0,0,0-3.55-2.18l-.06,0a18.5,18.5,0,0,1-4.82-2.86,7,7,0,0,0-.83-.6c-.84-.52-2.66-1.65-3-1.91a4.85,4.85,0,0,1-.48-.5,15.15,15.15,0,0,1-2-3.22l-1-2.24-.69,2.29-.69,3-.36,1.56a43.37,43.37,0,0,1-1.37,4.6,3,3,0,0,1-.66,1.07,16.29,16.29,0,0,1-3.1,2.58,19.33,19.33,0,0,0-2.4,1.81,7,7,0,0,0-2,3,5.45,5.45,0,0,0-.31,1.83v1.81a5.45,5.45,0,0,1-.92-3,2.22,2.22,0,0,0-.34-1.18L677,535a12.2,12.2,0,0,0-1-1.36,5.53,5.53,0,0,0-2.31-1.62,2.46,2.46,0,0,0-1.42-.09l-1.22.29a6.63,6.63,0,0,0-2.32,1.07,8.31,8.31,0,0,0-2.21,2.44,7.05,7.05,0,0,0-.87,2.3,9.4,9.4,0,0,0,.18,4.38l.33,1.16.15.46.34.88a40.64,40.64,0,0,0,1.93,4.32,7.85,7.85,0,0,0,1.28,1.8c1.16,1.22,2.25,2.49,3.29,3.8l.34.43h-3.36a9.5,9.5,0,0,0-2.79,1c-.21.11-.42.23-.62.36l-.45.29-.77-.88a24.68,24.68,0,0,1-2.5-3.41c-.68-1.13-1.46-2.42-1.63-2.74s-.46-1.13-.85-2.12a54.34,54.34,0,0,1-2.32-7.58,9.39,9.39,0,0,1-.19-1,6.57,6.57,0,0,0-.13-.81,45.14,45.14,0,0,1-.94-9v-.23l.24-1.58a68.15,68.15,0,0,1,1.95-8.94,13.78,13.78,0,0,1,1.1-2.7,31.92,31.92,0,0,1,3.81-5.57,4.09,4.09,0,0,1,1.3-1l2.45-1.17a20.61,20.61,0,0,1,2.71-5.33l.2-.28,2.43-2a25.2,25.2,0,0,1,3.88-2.67l.24-.14a61.59,61.59,0,0,1,6.58-3.22,11.8,11.8,0,0,1,3.21-.85l2.89-.35a65,65,0,0,1,7.89-.48h4.75a59.33,59.33,0,0,1,10.47.93c.36.07.72.15,1.07.24l1,.24a38.86,38.86,0,0,1,9.18,3.63l3.55,2.64,1.23.85a22.63,22.63,0,0,1,5.54,5.46l2.18,3.44a22.74,22.74,0,0,1,2.85,5.68A13.89,13.89,0,0,1,740.32,520.26Z"/><path class="cls-4" d="M695.53,586.44c0,.17,0,.34,0,.52-1.11,12.66-8.41,23-18.8,23s-22.29-11.06-26.6-23-2.63-18.82,1.28-23c2.65-.05,8.35,0,11,0l3.93-7,.45-.29c.2-.13.41-.25.62-.36a53.06,53.06,0,0,0,4.31,8C677.62,573.5,686.59,582.16,695.53,586.44Z"/><line class="cls-6" x1="659.33" y1="563.95" x2="659.3" y2="563.98"/><path class="cls-3" d="M635.2,634.38c7.72,0,7.73-12,0-12s-7.73,12,0,12Z"/><path class="cls-3" d="M635.2,634.38c7.72,0,7.73-12,0-12s-7.73,12,0,12Z"/><path class="cls-3" d="M635.13,634.38c7.72,0,7.73-12,0-12s-7.74,12,0,12Z"/><path class="cls-3" d="M635.08,634.38c7.72,0,7.73-12,0-12s-7.74,12,0,12Z"/><path class="cls-3" d="M635,634.37c7.72,0,7.73-12,0-12s-7.74,12,0,12Z"/><path class="cls-3" d="M634.36,631.58c7.72,0,7.73-12,0-12s-7.74,12,0,12Z"/><path class="cls-3" d="M634.36,631.58c7.72,0,7.73-12,0-12s-7.74,12,0,12Z"/><path class="cls-3" d="M634.29,631.58c7.72,0,7.73-12,0-12s-7.73,12,0,12Z"/><path class="cls-3" d="M634.23,631.58c7.72,0,7.73-12,0-12s-7.74,12,0,12Z"/><path class="cls-2" d="M737.75,640.25h15.14A73,73,0,0,1,750.27,628c-.4-3.1-.64-6.2-.75-9.32l-.3-8.74q-.16-3.54-.16-7.1c0-2.07,0-4.13.12-6.2.13-3.36.38-6.72.74-10.06l.38-3.49.69-4.73a22.45,22.45,0,0,1,1.7-5.85,13.87,13.87,0,0,1,4.49-5.57,22,22,0,0,1,9.15-4q5.29-1,10.64-1.52a116.26,116.26,0,0,1,11.8-.6h9.32a7.16,7.16,0,0,1,2.88.61l-2.9-3.21L794.25,554a71.71,71.71,0,0,1-6.39-8.72,3.64,3.64,0,0,1-.32-.62l-1.55-3.8-.86-2.2a30.59,30.59,0,0,1-1.66-5.86,25.06,25.06,0,0,1-.38-4.4,59.79,59.79,0,0,1,.42-7.08,23.7,23.7,0,0,1,.93-4.25,41.06,41.06,0,0,1,3-7c.76-1.42,1.6-2.8,2.49-4.14l2.33-3.49,4.13-4.59,5.5-5a46.34,46.34,0,0,1,9.54-6.59,3.93,3.93,0,0,1,1.15-.4l.9-.31a59.16,59.16,0,0,1,15.29-3.08l1.41.11A37.65,37.65,0,0,1,841.1,485l3.87,1.74q2.78,1.25,5.43,2.74a39.6,39.6,0,0,1,5,3.36,33.49,33.49,0,0,1,7.26,8,51.76,51.76,0,0,1,6.16,12.28l0,.1a61.35,61.35,0,0,1,1.84,14.9,3,3,0,0,1-.14.9l-1,3.17a53.41,53.41,0,0,1-2.25,5.95l-.52,1.15a49.82,49.82,0,0,1-2.6,5l-.83,1.39a47.59,47.59,0,0,1-3.06,4.55l-.5.65q-1.5,2-3.18,3.82l-.48.53a34.34,34.34,0,0,1-5.91,5.12c-1.2.81-2.36,1.67-3.5,2.56l-1.27,1H850a34.18,34.18,0,0,1,7-.73,34.7,34.7,0,0,1,4.56.31,11.73,11.73,0,0,1,5.64,2.36,38.31,38.31,0,0,1,3.51,3.1,17.51,17.51,0,0,1,4.24,6.85l.29.89A97.9,97.9,0,0,1,877.77,588a6.64,6.64,0,0,0,.25,1.16c.23.45.34,6.87.34,6.87l.11,6.83.46,7.16.81,7.23s.51,6.07.74,7.91.75,6.65.75,6.65l.2,2.08a62.05,62.05,0,0,1,.32,6.4h16.51"/><path class="cls-1" d="M752.62,621.17c7.72,0,7.73-12,0-12s-7.74,12,0,12Z"/><path class="cls-1" d="M746.24,602.68c7.73,0,7.74-12,0-12s-7.73,12,0,12Z"/><path class="cls-1" d="M748.69,581.89c7.72,0,7.73-12,0-12s-7.73,12,0,12Z"/><path class="cls-1" d="M764.28,571.5c7.72,0,7.74-12,0-12s-7.73,12,0,12Z"/><path class="cls-1" d="M783.54,567.83c7.72,0,7.74-12,0-12s-7.73,12,0,12Z"/><path class="cls-1" d="M797.51,559.12c7.72,0,7.74-12,0-12s-7.73,12,0,12Z"/><path class="cls-1" d="M787.21,543.57c7.72,0,7.74-12,0-12s-7.73,12,0,12Z"/><path class="cls-1" d="M784.38,524.39c7.72,0,7.73-12,0-12s-7.74,12,0,12Z"/><path class="cls-1" d="M794.09,505.67c7.72,0,7.74-12,0-12s-7.73,12,0,12Z"/><path class="cls-1" d="M812.52,492.45c7.72,0,7.73-12,0-12s-7.74,12,0,12Z"/><path class="cls-1" d="M834.91,488c7.72,0,7.73-12,0-12s-7.74,12,0,12Z"/><path class="cls-1" d="M854.63,495.83c7.72,0,7.73-12,0-12s-7.74,12,0,12Z"/><path class="cls-1" d="M868.84,510.51c7.72,0,7.74-12,0-12s-7.73,12,0,12Z"/><path class="cls-1" d="M870.37,533c7.72,0,7.74-12,0-12s-7.73,12,0,12Z"/><path class="cls-1" d="M862.14,551.79c7.72,0,7.73-12,0-12s-7.74,12,0,12Z"/><path class="cls-1" d="M846.37,565.39c7.72,0,7.74-12,0-12s-7.73,12,0,12Z"/><path class="cls-1" d="M863,570c7.72,0,7.74-12,0-12s-7.73,12,0,12Z"/><path class="cls-1" d="M873.73,586.17c7.73,0,7.74-12,0-12s-7.73,12,0,12Z"/><path class="cls-1" d="M881.07,604.67c7.72,0,7.74-12,0-12s-7.73,12,0,12Z"/><path class="cls-1" d="M877.1,623.63c7.72,0,7.73-12,0-12s-7.74,12,0,12Z"/><path class="cls-1" d="M877.1,642.58c7.72,0,7.73-12,0-12s-7.74,12,0,12Z"/><path class="cls-1" d="M754.57,639.87c7.73,0,7.74-12,0-12s-7.73,12,0,12Z"/><rect class="cls-9" x="912.72" y="575.28" width="125.65" height="64.97"/><path class="cls-10" d="M961.81,525.09c-5.11,13.21-17.73,23.78-32,23.78A33.67,33.67,0,0,1,896.85,523l.45,0a3.74,3.74,0,0,1,1.81.48,15,15,0,0,1,1.89,1.29l.28.37a18.84,18.84,0,0,1,3.11,6.08v-.49a11.88,11.88,0,0,1,2.09-6.75,6.15,6.15,0,0,1,3.21-2.39,70.25,70.25,0,0,0,18.52-9.19,35.75,35.75,0,0,0,11.63-13.55l.7-1.44c9,5,15.64,16.39,16.9,30l.22-.2.55-.43,1.36-.79.67-.37a5,5,0,0,1,1.31-.49Z"/><line class="cls-11" x1="1135.92" y1="640.25" x2="1135.29" y2="640.25"/><polyline class="cls-2" points="1038.52 640.25 1038.37 640.25 912.72 640.25"/><path class="cls-4" d="M912.72,590.26v50H898.26v-2a92,92,0,0,0-.58-10.36l-.37-3.29q-.46-4.08-1.17-8.12L893.76,603l-2.18-9.81a128.45,128.45,0,0,0-3.68-13.2l-.11-.34a139.67,139.67,0,0,1-3.85-13.72,10.4,10.4,0,0,1-.15-3.82,11.89,11.89,0,0,1,2.9-6.3,11,11,0,0,1,2.93-2.32,43.76,43.76,0,0,1,4.67-2.16l2.56,2.75a93.43,93.43,0,0,1,6.49,11.16l.13.26a21.18,21.18,0,0,1,2.06,9.12v2.29a20,20,0,0,0,2.29,9.28Z"/><path class="cls-4" d="M965.91,529.14a7.5,7.5,0,0,1-.21,1.76l-.32,1.27-.41,1.35a21.15,21.15,0,0,1-.85,2.3l-.26.61c-.21.47-.44.94-.68,1.4l-.71,1.3-.7,1.19a14.53,14.53,0,0,1-1.16,1.66A11.88,11.88,0,0,1,959,543.6c-.22.18-.44.35-.67.51l-.63.44c-.37.26-.75.5-1.14.74l-.73.44c-.61,2.13-.66,4-1.12,5.86a10.31,10.31,0,0,1-.85,2.29c-2.35,4.41-6,7.35-9.79,10.1-4.38,3.15-9.13,5.8-14.06,5.8s-9.29-2.7-13.6-5.8c-3.86-2.77-7.72-5.67-10.09-10.1a18.07,18.07,0,0,1-1.73-5c-.39-1.86-.64-3.82-1.11-6l-.64-.23a7.94,7.94,0,0,1-1-.45,10.69,10.69,0,0,1-1.68-1.16l-.59-.49-1.28-1a12.85,12.85,0,0,1-2.34-2.32,11.08,11.08,0,0,1-1-1.59l-1.11-2.07a3.66,3.66,0,0,1-.3-.8,19.28,19.28,0,0,1-.51-4.42,5.87,5.87,0,0,1,.6-2.6,6,6,0,0,1,1.74-2.13,3.13,3.13,0,0,1,1.51-.64l.45,0a3.74,3.74,0,0,1,1.81.48,15,15,0,0,1,1.89,1.29l.28.37a18.84,18.84,0,0,1,3.11,6.08v-.49a11.88,11.88,0,0,1,2.09-6.75,6.15,6.15,0,0,1,3.21-2.39,70.25,70.25,0,0,0,18.52-9.19,35.75,35.75,0,0,0,11.63-13.55l2,5.68a44.79,44.79,0,0,0,2.05,4.79,33,33,0,0,0,6.21,8.62,21.92,21.92,0,0,1,5.67,9.8l.33,1.74a34.84,34.84,0,0,1,.59,6.36l.4-1.16a6.78,6.78,0,0,0,.37-2.23,9.1,9.1,0,0,1,1.2-4.52l0-.07,1.49-2.23a5,5,0,0,1,1.31-.49l.26,0a3.08,3.08,0,0,1,.53,0,3.66,3.66,0,0,1,1.18.2,2.3,2.3,0,0,1,1,.63,5.91,5.91,0,0,1,1.08,1.61A4.07,4.07,0,0,1,965.91,529.14Z"/><path class="cls-12" d="M964.23,512.53a34.79,34.79,0,0,1-2.42,12.56l-.26,0a5,5,0,0,0-1.31.49l-1.49,2.23,0,.07a9.1,9.1,0,0,0-1.2,4.52,6.78,6.78,0,0,1-.37,2.23l-.4,1.16a34.84,34.84,0,0,0-.59-6.36l-.33-1.74a21.92,21.92,0,0,0-5.67-9.8,33,33,0,0,1-6.21-8.62,44.79,44.79,0,0,1-2.05-4.79l-2-5.68a35.75,35.75,0,0,1-11.63,13.55,70.25,70.25,0,0,1-18.52,9.19,6.15,6.15,0,0,0-3.21,2.39,11.88,11.88,0,0,0-2.09,6.75v.49a18.84,18.84,0,0,0-3.11-6.08l-.28-.37a15,15,0,0,0-1.89-1.29,3.74,3.74,0,0,0-1.81-.48l-.45,0a33.19,33.19,0,0,1-.83-7.38c0-8.31,1.17-14.61,6.29-20.43a39.27,39.27,0,0,1,13.37-9.56c0-7.66,8.55-13,16.42-13s16.31,5.07,16.31,12.73c0,.26,0,.51,0,.77a24.83,24.83,0,0,1,7,4.73C961.52,496.87,964.23,503.35,964.23,512.53Z"/><path class="cls-13" d="M966.87,555.62l-.31.63c-1,2.09-2,4.22-2.85,6.38a26,26,0,0,0-1.9,9.77v2.88H912.72v15l-4.9-4.12a20,20,0,0,1-2.29-9.28v-2.29a21.18,21.18,0,0,0-2.06-9.12l-.13-.26A93.43,93.43,0,0,0,896.85,554l-2.56-2.75a43.83,43.83,0,0,1,5-1.62l.85-.22a17.63,17.63,0,0,1,4.45-.57,18.07,18.07,0,0,0,1.73,5c2.37,4.43,6.23,7.33,10.09,10.1,4.31,3.1,8.74,5.8,13.6,5.8s9.68-2.65,14.06-5.8c3.83-2.75,7.44-5.69,9.79-10.1a10.31,10.31,0,0,0,.85-2.29l7.12,2.44,4.1,1.29Z"/><path class="cls-4" d="M982.58,569.35v5.93H961.81V572.4a26,26,0,0,1,1.9-9.77c.87-2.16,1.83-4.29,2.85-6.38l.31-.63,2.69.85a38,38,0,0,1,4.81,1.87,17.71,17.71,0,0,1,4.12,2.66l2,1.75A11.55,11.55,0,0,1,982.58,569.35Z"/><path class="cls-14" d="M1135.92,640.14v.11h-31.51V628.91a91.25,91.25,0,0,0-.7-11.32q-.06-.5-.15-1l-.34-1.45a.88.88,0,0,0,0-.15.54.54,0,0,0,0-.21,10.67,10.67,0,0,0,.33-2.64,16.22,16.22,0,0,0-.52-4,30.53,30.53,0,0,0-2.85-7.13l-.44-.82a1,1,0,0,1-.13-.33,18.8,18.8,0,0,1-.53-4.41,18.27,18.27,0,0,1,.22-2.86c.54-2.76,1-5.52,1.3-8.31l.08-.64.11-4.79v-.25l-.81-4.24-2-3.48-2-2.83-.67-1a23.34,23.34,0,0,0-3.61-4.26l-.33-.43,0,0-.06-.1a65.58,65.58,0,0,1,9.27,4.09,54,54,0,0,1,8.3,5.62,39.59,39.59,0,0,1,7.14,7.71,148.09,148.09,0,0,1,11.29,18.92,68.68,68.68,0,0,1,5.14,13.81l.89,3.48c.33,1.3.61,2.61.83,3.93.6,3.57,1,8.41,1.34,13.15C1135.75,635.42,1135.86,637.89,1135.92,640.14Z"/><path class="cls-14" d="M1075.21,535.3a16.2,16.2,0,0,1-.65,4.55,16.7,16.7,0,0,1-1.91,4.19,42.25,42.25,0,0,1-3.8,5l-2.35,2.67q-.36.93-.66,1.89h0c-2.39,3.14-3.89,5.41-6.39,8.26-4.62,5.27-8.55,8.49-15.25,8.49a13,13,0,0,1-1.78-.12c-6.75-.88-11.42-6.68-16.22-12.61-1.45-1.79-3-3.27-4.31-4.9a17.88,17.88,0,0,1-3.6-6.45c-1.34-4.37-.46-7-.46-12,0-4.65-4.28-8.32-4.47-12.61,0-.2,0-.4,0-.59l.08.06,1-2.18.56-1.22a11.19,11.19,0,0,1,1.81-2.8,17.73,17.73,0,0,1,4.62-3.78,25.15,25.15,0,0,1,8.67-1.54h.33l3.61.05h3a59.12,59.12,0,0,0,13.71-1.6,20.36,20.36,0,0,1,8.76,4.46c.28.23.55.48.81.74l1,1a38.59,38.59,0,0,1,5.62,6.92l.19.7a27.83,27.83,0,0,1,1,7.21,8,8,0,0,0,3.92,4c.75.34,1.5.66,2.27,1A1.43,1.43,0,0,1,1075.21,535.3Z"/><path class="cls-15" d="M1104.41,628.91v11.34h-65.89l-.15-9.86a16.59,16.59,0,0,1,8.27-.61l.67.12a29.67,29.67,0,0,0,5.41.49,17.18,17.18,0,0,0,6.59-1.31,17.39,17.39,0,0,0,5.59-3.73,5.12,5.12,0,0,0,.62-1.62,17.58,17.58,0,0,0-.3-10.24,6.18,6.18,0,0,0-1.9-2.81,28.53,28.53,0,0,0-7.67-4.61,14,14,0,0,0-9.17-.44,10.39,10.39,0,0,0-2.86,1.34,10.74,10.74,0,0,0-1.59,1.26v-1.94a36.44,36.44,0,0,1,1.39-9.95,7.67,7.67,0,0,1,1.52-2.86,7.89,7.89,0,0,1,2.54-2l2.51-1.23h3.22a33.36,33.36,0,0,0,5.9-.53,22.77,22.77,0,0,0,8.56-3.46,10.24,10.24,0,0,0,2.69-2.6l2.33-3.26a33.94,33.94,0,0,1,2.07,6.2,19.28,19.28,0,0,1,.5,4.07,37.48,37.48,0,0,1,0,4,2.69,2.69,0,0,1-.22.49,16.1,16.1,0,0,1-6.4,6.48l-.1.06-2,1.22,1.79,2.42a33.88,33.88,0,0,0,2.74,3.25,9.47,9.47,0,0,1,2.35,4.27l.45.42a15.39,15.39,0,0,0,5.66,3.4,12.84,12.84,0,0,1,6.12,0l2.33,1.55a9.27,9.27,0,0,1,2.87,3.07,6.87,6.87,0,0,0,4.74,1.9,7.73,7.73,0,0,0,1-.07l.73-.11a17.81,17.81,0,0,0,4.59-4.77.75.75,0,0,0,.07-.12,10.49,10.49,0,0,0,1.14-2.36c.07-.21.14-.43.19-.65l.34,1.45q.09.49.15,1A91.25,91.25,0,0,1,1104.41,628.91Z"/><path class="cls-16" d="M1091.8,562.75l-.16-.14-.59-.5,0,0,0,0,.4.13h0l.06.1,0,0Z"/><path class="cls-16" d="M1103.65,612.15a10.67,10.67,0,0,1-.33,2.64.54.54,0,0,1,0,.21.88.88,0,0,1,0,.15c0,.22-.12.44-.19.65a10.49,10.49,0,0,1-1.14,2.36.75.75,0,0,1-.07.12,17.81,17.81,0,0,1-4.59,4.77l-.73.11a7.73,7.73,0,0,1-1,.07,6.87,6.87,0,0,1-4.74-1.9,9.27,9.27,0,0,0-2.87-3.07l-2.33-1.55a12.84,12.84,0,0,0-6.12,0,15.39,15.39,0,0,1-5.66-3.4l-.45-.42a9.47,9.47,0,0,0-2.35-4.27,33.88,33.88,0,0,1-2.74-3.25L1066.5,603l2-1.22.1-.06a16.1,16.1,0,0,0,6.4-6.48,2.69,2.69,0,0,0,.22-.49,37.48,37.48,0,0,0,0-4,19.28,19.28,0,0,0-.5-4.07,33.94,33.94,0,0,0-2.07-6.2c-.21-.49-.44-1-.68-1.46q-1.23-2.44-2.69-4.76a64.6,64.6,0,0,1-3.46-6.26,14.17,14.17,0,0,1-1.37-5.23,18.21,18.21,0,0,1,.21-4.17l0-.19a33.08,33.08,0,0,1,1.11-4.7h0q.3-1,.66-1.89l2.35-2.67a42.25,42.25,0,0,0,3.8-5,16.7,16.7,0,0,0,1.91-4.19,16.2,16.2,0,0,0,.65-4.55,1.43,1.43,0,0,0-.91-1.34c-.77-.3-1.52-.62-2.27-1a8,8,0,0,1-3.92-4,27.83,27.83,0,0,0-1-7.21l-.19-.7a38.59,38.59,0,0,0-5.62-6.92l-1-1c-.26-.26-.53-.51-.81-.74a20.36,20.36,0,0,0-8.76-4.46,59.12,59.12,0,0,1-13.71,1.6h-3l-3.61-.05h-.33a25.15,25.15,0,0,0-8.67,1.54,17.73,17.73,0,0,0-4.62,3.78,11.19,11.19,0,0,0-1.81,2.8l-.56,1.22-1,2.18-.08-.06a9.52,9.52,0,0,1-2.94-3.45,12.1,12.1,0,0,1-.71-1.75l-.17-.51a16.67,16.67,0,0,1-.8-5.1,29.16,29.16,0,0,1,1-7.49,13.8,13.8,0,0,1,2.06-4.41,55.92,55.92,0,0,1,5.44-6.55l.35-.38,1.53-1.43a37.44,37.44,0,0,1,4.84-3.84l.81-.54a33.55,33.55,0,0,1,5.16-2.83,36,36,0,0,1,6.74-2.22,25.28,25.28,0,0,1,5.48-.6h3.6a13.56,13.56,0,0,1,3,.34,14.05,14.05,0,0,1,8.13,5.28l1.5-1.11a5.71,5.71,0,0,1,3.4-1.13h.18a10.64,10.64,0,0,1,3.69.78c1.64.66,3.26,1.4,4.85,2.19a50.92,50.92,0,0,1,5.58,3.24,23.67,23.67,0,0,1,3.32,2.67,32.78,32.78,0,0,1,3.47,4c1.09,1.48,2.13,3,3.11,4.57l.55.87a8.2,8.2,0,0,1,.81,1.69,51.6,51.6,0,0,1,2.43,10.39l.24,1.91.52,5.61c.11,1.23.18,2.45.21,3.68q.07,4-.13,8l0,.47-.4,2.8a38.7,38.7,0,0,1-1.22,5.53,25.87,25.87,0,0,0-1,5.45q-.12,1.85-.12,3.69c0,1.85.09,3.69.27,5.53a22.6,22.6,0,0,0,3.25,5.79l-.4-.13,0,0,0,0,.59.5.16.14a23.34,23.34,0,0,1,3.61,4.26l.67,1,2,2.83,2,3.48.81,4.24v.25l-.11,4.79-.08.64c-.33,2.79-.76,5.55-1.3,8.31a18.27,18.27,0,0,0-.22,2.86,18.8,18.8,0,0,0,.53,4.41,1,1,0,0,0,.13.33l.44.82a30.53,30.53,0,0,1,2.85,7.13A16.22,16.22,0,0,1,1103.65,612.15Z"/><path class="cls-16" d="M1050,590.26l-2.51,1.23a7.89,7.89,0,0,0-2.54,2,7.67,7.67,0,0,0-1.52,2.86,36.44,36.44,0,0,0-1.39,9.95v1.94a12.74,12.74,0,0,0-2.73,3.61l-.93,1.84v-38.4h-20.94l2.44-4a14,14,0,0,0,.94-1.85,27.45,27.45,0,0,0,2.12-10.58l-1-6.09c1.35,1.63,2.86,3.11,4.31,4.9,4.8,5.93,9.47,11.73,16.22,12.61l0,.4a63,63,0,0,0,4.79,13.86Z"/><path class="cls-4" d="M1072.69,580.41l-2.33,3.26a10.24,10.24,0,0,1-2.69,2.6,22.77,22.77,0,0,1-8.56,3.46,33.36,33.36,0,0,1-5.9.53H1050l-2.75-5.73a63,63,0,0,1-4.79-13.86l0-.4a13,13,0,0,0,1.78.12c6.7,0,10.63-3.22,15.25-8.49,2.5-2.85,4-5.12,6.39-8.26a33.08,33.08,0,0,0-1.11,4.7l0,.19a18.21,18.21,0,0,0-.21,4.17,14.17,14.17,0,0,0,1.37,5.23,64.6,64.6,0,0,0,3.46,6.26q1.46,2.31,2.69,4.76C1072.25,579.43,1072.48,579.92,1072.69,580.41Z"/><path class="cls-14" d="M1066.14,619.12a17.6,17.6,0,0,1-.62,4.61,5.12,5.12,0,0,1-.62,1.62,17.39,17.39,0,0,1-5.59,3.73,17.18,17.18,0,0,1-6.59,1.31,29.67,29.67,0,0,1-5.41-.49l-.67-.12a16.59,16.59,0,0,0-8.27.61V613.68l.93-1.84a12.74,12.74,0,0,1,2.73-3.61,10.74,10.74,0,0,1,1.59-1.26,10.39,10.39,0,0,1,2.86-1.34,14,14,0,0,1,9.17.44,28.53,28.53,0,0,1,7.67,4.61,6.18,6.18,0,0,1,1.9,2.81A17.71,17.71,0,0,1,1066.14,619.12Z"/><line class="cls-11" x1="1156.52" y1="565.27" x2="1156.15" y2="565.45"/><path class="cls-4" d="M1268.51,629.24v6a9.66,9.66,0,0,1-1.37,5H1135.92v-.11c-.06-2.25-.17-4.72-.33-7.23a42,42,0,0,1,4.83-7.72l.6-.76,1.63-2.1a7.45,7.45,0,0,0,1.58-4.6h9.48a54.14,54.14,0,0,1,6.24.37,26.41,26.41,0,0,1,9.67,3.14,20.59,20.59,0,0,1,2.33,1.51l.64.47a18.08,18.08,0,0,1,4.66,5.12l3.21-.11c1.66-.06,3.44-.12,3.9-.12.92,0,15.13-.46,15.13-.46l14.68-.46,9.68-.17a55.48,55.48,0,0,1,6.31.25l1.44.15v-4.18h9.55a59.52,59.52,0,0,1,11.06,1l1.24.23c2.85.55,5.69,1.21,8.49,2l2.93.81A9.5,9.5,0,0,1,1268.51,629.24Z"/><path class="cls-17" d="M1228.54,515.52v2.67a36.09,36.09,0,0,1-.51,5c-.13.69-.26,1.37-.41,2.05a30.4,30.4,0,0,1-6.9,13.55l.39-1.77a22.23,22.23,0,0,0,.44-6.66v-.06a12.08,12.08,0,0,0-.57-2.72l0-.06a1.07,1.07,0,0,1-.09-.19,6.22,6.22,0,0,0-.43-.76h0l-.67-.47c-1.63-.79-3.15-1.15-4.78-.38h0a6.49,6.49,0,0,0-2.51,2.1,6.05,6.05,0,0,0-.7,1.21c-.41.94-.79,1.9-1.13,2.87l-1.09,3.08,0-.11a61.77,61.77,0,0,0-3-11.76,23,23,0,0,0-5.72-4.58h0a44.74,44.74,0,0,1-3.88-3.91l-.06-.07a22.86,22.86,0,0,0-2.48-2.44l-5.5.46-6.6.89c-.72.09-1.44.17-2.17.21-1.16.08-2.33.12-3.49.12a53.07,53.07,0,0,1-8.26-.65l-.12,0-2.66-.55a63.63,63.63,0,0,1-6.51-1.72l-.83-.27a25.94,25.94,0,0,0-6.17-1.21H1152l-.43-1.8a34,34,0,0,1-.94-8,9.34,9.34,0,0,1,1.68-5.34,10.79,10.79,0,0,1,3.23-3,6.35,6.35,0,0,1,3.26-.9h2.38l.44-.8a54.72,54.72,0,0,1,7.12-10l2.3-2.06a12.22,12.22,0,0,0,1,4.84l.38.89.33-1.77a5.32,5.32,0,0,1,1.86-3.13,3.7,3.7,0,0,1,2.34-.83h4.64a26.42,26.42,0,0,1,6.33.76,13.75,13.75,0,0,1,4.61,2.09,8.23,8.23,0,0,0,4.74,1.5,12.26,12.26,0,0,1,7,2.16l1.21.82.71,1a14.64,14.64,0,0,1,2.5,5.45h5.5a4.93,4.93,0,0,1,1.3.53,22,22,0,0,1,8,7l1.13,1.61a20.23,20.23,0,0,1,2.11,3.88c.33,1.2.59,2.14.82,3s.4,1.6.56,2.44A30.74,30.74,0,0,1,1228.54,515.52Z"/><path class="cls-18" d="M1211.11,560.29v9.9a104.12,104.12,0,0,1-2,20.24,10,10,0,0,1-3.9,6.09,12,12,0,0,1-7.09,2.3,16,16,0,0,1-8.26-2.29,12.24,12.24,0,0,1-3.82-3.59l-.41-.59a31.25,31.25,0,0,1-2.52-4.38,27.87,27.87,0,0,1-2.3-7.36,14.06,14.06,0,0,0-2.77-6.29c8.79-4,21.42-10.74,24.46-15.5,2.4-3.78,4.62-8.74,6.22-10.78l1.08-.92A67.75,67.75,0,0,1,1211.11,560.29Z"/><path class="cls-4" d="M1221.11,537l-.39,1.77c-.15.41-.3.78-.45,1.1-1.76,3.68-6.87,6.24-10.46,7.26a2.55,2.55,0,0,0-1.08.92c-1.6,2-3.82,7-6.22,10.78-3,4.76-15.67,11.47-24.46,15.5-2.41,1.1-4.52,2-6.08,2.61-2.65,1-6-2.59-8.48-4.55a49.42,49.42,0,0,1-7.34-6.93c-.76-.89-1.52-1.88-2.29-3-2.78-3.92-4.51-6-5.26-11.72-.37-2.88,1.59-8.81,1.59-11.9,0-5.19-4.45-12.92-3.44-17.43.79-3.56,3.44-8.57,5.31-12.11a25.94,25.94,0,0,1,6.17,1.21l.83.27a63.63,63.63,0,0,0,6.51,1.72l2.66.55.12,0a53.07,53.07,0,0,0,8.26.65c1.16,0,2.33,0,3.49-.12.73,0,1.45-.12,2.17-.21l6.6-.89,5.5-.46a22.86,22.86,0,0,1,2.48,2.44l.06.07a44.74,44.74,0,0,0,3.88,3.91h0a23,23,0,0,1,5.72,4.58,61.77,61.77,0,0,1,3,11.76l0,.11,1.09-3.08c.34-1,.72-1.93,1.13-2.87a6.05,6.05,0,0,1,.7-1.21,6.49,6.49,0,0,1,2.51-2.1h0c1.63-.77,3.15-.41,4.78.38l.67.47h0a6.22,6.22,0,0,1,.43.76,1.07,1.07,0,0,0,.09.19l0,.06a12.08,12.08,0,0,1,.57,2.72v.06A22.23,22.23,0,0,1,1221.11,537Z"/><path class="cls-19" d="M1268.51,635.28v-6a9.5,9.5,0,0,0-3.64-1.94l-2.93-.81c-2.8-.78-5.64-1.44-8.49-2l-1.24-.23a59.52,59.52,0,0,0-11.06-1h-9.55v4.18l-1.44-.15a55.48,55.48,0,0,0-6.31-.25l-9.68.17-14.68.46s-14.21.46-15.13.46c-.46,0-2.24.06-3.9.12l-3.21.11a18.08,18.08,0,0,0-4.66-5.12l-.64-.47a20.59,20.59,0,0,0-2.33-1.51,25.91,25.91,0,0,0-5-2.15,60.64,60.64,0,0,1-4.88-7.23l-.88-1.52-1.51-3q-1.17-2.29-2.51-4.48a83.28,83.28,0,0,1-6.27-12.35l-.1-.26a50.4,50.4,0,0,1-1.34-5.83,28.38,28.38,0,0,1-.5-5.29,16.7,16.7,0,0,1,1-5.79,16.94,16.94,0,0,1,2.95-5.1l5.57-2.8a49.42,49.42,0,0,0,7.34,6.93c2.46,2,5.83,5.59,8.48,4.55,1.56-.61,3.67-1.51,6.08-2.61a14.06,14.06,0,0,1,2.77,6.29,27.87,27.87,0,0,0,2.3,7.36,31.25,31.25,0,0,0,2.52,4.38l.41.59a12.24,12.24,0,0,0,3.82,3.59,16,16,0,0,0,8.26,2.29,12,12,0,0,0,7.09-2.3,10,10,0,0,0,3.9-6.09,104.12,104.12,0,0,0,2-20.24v-9.9a67.75,67.75,0,0,0-1.3-13.17c3.59-1,8.7-3.58,10.46-7.26.15-.32.3-.69.45-1.1a85.38,85.38,0,0,1,15.42,2.35,50.18,50.18,0,0,1,6.66,2.15l5.79,2.34q3.79,1.51,7.49,3.27l3.74,1.76a35.15,35.15,0,0,1,10,7c.89.9,1.52,1.67,1.52,2a6.41,6.41,0,0,0,1.12,2.19,34.7,34.7,0,0,1,5.32,13.2,29.18,29.18,0,0,0,1.2,5.33,18.77,18.77,0,0,1,.83,4.12,129.91,129.91,0,0,1,1.31,18.58v24.15a16.09,16.09,0,0,0,.52,2.61,65.44,65.44,0,0,0,2.48,7.72l1.25,2.66h-18.23A9.66,9.66,0,0,0,1268.51,635.28Z"/></g></svg>