<svg xmlns="http://www.w3.org/2000/svg" viewBox="0 0 250 250"><defs><style>.cls-1{fill:#ffef00;}</style></defs><g id="Layer_3" data-name="Layer 3"><path class="cls-1" d="M62,104.76a32.73,32.73,0,0,0-2.12,5.11h0a33.7,33.7,0,0,1,2.11-5.09Zm14.19,44.41,0,0a32.73,32.73,0,0,0,5.11,2.12v0A33.7,33.7,0,0,1,76.23,149.17Zm0-58.58,0,0a33.7,33.7,0,0,1,5.09-2.11v0A32.73,32.73,0,0,0,76.21,90.59Zm30.24,58.58a33.7,33.7,0,0,1-5.09,2.11v0a32.73,32.73,0,0,0,5.11-2.12Zm15.49-41.57s0,0,0,.05c-.3.73-.56,1.47-.8,2.22h0c.24-.74.5-1.46.79-2.18l0,0S122,107.62,121.94,107.6Zm.79,22.31c-.24.74-.5,1.46-.79,2.18a.08.08,0,0,1,0,0,30.77,30.77,0,0,1-1.3,2.87l0,0c.48-.92.91-1.87,1.3-2.84,0,0,0,0,0-.05.3-.73.56-1.47.8-2.22ZM101.36,88.47v0a33.7,33.7,0,0,1,5.09,2.11l0,0A32.73,32.73,0,0,0,101.36,88.47ZM60,129.91h0A32.73,32.73,0,0,0,62,135l0,0A33.7,33.7,0,0,1,60,129.91Z"/><path class="cls-1" d="M118.64,126.94c-.24.94-.54,1.87-.87,2.78a27.92,27.92,0,0,1-2.15,4.48c-.05.1-.1.19-.14.29a26.49,26.49,0,0,0,2.31-4.76h0a27.84,27.84,0,0,0,.94-3.06A1.33,1.33,0,0,0,118.64,126.94Zm0,0c-.24.94-.54,1.87-.87,2.78a27.92,27.92,0,0,1-2.15,4.48c-.05.1-.1.19-.14.29a26.49,26.49,0,0,0,2.31-4.76h0a27.84,27.84,0,0,0,.94-3.06A1.33,1.33,0,0,0,118.64,126.94Zm3.28-19.29c-.3.73-.56,1.47-.8,2.22h0c.24-.74.5-1.46.79-2.18A.08.08,0,0,0,121.92,107.65Zm4.17,2.4h0a27.84,27.84,0,0,0-.94,3.06,1.33,1.33,0,0,0,.1-.28c.24-.94.54-1.87.87-2.78Zm-7.45,16.89c-.24.94-.54,1.87-.87,2.78a27.92,27.92,0,0,1-2.15,4.48c-.05.1-.1.19-.14.29a26.49,26.49,0,0,0,2.31-4.76h0a27.84,27.84,0,0,0,.94-3.06A1.33,1.33,0,0,0,118.64,126.94Zm0,0c-.24.94-.54,1.87-.87,2.78a27.92,27.92,0,0,1-2.15,4.48c-.05.1-.1.19-.14.29a26.49,26.49,0,0,0,2.31-4.76h0a27.84,27.84,0,0,0,.94-3.06A1.33,1.33,0,0,0,118.64,126.94Zm0,0c-.24.94-.54,1.87-.87,2.78a27.92,27.92,0,0,1-2.15,4.48c-.05.1-.1.19-.14.29a26.49,26.49,0,0,0,2.31-4.76h0a27.84,27.84,0,0,0,.94-3.06A1.33,1.33,0,0,0,118.64,126.94Z"/><path class="cls-1" d="M91.34,102.23A17.66,17.66,0,1,0,109,119.89,17.68,17.68,0,0,0,91.34,102.23Zm0,30.57a12.91,12.91,0,1,1,12.91-12.91A12.91,12.91,0,0,1,91.34,132.8Z"/><path class="cls-1" d="M126.09,110.05h0a27.84,27.84,0,0,0-.94,3.06,1.33,1.33,0,0,0,.1-.28c.24-.94.54-1.87.87-2.78a29.73,29.73,0,0,1,2.15-4.48c.05-.1.1-.19.14-.29A26.49,26.49,0,0,0,126.09,110.05Zm-3.36,19.86c-.24.74-.5,1.46-.79,2.18l0,0c.3-.73.56-1.47.8-2.22Zm-4.09-3c-.24.94-.54,1.87-.87,2.78h0a27.84,27.84,0,0,0,.94-3.06A1.33,1.33,0,0,0,118.64,126.94Z"/><path class="cls-1" d="M152.54,102.23a17.66,17.66,0,1,0,17.67,17.66A17.68,17.68,0,0,0,152.54,102.23Zm0,30.57a12.91,12.91,0,1,1,12.91-12.91A12.92,12.92,0,0,1,152.54,132.8Z"/><path class="cls-1" d="M123.89,125.15c.14-.85.25-1.72.32-2.6C124.13,123.43,124,124.3,123.89,125.15Zm0,0c.14-.85.25-1.72.32-2.6C124.13,123.43,124,124.3,123.89,125.15Zm0,0c.14-.85.25-1.72.32-2.6C124.13,123.43,124,124.3,123.89,125.15Zm0,0c.14-.85.25-1.72.32-2.6C124.13,123.43,124,124.3,123.89,125.15Zm0,0c.14-.85.25-1.72.32-2.6C124.13,123.43,124,124.3,123.89,125.15Zm0,0c.14-.85.25-1.72.32-2.6C124.13,123.43,124,124.3,123.89,125.15Zm13.55,24,0,0a31.31,31.31,0,0,0,5.1,2.12v0A33.17,33.17,0,0,1,137.44,149.17Zm30.21,0a32.87,32.87,0,0,1-5.09,2.11v0a32.73,32.73,0,0,0,5.11-2.12Zm-5.09-60.7v0a32.87,32.87,0,0,1,5.09,2.11l0,0A32.73,32.73,0,0,0,162.56,88.47Zm-25.14,2.12,0,0a33.17,33.17,0,0,1,5.08-2.11v0A31.31,31.31,0,0,0,137.42,90.59Zm44.42,14.17,0,0a32.7,32.7,0,0,1,2.11,5.09h0A32.73,32.73,0,0,0,181.84,104.76Zm2.09,25.15a32.7,32.7,0,0,1-2.11,5.09l0,0a32.73,32.73,0,0,0,2.12-5.11Zm-60-4.76c.14-.85.25-1.72.32-2.6C124.13,123.43,124,124.3,123.89,125.15Zm-1.16,4.76c-.24.74-.5,1.46-.79,2.18a.08.08,0,0,1,0,0s0,0,0,.05,0,0,0-.05c.3-.73.56-1.47.8-2.22Zm.52-25.15a29.2,29.2,0,0,0-1.31,2.84s0,0,0,.05c-.3.73-.56,1.47-.8,2.22h0c.24-.74.5-1.46.79-2.18l0,0a28.46,28.46,0,0,1,1.31-2.87Zm.64,20.39c.14-.85.25-1.72.32-2.6C124.13,123.43,124,124.3,123.89,125.15Zm0,0c.14-.85.25-1.72.32-2.6C124.13,123.43,124,124.3,123.89,125.15Zm0,0c.14-.85.25-1.72.32-2.6C124.13,123.43,124,124.3,123.89,125.15Zm0,0c.14-.85.25-1.72.32-2.6C124.13,123.43,124,124.3,123.89,125.15Zm0,0c.14-.85.25-1.72.32-2.6C124.13,123.43,124,124.3,123.89,125.15Z"/><path class="cls-1" d="M193.13,117.34v5.1a7.48,7.48,0,0,1-7.47,7.47h-1.73a32.7,32.7,0,0,1-2.11,5.09l0,0,1.2,1.2a7.47,7.47,0,0,1,0,10.57l-3.6,3.6a7.48,7.48,0,0,1-10.57,0l-1.22-1.22a32.87,32.87,0,0,1-5.09,2.11V153a7.49,7.49,0,0,1-7.47,7.48H150a7.49,7.49,0,0,1-7.48-7.48v-1.72a33.17,33.17,0,0,1-5.08-2.11l0,0a33,33,0,0,1-11.62-10l1.51-2.42c.43-1,.66-1.5,1-2.37a29.14,29.14,0,0,0,9.61,9.61h0a1.54,1.54,0,0,1,.32.15,27.88,27.88,0,0,0,7.27,3l.3.1a2.37,2.37,0,0,1,1.48,2.2V153a2.72,2.72,0,0,0,2.72,2.72h5.09a2.72,2.72,0,0,0,2.72-2.72v-3.51a2.36,2.36,0,0,1,1.5-2.2,1.33,1.33,0,0,1,.28-.1,27.88,27.88,0,0,0,7.27-3l.29-.14h0a2.37,2.37,0,0,1,2.58.52l2.49,2.49a2.73,2.73,0,0,0,3.84,0l3.6-3.61a2.72,2.72,0,0,0,0-3.84l-.4-.4-2.09-2.08a2.4,2.4,0,0,1-.5-2.61,0,0,0,0,0,0,0c0-.09.08-.17.13-.26a27.79,27.79,0,0,0,3-7.26,2.31,2.31,0,0,1,.1-.28,2.37,2.37,0,0,1,2.21-1.51h3.51a2.71,2.71,0,0,0,2.71-2.71v-5.1a2.71,2.71,0,0,0-2.71-2.71h-3.51a2.37,2.37,0,0,1-2.21-1.51,2.31,2.31,0,0,1-.1-.28,27.79,27.79,0,0,0-3-7.26c-.05-.09-.09-.17-.13-.26a0,0,0,0,0,0,0,2.4,2.4,0,0,1,.5-2.61l2.09-2.08.4-.4a2.71,2.71,0,0,0,0-3.84l-3.6-3.61a2.73,2.73,0,0,0-3.84,0l-2.49,2.49a2.37,2.37,0,0,1-2.58.52h0l-.29-.14a27.88,27.88,0,0,0-7.27-3,1.33,1.33,0,0,1-.28-.1,2.36,2.36,0,0,1-1.5-2.2V86.78a2.72,2.72,0,0,0-2.72-2.72H150a2.72,2.72,0,0,0-2.72,2.72v3.51a2.37,2.37,0,0,1-1.48,2.2l-.3.1a27.88,27.88,0,0,0-7.27,3l-.29.14h0a28.27,28.27,0,0,0-9.49,9.5,0,0,0,0,0,0,0,26.49,26.49,0,0,0-2.31,4.76h0a27.84,27.84,0,0,0-.94,3.06c-.13.51-.24,1-.33,1.54a28.19,28.19,0,0,0-.49,5.23c0,.89,0,1.78-.11,2.66s-.18,1.75-.32,2.6l0,.19a33.08,33.08,0,0,1-1.1,4.57h0c-.24.74-.5,1.46-.79,2.18a.08.08,0,0,1,0,0,30.77,30.77,0,0,1-1.3,2.87l0,0a33.09,33.09,0,0,1-14.17,14.17l0,0a33.7,33.7,0,0,1-5.09,2.11V153a7.49,7.49,0,0,1-7.47,7.48h-5.1A7.49,7.49,0,0,1,81.32,153v-1.72a33.7,33.7,0,0,1-5.09-2.11l0,0-1.2,1.2a7.48,7.48,0,0,1-10.57,0l-3.6-3.6a7.47,7.47,0,0,1,0-10.57L62.06,135A33.7,33.7,0,0,1,60,129.91H58.23a7.49,7.49,0,0,1-7.48-7.47v-5.1a7.49,7.49,0,0,1,7.48-7.47H60a33.7,33.7,0,0,1,2.11-5.09l0,0-1.2-1.2a7.47,7.47,0,0,1,0-10.57l3.6-3.6a7.48,7.48,0,0,1,10.57,0l1.22,1.22a33.7,33.7,0,0,1,5.09-2.11V86.78a7.49,7.49,0,0,1,7.47-7.48h5.1a7.49,7.49,0,0,1,7.47,7.48V88.5a33.7,33.7,0,0,1,5.09,2.11l0,0a33.09,33.09,0,0,1,11.61,10l-1.21,2.51c-.47,1-.74,1.65-1.2,2.48a29.79,29.79,0,0,0-9.7-9.83h0l-.29-.14a27.82,27.82,0,0,0-7.26-3,1.33,1.33,0,0,1-.28-.1,2.37,2.37,0,0,1-1.51-2.2V86.78a2.71,2.71,0,0,0-2.71-2.72h-5.1a2.72,2.72,0,0,0-2.71,2.72v3.51a2.37,2.37,0,0,1-1.51,2.2,1.33,1.33,0,0,1-.28.1,27.82,27.82,0,0,0-7.26,3l-.29.14h0a2.36,2.36,0,0,1-2.57-.52l-2.09-2.09-.4-.4a2.73,2.73,0,0,0-3.84,0L64.2,96.36a2.73,2.73,0,0,0,0,3.84l.4.4,2.09,2.08a2.38,2.38,0,0,1,.52,2.58,0,0,0,0,1,0,0c0,.1-.09.19-.14.29a27.82,27.82,0,0,0-3,7.26,1.33,1.33,0,0,1-.1.28,2.37,2.37,0,0,1-2.2,1.51H58.23a2.71,2.71,0,0,0-2.72,2.71v5.1a2.72,2.72,0,0,0,2.72,2.71h3.51a2.37,2.37,0,0,1,2.2,1.51,1.33,1.33,0,0,1,.1.28,27.82,27.82,0,0,0,3,7.26c0,.1.1.19.14.29a0,0,0,0,1,0,0,2.38,2.38,0,0,1-.52,2.58l-2.09,2.08-.4.4a2.73,2.73,0,0,0,0,3.84L67.81,147a2.73,2.73,0,0,0,3.84,0l.4-.4,2.08-2.09a2.41,2.41,0,0,1,2.56-.53s0,0,0,0a1.54,1.54,0,0,1,.32.15,27.82,27.82,0,0,0,7.26,3,1.33,1.33,0,0,1,.28.1,2.37,2.37,0,0,1,1.51,2.2V153a2.72,2.72,0,0,0,2.71,2.72h5.1A2.71,2.71,0,0,0,96.6,153v-3.51a2.37,2.37,0,0,1,1.51-2.2,1.33,1.33,0,0,1,.28-.1,27.82,27.82,0,0,0,7.26-3l.29-.14h0a28.21,28.21,0,0,0,9.5-9.5,0,0,0,0,1,0,0,26.49,26.49,0,0,0,2.31-4.76h0a27.84,27.84,0,0,0,.94-3.06c.13-.51.24-1,.33-1.54a28.08,28.08,0,0,0,.49-5.22h0c0-.43,0-.87,0-1.3s0-.85.08-1.28c0-.07,0-.14,0-.2.07-.84.18-1.66.31-2.48l0-.19a33.08,33.08,0,0,1,1.1-4.57h0c.24-.74.5-1.46.79-2.18l0,0a28.46,28.46,0,0,1,1.31-2.87l0,0a31.63,31.63,0,0,1,2.55-4.17,33,33,0,0,1,11.62-10l0,0a33.17,33.17,0,0,1,5.08-2.11V86.78A7.49,7.49,0,0,1,150,79.3h5.09a7.49,7.49,0,0,1,7.47,7.48V88.5a32.87,32.87,0,0,1,5.09,2.11l0,0,1.2-1.2a7.48,7.48,0,0,1,10.57,0L183,93a7.47,7.47,0,0,1,0,10.57l-1.2,1.2,0,0a32.7,32.7,0,0,1,2.11,5.09h1.73A7.48,7.48,0,0,1,193.13,117.34Z"/><path class="cls-1" d="M124.21,122.55c-.07.88-.18,1.75-.32,2.6C124,124.3,124.13,123.43,124.21,122.55Z"/></g></svg>