<svg xmlns="http://www.w3.org/2000/svg" xmlns:xlink="http://www.w3.org/1999/xlink" viewBox="0 0 250 250"><defs><style>.cls-1{fill:none;}.cls-2{clip-path:url(#clip-path);}.cls-3{fill:#39cefd;}.cls-4{fill:#03569b;}.cls-5{fill:url(#linear-gradient);}.cls-6{fill:#16b9fd;}.cls-7{fill:url(#radial-gradient);}</style><clipPath id="clip-path"><path class="cls-1" d="M161.51,123.27l-25.59,25.59,25.59,25.6H132.27l-25.6-25.6,25.6-25.59ZM132.27,79.4,84.74,126.93l14.63,14.62L161.51,79.4Z"/></clipPath><linearGradient id="linear-gradient" x1="31253.71" y1="-42523.03" x2="31430.49" y2="-42346.26" gradientTransform="matrix(0.06, 0, 0, -0.06, -1800.14, -2453.75)" gradientUnits="userSpaceOnUse"><stop offset="0" stop-color="#1a237e" stop-opacity="0.4"/><stop offset="1" stop-color="#1a237e" stop-opacity="0"/></linearGradient><radialGradient id="radial-gradient" cx="135503.41" cy="160896.81" r="7549.51" gradientTransform="translate(-2000.36 -2392.53) scale(0.02)" gradientUnits="userSpaceOnUse"><stop offset="0" stop-color="#fff" stop-opacity="0.1"/><stop offset="1" stop-color="#fff" stop-opacity="0"/></radialGradient></defs><g id="Layer_5" data-name="Layer 5"><g class="cls-2"><path class="cls-3" d="M106.68,148.86l14.62,14.63,40.21-40.22H132.27Z"/></g><g class="cls-2"><path class="cls-3" d="M132.27,79.4h29.24L99.37,141.55,84.74,126.93Z"/></g><g class="cls-2"><path class="cls-4" d="M121.3,163.49l11,11h29.24l-25.59-25.59Z"/></g><g class="cls-2"><path class="cls-5" d="M143,156l-7.06-7.11L121.3,163.49Z"/></g><g class="cls-2"><path class="cls-6" d="M106.68,148.86l14.62-14.63,14.63,14.63L121.3,163.48Z"/></g><path class="cls-7" d="M161.51,123.27l-25.59,25.59,25.59,25.6H132.27l-25.6-25.6,25.6-25.59ZM132.27,79.4,84.74,126.93l14.63,14.62L161.51,79.4Z"/></g></svg>