<svg id="a490d581-c356-41e2-b0f0-0de4275777d8" xmlns="http://www.w3.org/2000/svg" xmlns:xlink="http://www.w3.org/1999/xlink" viewBox="0 0 1144 652.52"><defs><style>.cls-1{fill:#ffe500;}.cls-1,.cls-4,.cls-8{opacity:0.1;}.cls-1,.cls-10,.cls-4,.cls-8{isolation:isolate;}.cls-2{fill:#fffb00;}.cls-3{fill:#7e5823;}.cls-4{fill:#190000;}.cls-5{fill:#ffd800;}.cls-6{fill:#2f2e41;}.cls-7{fill:#ffb9b9;}.cls-9{fill:#6c63ff;}.cls-10{opacity:0.05;}.cls-11{fill:#f2f2f2;}.cls-12{fill:#3f3d56;}.cls-13{fill:#a0616a;}.cls-14{fill:#696791;}.cls-15{fill:#f86d70;}.cls-16{fill:#2d293d;}.cls-17{fill:url(#linear-gradient);}.cls-18{fill:#feb9b9;}.cls-19{fill:#efefef;}.cls-20{fill:#ffb8b8;}.cls-21{fill:#ccc;}.cls-22{fill:#fff;}</style><linearGradient id="linear-gradient" x1="141.77" y1="937.38" x2="141.77" y2="937.87" gradientTransform="matrix(1.22, 0.01, 0, -0.29, 143.35, 699.86)" gradientUnits="userSpaceOnUse"><stop offset="0" stop-color="gray" stop-opacity="0.25"/><stop offset="0.54" stop-color="gray" stop-opacity="0.12"/><stop offset="1" stop-color="gray" stop-opacity="0.1"/></linearGradient></defs><title>Artboard 1</title><rect class="cls-1" x="426.23" y="501.83" width="188.67" height="11.5"/><path class="cls-1" d="M471.31,345.23l-5.16,16.2q-6.94-2.22-13.4-4.77a179.86,179.86,0,0,1-18.67-27.72A189.38,189.38,0,0,0,471.31,345.23Z"/><path class="cls-1" d="M569.82,345.23A189.59,189.59,0,0,0,607,329a179.94,179.94,0,0,1-18.67,27.73q-6.45,2.55-13.39,4.76Z"/><path class="cls-1" d="M532.86,393.15a64.78,64.78,0,0,1-24.59,0,90.59,90.59,0,0,0,.63-9.32h23.33A90.59,90.59,0,0,0,532.86,393.15Z"/><path class="cls-2" d="M660,243.28l-.56,7.49c-.08,1-2,25.2-16.37,53.48-12.32,24.25-36.29,55.83-81.54,73.59q-5.29,2.09-10.95,3.9l-4.24-13.28a155.29,155.29,0,0,0,30.52-13.32c23.06-13.29,41-32.26,53.5-56.67a152.32,152.32,0,0,0,14-41.22H593V243.31Z"/><path class="cls-2" d="M465.41,368.46l-4.24,13.28q-5.7-1.83-11-3.91c-45.24-17.75-69.21-49.33-81.53-73.58-14.35-28.25-16.3-52.45-16.37-53.48l-.56-7.49h67.05v13.94H367.27a151.83,151.83,0,0,0,14.08,41.22c12.51,24.41,30.43,43.38,53.49,56.67A155.57,155.57,0,0,0,465.41,368.46Z"/><path class="cls-2" d="M583.31,496.8v75.12H428.4V496.8l4.92-6.55c50.21-17.79,60.38-64.17,62.4-82.52a74.81,74.81,0,0,0,.52-7.63h19.17c.05,2.55.22,5.1.52,7.63,2.07,18.35,12.24,64.75,62.41,82.52Z"/><path class="cls-2" d="M406.51,220.21c.35,103.31,44.68,186.87,99.35,186.87s99-83.56,99.34-186.87Z"/><rect class="cls-3" x="447.29" y="513.3" width="117.15" height="30.07"/><polygon class="cls-4" points="452.75 518.31 564.43 518.31 564.43 514.21 447.28 514.21 447.28 544.28 452.75 544.28 452.75 518.31"/><path class="cls-5" d="M465.26,302.2,497,315.41h0l-6.42,32h0l26.28-23.69h0l32.32,13.36h0l-17.42-28.42h0l23.34-22.26h0l-33.6,5.91h0l-16.64-25.2h-.05l-5.35,30"/><path class="cls-6" d="M551.79,98.08c-3.17,1.08-6,3.6-6.7,6.91-.29,1.53-.12,3.13-.36,4.67-.6,3.57-3.38,6.3-6,8.84s-5.23,5.48-5.42,9.1c-.21,4,2.66,7.68,2.16,11.61-.58,4.58-5.38,7.54-6.56,12-.8,3,.18,6.18,1.77,8.8,3,5,8.25,8.4,13.8,10.22s11.45,2.21,17.28,2.27c7.09.07,14.81-.54,20.14-5.25a16.21,16.21,0,0,0,5.36-10.57c.5-5.46-1.76-11.1-.19-16.36,1-3.3,3.45-6.32,3.08-9.75s-3.28-5.74-5.28-8.45a35,35,0,0,1-4.1-8.46L577,103.57c-.75-2-1.56-4.06-3.23-5.36-3.12-2.44-8.12-2-11.76-1.46C558.65,97.21,555.05,97,551.79,98.08Z"/><path class="cls-7" d="M553,127.45s1.68,5.5-10.94,11.85,1.26,13.12,1.26,13.12L558,155.81s15.15-2.12,16.84-4.66,4.62-11,3.78-12.27a19,19,0,0,0-2.1-2.54s-10.1-1.7-9.68-6.35S553,127.45,553,127.45Z"/><path class="cls-8" d="M553,127.45s1.68,5.5-10.94,11.85,1.26,13.12,1.26,13.12L558,155.81s15.15-2.12,16.84-4.66,4.62-11,3.78-12.27a19,19,0,0,0-2.1-2.54s-10.1-1.7-9.68-6.35S553,127.45,553,127.45Z"/><ellipse class="cls-7" cx="561.19" cy="122.58" rx="13.46" ry="13.54"/><path class="cls-9" d="M559.72,151.15S543.5,150,543.2,138.7c0,0-5.78-.67-7.47,1s-7.15,3-7.15,7.2,9.26,16.93,9.26,16.93,5,16.93,3,19.89-2.53,10.58-2.53,10.58,21-1.69,24.41,0,16.83,1.7,17.68,0-.85-22.85-.85-22.85,3.79-5.08,3-11l10.1-11.85s-3.79-11.43-9.68-11.43c0,0-8-2.11-8.21-1S578.65,149,559.72,151.15Z"/><path class="cls-7" d="M521.87,188.4s3.79,5.92,13.47,7.19,11.36-2.11,10.52-3-10.94-4.65-10.94-4.65L529,183.28Z"/><path class="cls-7" d="M590.86,183.32l-10.94,6.35s-14.31-.85-8.83,3.38,15.57,2.54,15.57,2.54l9.67-4.65Z"/><path class="cls-6" d="M536.16,194.32s-10.1,25,2.09,28.79,45.88,3,53.45-2.12,9.67-11.85,8.41-14-9.64-8-15.61-8.43S536.16,194.32,536.16,194.32Z"/><path class="cls-10" d="M536.16,194.32s-10.1,25,2.09,28.79,45.88,3,53.45-2.12,9.67-11.85,8.41-14-9.64-8-15.61-8.43S536.16,194.32,536.16,194.32Z"/><path class="cls-6" d="M583.82,195.88s35.65-13,35.23,2.68-22.73,19.89-22.73,19.89l-6.73.85-37,1.27s1.26-6.78-1.68-7.62c0,0,9.67-2.54,10.1-3s24.41-8.88,26.09-9.31,6.73-3.81,10.52-3.38c0,0,4.2-3.39,8.84-2.54l-13,.84Z"/><path class="cls-8" d="M583.82,195.88s35.65-13,35.23,2.68-22.73,19.89-22.73,19.89l-6.73.85-37,1.27s1.26-6.78-1.68-7.62c0,0,9.67-2.54,10.1-3s24.41-8.88,26.09-9.31,6.73-3.81,10.52-3.38c0,0,4.2-3.39,8.84-2.54l-13,.84Z"/><polygon class="cls-6" points="577.52 197.98 582.02 208.29 609.37 198.56 611.48 193.05 604.32 191.78 589.94 194.32 583.7 196.02 577.52 197.98"/><polygon class="cls-8" points="577.52 197.98 582.02 208.29 609.37 198.56 611.48 193.05 604.32 191.78 589.94 194.32 583.7 196.02 577.52 197.98"/><path class="cls-6" d="M519.32,210.41s8,10.16,17.25,12.7,14.31-.85,14.31-.85l-3-11.85-1.18-7.62L541.2,199l-10.94-5.08-13-4.23s-5.47-.85-5.47,0,5,13.54,5,13.54Z"/><path class="cls-11" d="M529,215.91s1.68,12.27,3.81,13.09,8.41-.85,10.1-1.69,7.4-4.75,7.4-4.75S530.26,215.06,529,215.91Z"/><polygon class="cls-7" points="567.29 217.18 575.29 218.45 574.44 228.19 563.29 225.46 567.29 217.18"/><path class="cls-11" d="M572.3,219.89s-3.74,4.49,0,7l2.53,2.11s8.41,1.69,9.26,2.54,4.2-1.27,4.2-1.27.42-12.7,0-13.54-5.47-1.7-5.89-.85-5.47,2.12-8.42,1.27Z"/><path class="cls-6" d="M538.67,197.29s-29.45-17.36-34.08-11-9.67,15.24,3.79,22S563.92,229,563.92,229s6.32-9.73,6.32-12.27c0,0-22.3-10.16-26.09-11s-18.89-10.58-21-11.43a24.68,24.68,0,0,1-5-3.38Z"/><path class="cls-9" d="M530.26,144.8l-1.68,1.27s-3.79,9.74-4.21,15.24-5.47,22.43-5,24.55a8.69,8.69,0,0,0,3.37,5.92s3.37-7.61,9.25-6.34l7.16-26.25Z"/><path class="cls-9" d="M589.18,144.8l3.36,3.81s2.1,5.08,2.1,6.35,4.21,19.89,4.63,20.74,2.1,11.43,0,14a18.7,18.7,0,0,1-5.89,4.23s2.53-8.89-5.47-9.31l.84-3.39-7.58-25.39Z"/><path class="cls-12" d="M531.11,173.94v22.3a5.34,5.34,0,0,0,5.25,5.36l46.34.69a5.35,5.35,0,0,0,5.41-5.15l.85-22.3a5.35,5.35,0,0,0-5.1-5.56h-.14l-47.22-.69a5.33,5.33,0,0,0-5.39,5.29h0Z"/><ellipse class="cls-6" cx="561.98" cy="114.3" rx="14.5" ry="7.85"/><ellipse class="cls-11" cx="559.51" cy="185.65" rx="3.37" ry="3.39"/><path class="cls-13" d="M630,382.12A33.17,33.17,0,0,1,632.23,369a13.11,13.11,0,0,0,1.28-5,11.71,11.71,0,0,0-1.63-4.5,111.43,111.43,0,0,1-6-15.49l-3.37-9.91a15.77,15.77,0,0,1-3-2.63,13.62,13.62,0,0,1-3.43-6.88,9.26,9.26,0,0,1,1.89-7.27,4.56,4.56,0,0,1,3.16-1.81,4.21,4.21,0,0,1,3,1.27,12.31,12.31,0,0,1,2.53,4.06c1.1,2.43,2.21,5,2.11,7.6-.09,2.19-1,4.64.41,6.42,4.46,5.83,7.85,12.54,11.39,18.92a31.39,31.39,0,0,1,2.3,4.74A24.8,24.8,0,0,1,644,366.7a107.7,107.7,0,0,1-1.48,15.5c-.48,3.22-1.1,6.73-3.69,8.86A51.87,51.87,0,0,0,630,382.12Z"/><ellipse class="cls-13" cx="612.92" cy="371.45" rx="13.96" ry="13.14"/><path class="cls-13" d="M619.68,385.29c.34,2.37,1.69,4.5,3,6.55.79,1.27,1.81,2.62,3.36,2.76a70.42,70.42,0,0,1-12.68,4.8,15.11,15.11,0,0,1-4.63.7,11.8,11.8,0,0,1-3.85-.93,18.41,18.41,0,0,1-10.9-12,27.3,27.3,0,0,0,5.19-.37,4,4,0,0,0,2.54-1.18,3.61,3.61,0,0,0,.53-2.12c.07-2.19.07-4.39,0-6.58a29.48,29.48,0,0,1,10.15,1.18c1.34.41,2.69.91,4,1.23.85.2,3.19,0,3.81.46C621.27,380.46,619.45,383.67,619.68,385.29Z"/><path class="cls-12" d="M597.52,594a5.74,5.74,0,0,0-2.94.9,3.86,3.86,0,0,0-1.22,2.11,5.29,5.29,0,0,0,.81,4.69,5.55,5.55,0,0,0,2.28,1.61c3.11,1.26,6.67.34,9.91-.58l12.71-3.6a4.41,4.41,0,0,0,2.07-1,2.54,2.54,0,0,0,.05-3.08,6.3,6.3,0,0,0-2.69-2c-4-1.81-8.41-2.22-12.75-2.3-1.61,0-3.21-.37-4.3.8-.58.64-.47,1.31-1.35,1.85A6.2,6.2,0,0,1,597.52,594Z"/><path class="cls-12" d="M621.53,587.41a5.74,5.74,0,0,0-2.95.9,3.89,3.89,0,0,0-1.22,2.1,5.36,5.36,0,0,0,.81,4.71,5.67,5.67,0,0,0,2.28,1.59c3.11,1.27,6.67.35,9.92-.57l12.7-3.6a4.38,4.38,0,0,0,2.07-1,2.52,2.52,0,0,0,.05-3.07,6.32,6.32,0,0,0-2.69-2c-4-1.81-8.41-2.23-12.75-2.3-1.62,0-3.2-.36-4.31.81-.58.63-.47,1.3-1.34,1.84A6.19,6.19,0,0,1,621.53,587.41Z"/><path class="cls-14" d="M610.48,453.87a167.91,167.91,0,0,1,22.54-.59,4.82,4.82,0,0,1,1.46.21c1.65.64,1.91,2.68,2.06,4.34.68,6.77,3.81,13.07,5.39,19.69a53.39,53.39,0,0,1,1.25,12.66,41.69,41.69,0,0,0,.11,5.7c.2,1.69.67,3.35.93,5a44.39,44.39,0,0,1,.31,6.82,65.81,65.81,0,0,1-.64,10.68c-1,6,.78,12,1.26,18.14a101,101,0,0,0,1.53,12.73c.37,1.78.83,3.54,1.09,5.33.75,5.33-.35,10.81.84,16.07.55,2.45,1.55,5.21.08,7.32-.46.63-1.13,1.17-1.63,1.81a2.15,2.15,0,0,0-.47,2.22c.29.58,1,1,1.13,1.57.26,1-.81,1.76-1.78,2.17-7.3,3.11-16.72.92-21.64-5,.85-.13,1.88-.71,1.9-1.52a8,8,0,0,0-.55-2.35,8.91,8.91,0,0,1-.19-4.2c.19-1,.54-1.9.76-2.88a27.21,27.21,0,0,0,.4-3.25A50.9,50.9,0,0,1,629.06,555c1.23-3.64-.44-7.33-.88-11.13-.2-1.8-.11-3.65-.78-5.35-.4-1-1.06-1.9-1.45-2.9-.93-2.34-.37-4.93.18-7.36-4-6.76-5.3-14.81-6.8-22.41l-2.52-12.79a12.14,12.14,0,0,0-2-5.4,62.29,62.29,0,0,0-1.53,17.21,23.79,23.79,0,0,1-.07,5,55.88,55.88,0,0,1-1.6,5.36c-1,4-.43,8.14-.67,12.23-.09,1.65-.32,3.29-.39,4.94-.33,7.3,2.28,14.39,4.86,21.27,1.58,4.23,1.93,9,2.69,13.45.67,4.23,1.42,8.47,1.78,12.74.33,3.93.47,8.18,3.07,11.26a22.59,22.59,0,0,1-7.6,3.43,14.85,14.85,0,0,1-9.37-1.71,29.23,29.23,0,0,1-7.4-5.92c.54-.18.74-.93.79-1.47.81-8-2.43-15.83-3.65-23.81a48.27,48.27,0,0,1-.32-12.07c.15-1.51.37-3,.43-4.54.33-7.92-3.73-15.55-3.58-23.48.06-3.72-2-7.38-3-11a37.05,37.05,0,0,1-.93-9.81l-.17-26c0-3.51,0-7.1,1.2-10.41,1.48-4-.21-8.57-.47-12.79A59.09,59.09,0,0,0,610.48,453.87Z"/><path class="cls-13" d="M586.49,379.28a81.72,81.72,0,0,0-10.3-15.3A25.78,25.78,0,0,1,573.9,361c-1.44-2.37-1.87-5.14-2.79-7.72-2.56-7.25-8.93-13.07-10.49-20.56-.56-2.72-2.41-5.06-3.67-7.6-.86-1.69-1.8-3.47-3.51-4.43a6.26,6.26,0,0,0-7.07,1,7.57,7.57,0,0,0-2.17,6.68,5.56,5.56,0,0,0,1.35,3,11.79,11.79,0,0,0,3.75,2.12,14.16,14.16,0,0,1,7.24,7.78c2.24,6.11,2.53,12.58,5.38,18.48s6.2,11.57,8.67,17.6c1.4,3.43,2.51,7,4.57,10.13s5.25,5.82,9.12,6.3a19.72,19.72,0,0,1,1.1-6.76C586.22,384.58,587.71,381.64,586.49,379.28Z"/><path class="cls-15" d="M611.66,395.17a8.44,8.44,0,0,1,6.69-7.35c1.44-.31,3-.27,4.29-.94,2.2-1.16,2.87-4,5-5.28s5.13-.58,7,1.06a13.86,13.86,0,0,1,3.53,6.26,29.84,29.84,0,0,1,1.81,9.6,4.19,4.19,0,0,1-.29,1.75,7.41,7.41,0,0,1-1.5,1.76,7.46,7.46,0,0,0-2,6.18,16.71,16.71,0,0,1-.59,6.21c-1.35,5.58-2.7,11.16-3.78,16.8a9.9,9.9,0,0,0-.25,3.16c.21,1.53,1.1,3,.91,4.5A15.85,15.85,0,0,0,632,441a5,5,0,0,0,.4,1.6c1.53,4.17,5.65,13.74,5.61,18.16-7.17-1.73-17.73-2.12-25.13-2.15a59.14,59.14,0,0,0-6.1.25c-4.86.5-9.84,1.83-14.56.6-4.38-1.15-8.26-4.43-12.78-4-1-2.42.17-10.5,1.09-12.94a52.17,52.17,0,0,0,2-30c-.83-3.58.31-7.39-.61-10.95a6.33,6.33,0,0,0-1-2.36,2.72,2.72,0,0,0-2.3-1.13,75.85,75.85,0,0,1,1.68-17.06c.44-2,1.35-4.35,3.52-4.69,1.92-.31,3.54,1.22,5.09,2.34a13.9,13.9,0,0,0,5.38,2.38,5.39,5.39,0,0,1,2.21.76c.92.73,1,2,1.81,2.9,1.34,1.58,4.35,1.45,5.31,3.27a12,12,0,0,1,.5,1.65,6.13,6.13,0,0,0,2.22,2.7A12.75,12.75,0,0,0,611.66,395.17Z"/><path class="cls-16" d="M601.57,357.48a2.3,2.3,0,0,1,.54-2.48c.37-.27.86-.37,1.25-.63a5.17,5.17,0,0,0,1.35-1.6,7.6,7.6,0,0,1,9.15-2.19c2.42,1.2,3.89,3.59,6,5.21,1.1.83,2.37,1.45,3.47,2.29a13.44,13.44,0,0,1,4.51,6.85,36.92,36.92,0,0,1,1.24,8.08,7,7,0,0,1-.1,2.46,6.63,6.63,0,0,1-1,1.9,22,22,0,0,1-8.82,7.67,14.35,14.35,0,0,1-11.74.19,2,2,0,0,1-.91-.68,2.36,2.36,0,0,1-.14-1.46,9.48,9.48,0,0,0-1.17-5.6c-.67-1.27-1.68-2.36-2.22-3.67a12.13,12.13,0,0,1-.63-4.54C602.35,365.29,602.64,361.32,601.57,357.48Z"/><g id="Group_22" data-name="Group 22"><g id="Group_1" data-name="Group 1"><path id="Rectangle_77" data-name="Rectangle 77" class="cls-12" d="M359.44,315.38H360a1.18,1.18,0,0,1,1.22,1.13l-.1,10.93a1.16,1.16,0,0,1-1.23,1.11h-.52a1.19,1.19,0,0,1-1.22-1.14l.09-10.92A1.19,1.19,0,0,1,359.44,315.38Z"/><path id="Rectangle_78" data-name="Rectangle 78" class="cls-12" d="M359.13,339.5H360a1.18,1.18,0,0,1,1.22,1.14l-.17,20.67a1.18,1.18,0,0,1-1.24,1.12h-.89a1.17,1.17,0,0,1-1.22-1.13l.17-20.68A1.19,1.19,0,0,1,359.13,339.5Z"/><path id="Rectangle_79" data-name="Rectangle 79" class="cls-12" d="M358.93,370.46h.73a1.19,1.19,0,0,1,1.22,1.14l-.18,20.87a1.19,1.19,0,0,1-1.24,1.12h-.73a1.18,1.18,0,0,1-1.22-1.14l.18-20.87A1.17,1.17,0,0,1,358.93,370.46Z"/><path id="Path_190" data-name="Path 190" class="cls-17" d="M317.67,431.26a.6.6,0,0,0,.65.09A2.43,2.43,0,0,1,317.67,431.26Z"/><path id="Path_192" data-name="Path 192" class="cls-18" d="M342.25,440.3l-.67,3.21-.52,2.45-.94,4.49-8.8,5.54-2.08-1.61c-3.57-2.74-11.06-8.31-16.58-11.32a19.36,19.36,0,0,0-4.57-2Z"/><path id="Path_194" data-name="Path 194" class="cls-12" d="M335.81,442.64s10.19,1.69,10.83-2.3-5.21-6.2-10.17-6.51-34.75,1.32-34.75,1.32-5.31,6.37,13.66,7.6Z"/><rect id="Rectangle_82" data-name="Rectangle 82" class="cls-6" x="303.28" y="313.08" width="58.03" height="53.42" transform="translate(-10.28 669.22) rotate(-89.52)"/><rect id="Rectangle_83" data-name="Rectangle 83" class="cls-8" x="303.27" y="313.34" width="58.03" height="53.42" transform="translate(-10.54 669.48) rotate(-89.52)"/><path id="Path_198" data-name="Path 198" class="cls-18" d="M242.38,409.36a8.69,8.69,0,0,0-3.27,2.09c-5.42,4.83-13.23,16.23-13.23,16.23-9.77-10.84,1.21-19.25,5.89-22.13,1.13-.7,1.9-1.08,1.9-1.08Z"/><path id="Path_199" data-name="Path 199" class="cls-18" d="M342.6,329.18s2.48,16.87,11.5,20.95-11.77,11.41-11.77,11.41l-28.24-9.87s16.1-4.68,13-18.88Z"/><path id="Path_200" data-name="Path 200" class="cls-18" d="M311.39,430.27l-.67,3.19-.54,2.46-.94,4.49L300.43,446s-.78-.62-2.07-1.61c-3.57-2.74-11.07-8.31-16.59-11.32a19.36,19.36,0,0,0-4.57-2Z"/><path id="Path_202" data-name="Path 202" class="cls-6" d="M303.78,434.15s9.16.14,9.75-3.86-4.94-6.2-9.66-6.51-33.43,1.45-33.43,1.45-4.13,7.53,13.91,8.76Z"/><path id="Path_204" data-name="Path 204" class="cls-12" d="M367.51,497.62l-1.2-.55-1.06-1.26-14-16.52v.28c-.12,2.74-1.32,24.45-9.27,26.38-8.48,2.07-18.69,2.52-23.23-12s-12.77-46.1-21.49-48.05l13.07-9.65s8.53,9.29,12,18.14c-.13-.54-5.86-26-.94-30.48l42.62.36s6.44,17.22,10.88,25.76c3.45,6.64,8.59,22.29,11.9,32.89S378.15,502.53,367.51,497.62Z"/><path id="Path_205" data-name="Path 205" class="cls-8" d="M366.87,429.13c-6.61,3.51-35.49,1.81-44.88,1.16l-2.56-.2c-.28,0,0-.14,0-.14l.29-2.42,7.14-16.25,37.67-19.61c-.78,2.09-1.05,5.3-1,9C363.62,412.46,366.87,429.13,366.87,429.13Z"/><path id="Path_206" data-name="Path 206" class="cls-19" d="M366.87,428.32c-6.61,3.51-35.48,1.82-44.87,1.16l-2.56-.19-.43,0,.47-.11,2.31-.53,5.11-18.14,37.68-19.6a27.39,27.39,0,0,0-1,9C363.63,411.66,366.87,428.32,366.87,428.32Z"/><path id="Path_207" data-name="Path 207" class="cls-8" d="M363.53,399.85c-7.64,1.54-24.47,6.13-31,17.49-4.37,7.57-8,10.8-10.55,12.14l-2.56-.19s0-.09,0-.14l2.31-.53,5.11-18.14,37.67-19.6A27.88,27.88,0,0,0,363.53,399.85Z"/><path id="Path_208" data-name="Path 208" class="cls-8" d="M233.67,404.48l8.71,4.88a8.69,8.69,0,0,0-3.27,2.09c-.71-2-5.27-4.72-7.34-5.9C232.9,404.86,233.67,404.48,233.67,404.48Z"/><path id="Path_209" data-name="Path 209" class="cls-8" d="M317.85,429.59a.55.55,0,0,1-.6-.08A2.06,2.06,0,0,0,317.85,429.59Z"/><path id="Path_210" data-name="Path 210" class="cls-9" d="M338.35,348.93s-7.9.74-13.4-4.66c0,0-23.38,6-31.4,19.8s-62,40.66-62,40.66,9.31,4.89,8.41,7.29l35.48-18.43s12.63-8.18,16.13-10,22.89-13.18,26.71,18.14-.23,27.54-.23,27.54,5.82,1.92,14.41-13,34.89-18.16,34.89-18.16L369,382.35s5.3-10.41,1.32-14.79A9,9,0,0,1,368,363c-.63-4,.09-10.68,9.43-16.15,14.38-8.44,20-15.34,20-15.34s.34-5.08-8.4-7.56-44.24-15.88-44.24-15.88l-1.23,4.53L371.48,331s-14.09,10.29-25.21,9.94C346.27,341,348.27,348.75,338.35,348.93Z"/><path id="Path_211" data-name="Path 211" class="cls-8" d="M343.86,336.52A46.4,46.4,0,0,1,342.3,330l-15.5,3.61a14.23,14.23,0,0,1-.43,8.17A17.51,17.51,0,0,0,343.86,336.52Z"/><ellipse id="Ellipse_10" data-name="Ellipse 10" class="cls-18" cx="331.09" cy="326.28" rx="15.24" ry="16.64" transform="translate(2.05 654.62) rotate(-89.52)"/><path id="Path_213" data-name="Path 213" class="cls-8" d="M348.16,449.16s9.48,17.46,6.52,22.78"/><path id="Path_221" data-name="Path 221" class="cls-6" d="M340.23,291.15c4.62.52,9,2.37,13.53,3.4a7.15,7.15,0,0,0,3.5.15c1.77-.48,3.22-2.16,5.05-2.1a5.84,5.84,0,0,1,3,1.44,36.44,36.44,0,0,1,4.16,3.45c3.11,3.15,5,7.36,7.85,10.78s6.87,7.42,10.95,5.9c-2.85,9.84-11.52,15.94-21.32,16.47-3.91.22-7.9-.56-11.69.45a11,11,0,0,1-3,.64c-2.17,0-3.91-1.87-5.25-3.66-3.15-4.21-5.63-9-9.18-12.83a7.73,7.73,0,0,0-4.23-2.74,8.38,8.38,0,0,0-4.71,1.18,22.22,22.22,0,0,0-6.92,4.32c-1.92,2-3.15,5-2.39,7.65.42,1.47,1.38,2.79,1.38,4.31,0,2.44-2.34,4.19-2.82,6.55a21.52,21.52,0,0,0-.14,3c-.23,3.24-2.57,5.87-5,7.89a5.78,5.78,0,0,0-2.29,2.85c-.19.84,0,1.72-.14,2.57-.37,2.1-2.67,3.15-4.7,3.41a14.66,14.66,0,0,1-7-.82,7.2,7.2,0,0,0,4-7.82c-.86-4.35-5.6-7.51-5.15-11.92a12.82,12.82,0,0,1,1.35-3.9,33.8,33.8,0,0,0,2.31-7.38,11.56,11.56,0,0,0-.09-5.9,17.92,17.92,0,0,0-2.87-4.52,24.6,24.6,0,0,1-3.31-6.34,4.11,4.11,0,0,1-.31-2.1,4.26,4.26,0,0,1,1.48-2.15c2.63-2.48,5.43-5.06,8.93-5.75a21.15,21.15,0,0,1,5-.13,67.37,67.37,0,0,0,8.76-.27c2.39-.24,6.44-.17,8.48-1.57s3-3,5.31-3.8a17,17,0,0,1,7.39-.71Z"/></g></g><path class="cls-20" d="M669.57,342.83a6.71,6.71,0,0,0-8.75,10l8.28,19.88,7.61-5.76-6.06-14a6.33,6.33,0,0,0,.73-.91,6.67,6.67,0,0,0-1.81-9.26Z"/><path class="cls-21" d="M708.07,350.74a9.28,9.28,0,0,1,.06,13.13L688,384.13a11.92,11.92,0,0,1-2,1.64h0a12,12,0,0,1-3,1.41,12.12,12.12,0,0,1-15.13-8L663.53,365l0-.07a2.85,2.85,0,0,1,2-3.51l7-2a2.85,2.85,0,0,1,3.4,1.64l4.29,10.25L694,352a9.29,9.29,0,0,1,12.59-2.44h0A8.53,8.53,0,0,1,708.07,350.74Z"/><path class="cls-12" d="M664.61,327.83h0l10.06,1.87a2.17,2.17,0,0,1,1.78,2.05l.91,23.49a1.51,1.51,0,0,1,0,.3,1.75,1.75,0,0,1-2,1.51l-10.44-1.41a2.3,2.3,0,0,1-2-2.31l.07-16.47-.23,0v-3.13H663l0-4.6a1.34,1.34,0,0,1,1.35-1.33Z"/><path class="cls-22" d="M673.26,329.94l1.17.21a1.51,1.51,0,0,1,1.23,1.44l.74,23.26a.61.61,0,0,1,0,.14.93.93,0,0,1-1,.82l-10.44-1.24a1.21,1.21,0,0,1-1.06-1.2l.12-23.89a1.1,1.1,0,0,1,0-.18,1,1,0,0,1,1.23-.85l1.11.21a.5.5,0,0,1,.41.45h0a.42.42,0,0,0,.36.39l5.29,1A.74.74,0,0,0,673.26,329.94Z"/><polygon class="cls-20" points="691.37 526.28 679.37 525.93 682.33 557.4 690.46 557.64 691.37 526.28"/><path class="cls-6" d="M666.43,564.49h0a9.88,9.88,0,0,1,10.16-9.58l15.68.46h0l-.29,9.87h0l-25.55-.75Z"/><polygon class="cls-20" points="716.36 527.01 704.36 526.66 707.31 558.13 715.44 558.37 716.36 527.01"/><path class="cls-6" d="M691.41,565.22h0a9.88,9.88,0,0,1,10.16-9.58l15.68.45h0L717,566h0l-25.55-.75Z"/><circle class="cls-20" cx="698.52" cy="321.13" r="17.47"/><path class="cls-6" d="M685.52,405.86a2.94,2.94,0,0,0,0,.42,2.86,2.86,0,0,0,3.07,2.61l21.71-1.72,10.1-25.56a35.92,35.92,0,0,0,.11-26.68,27.4,27.4,0,0,0-5.32-8.53c-3.82-4-8.79-3.15-13.38-.62a26.92,26.92,0,0,0-13.64,21.82Z"/><path class="cls-6" d="M686.79,406.29,678,548.2h0a2.84,2.84,0,0,0,2.67,3l7.92.49a2.85,2.85,0,0,0,3-2.52l4.89-43a.71.71,0,0,1,.65-.63.72.72,0,0,1,.77.66l3.57,44.92a2.85,2.85,0,0,0,3,2.62l9.46-.52a2.83,2.83,0,0,0,2.69-2.87c-.21-15.41-1-91.64,3.45-114.47,5-25.44-11-31.95-11-31.95Z"/><path class="cls-6" d="M696.33,340.48c9,4.07,20.85-.51,24.77-9.55,2.41-5.59,4.44-11.52,4.27-17.61s-2.88-12.39-8.11-15.52-13-2-16.11,3.24A12.66,12.66,0,1,0,695,319.88,16.83,16.83,0,0,1,696.33,340.48Z"/><path id="b77c6965-cdfc-4713-bd9a-03fafd9c7c98" class="cls-9" d="M670.75,345a.68.68,0,0,1-.56-.3l-2.81-3.89a.72.72,0,0,1,.16-1v0h0a.73.73,0,0,1,1,.16l2.39,3.32,1.07-.78a.72.72,0,1,1,.85,1.17l-1.66,1.2h0a.68.68,0,0,1-.43.13Z"/><path class="cls-20" d="M675.31,378.94a6.71,6.71,0,0,0,3.25,12.92l21,4.55-.38-9.53-15-3a6.57,6.57,0,0,0-.32-1.13,6.69,6.69,0,0,0-8.64-3.8Z"/><path class="cls-21" d="M703.78,351.85a9.29,9.29,0,0,1,10.82,7.45l5.16,28.06A12,12,0,0,1,720,390h0a12.1,12.1,0,0,1-15.8,11.11l-14.08-4.51-.07,0a2.85,2.85,0,0,1-1.75-3.63l2.38-6.86a2.85,2.85,0,0,1,3.28-1.85l10.87,2.33-8.06-22.41a9.29,9.29,0,0,1,5.18-11.73h0A9.63,9.63,0,0,1,703.78,351.85Z"/></svg>