<svg width="2040" height="253" viewBox="0 0 2040 253" fill="none" xmlns="http://www.w3.org/2000/svg">
<path fill-rule="evenodd" clip-rule="evenodd" d="M1826.11 239.194L1832.36 234.982L1773.63 206.486C1767.82 203.649 1762.02 200.802 1756.23 197.945C1750.64 195.179 1744.69 192.144 1738.99 188.691C1733.23 185.177 1727.87 181.046 1723.01 176.372C1718.36 171.904 1713.73 166.672 1708.83 160.382C1706 156.736 1703.15 152.949 1700.4 149.286C1698.77 147.119 1697.14 144.956 1695.5 142.798C1690.59 136.331 1686.03 131.072 1681.55 126.718C1679.83 125.039 1678.02 123.449 1676.13 121.956C1676 121.859 1675.88 121.756 1675.76 121.659C1675.58 121.517 1675.39 121.388 1675.21 121.249C1672.81 119.412 1670.27 117.76 1667.62 116.309C1667.2 116.085 1666.79 115.877 1666.37 115.665C1666.11 115.535 1665.86 115.396 1665.6 115.271L1665.52 115.23C1659.93 112.517 1653.54 110.674 1646.53 109.75C1644.1 109.432 1641.65 109.193 1639.2 109.033C1638.79 109.008 1638.37 108.989 1637.96 108.964C1637.5 108.938 1637.05 108.908 1636.58 108.886C1636.14 108.866 1635.68 108.852 1635.23 108.836C1634.78 108.818 1634.33 108.797 1633.87 108.784C1633.37 108.77 1632.85 108.762 1632.34 108.752C1631.92 108.744 1631.5 108.732 1631.07 108.725C1630.57 108.72 1630.05 108.721 1629.54 108.718C1629.08 108.718 1628.63 108.711 1628.16 108.713C1627.18 108.716 1626.18 108.725 1625.15 108.743C1624.87 108.749 1624.59 108.756 1624.3 108.76C1622.04 108.803 1619.77 108.85 1617.49 108.902C1612.74 109.006 1607.83 109.115 1603.03 109.137H1602.92C1602.5 109.139 1602.09 109.135 1601.68 109.134C1598.13 109.128 1594.76 109.034 1591.57 108.835C1590.92 108.795 1590.29 108.748 1589.65 108.7C1589.41 108.682 1589.17 108.668 1588.93 108.649C1586.32 108.439 1583.82 108.159 1581.4 107.812C1574.66 106.834 1568.04 105.122 1561.67 102.707C1555.76 100.457 1550.14 97.895 1543.52 94.742C1537.61 91.9214 1531.71 89.0914 1525.81 86.252L1468.47 58.427L1468.99 65.925L1524.72 92.955C1530.03 95.507 1535.34 98.062 1540.66 100.601C1546.32 103.296 1552.4 106.136 1558.62 108.643C1564.89 111.153 1571.29 113.052 1577.64 114.288C1583.97 115.51 1590.76 116.239 1598.4 116.518C1604.38 116.732 1610.55 116.776 1616.52 116.818L1620.24 116.846C1628.5 116.913 1635.52 117.386 1641.7 118.296C1648.86 119.346 1655.42 121.304 1661.21 124.11L1661.32 124.163C1667.06 126.964 1672.61 130.88 1677.83 135.804C1682.35 140.077 1687.04 145.269 1692.17 151.677L1694.7 154.832C1698.32 159.372 1702.07 164.069 1705.83 168.515C1710.72 174.315 1715.44 179.173 1720.25 183.371C1722.7 185.501 1725.26 187.512 1727.9 189.399C1730.08 190.959 1732.36 192.429 1734.69 193.838C1735.21 194.15 1735.71 194.478 1736.23 194.782C1741.95 198.089 1747.86 201.08 1753.4 203.818C1758.93 206.548 1764.46 209.256 1769.98 211.956L1770.79 212.354L1775.14 214.467L1826.11 239.194V239.194ZM1817.95 244.701L1824.19 240.49L1769.91 214.153L1769.91 214.151L1769.09 213.751C1763.58 211.049 1758.05 208.341 1752.51 205.61C1746.97 202.871 1741.04 199.873 1735.22 196.51C1734.86 196.298 1734.5 196.078 1734.14 195.863C1731.61 194.35 1729.13 192.736 1726.73 191.023C1724.04 189.1 1721.43 187.05 1718.94 184.878C1714.05 180.608 1709.26 175.678 1704.3 169.805C1700.53 165.341 1696.77 160.637 1693.14 156.09L1690.61 152.925C1685.55 146.601 1680.91 141.476 1676.45 137.255C1675.82 136.661 1675.18 136.078 1674.53 135.505C1670.17 131.655 1665.58 128.533 1660.87 126.185C1660.69 126.095 1660.52 125.997 1660.34 125.91C1654.74 123.195 1648.37 121.3 1641.41 120.276C1635.32 119.381 1628.39 118.914 1620.22 118.847L1616.56 118.821C1610.56 118.778 1604.35 118.734 1598.33 118.517C1590.59 118.237 1583.69 117.497 1577.26 116.253C1570.78 114.992 1564.26 113.056 1557.88 110.5C1556.31 109.868 1554.75 109.217 1553.2 108.548C1548.74 106.626 1544.4 104.595 1540.28 102.632C1540.12 102.558 1539.96 102.482 1539.8 102.407C1534.6 99.925 1529.41 97.431 1524.23 94.94L1523.76 94.716C1523.43 94.558 1523.11 94.401 1522.78 94.242L1522.05 93.892L1516.23 91.07L1516.1 91.006L1492.39 79.502L1469.16 68.23L1469.69 75.73L1504.93 92.83L1519.73 100.013L1524.84 102.471C1527.28 103.641 1529.72 104.813 1532.16 105.982C1533.75 106.744 1535.35 107.51 1536.94 108.27C1542.55 110.946 1548.6 113.789 1554.85 116.44C1561.2 119.122 1567.33 121.18 1573.59 122.733C1579.89 124.281 1586.7 125.407 1593.82 126.075C1600.91 126.741 1608.13 127.111 1615.12 127.469C1623.45 127.899 1630.15 128.591 1636.21 129.65C1643.27 130.886 1649.78 132.932 1655.56 135.73L1655.69 135.795C1661.42 138.589 1667 142.403 1672.29 147.135C1676.87 151.239 1681.54 156.049 1686.98 162.273C1691.58 167.539 1696.34 172.986 1701.14 178.047C1706.02 183.2 1711.06 187.827 1716.11 191.795C1721.07 195.685 1726.56 199.312 1732.43 202.571C1732.72 202.732 1733.01 202.891 1733.3 203.051C1735.01 203.985 1736.73 204.903 1738.45 205.806C1738.85 206.016 1739.25 206.222 1739.65 206.429C1740.96 207.111 1742.28 207.787 1743.6 208.456C1745.62 209.476 1747.65 210.486 1749.68 211.487C1755.48 214.347 1761.27 217.181 1767.05 220.008L1817.95 244.701V244.701ZM1809.78 250.211L1816.03 245.998L1766.19 221.817C1760.38 218.982 1754.59 216.137 1748.79 213.282C1746.75 212.277 1744.72 211.262 1742.69 210.237L1742.46 210.119C1741.21 209.484 1739.96 208.844 1738.71 208.197L1737.52 207.577C1735.79 206.67 1734.06 205.745 1732.34 204.804C1732.04 204.642 1731.75 204.488 1731.45 204.324C1725.49 201.009 1719.91 197.324 1714.87 193.37C1709.75 189.342 1704.64 184.651 1699.68 179.425C1694.86 174.335 1690.08 168.873 1685.47 163.591C1680.09 157.43 1675.47 152.676 1670.95 148.628C1665.76 143.984 1660.26 140.238 1654.68 137.533C1649.07 134.815 1642.74 132.827 1635.86 131.623C1629.88 130.577 1623.25 129.893 1615.01 129.47C1608 129.11 1600.74 128.737 1593.63 128.068C1586.4 127.391 1579.5 126.249 1573.11 124.677C1566.75 123.101 1560.52 121.01 1554.07 118.285C1547.75 115.603 1541.69 112.755 1536.07 110.078C1530.7 107.51 1525.34 104.931 1519.98 102.355L1518.33 101.561L1469.84 78.031L1470.36 85.531L1533.19 116.014L1536.76 117.673C1541.44 119.849 1546.29 122.101 1551.09 124.233C1557.51 127.062 1563.55 129.314 1569.58 131.12C1575.76 132.962 1582.38 134.474 1589.26 135.616C1596.16 136.752 1603.26 137.591 1609.9 138.329C1618.13 139.243 1624.67 140.251 1630.49 141.501C1637.43 142.992 1643.87 145.161 1649.62 147.95L1649.75 148.015C1655.46 150.798 1661.09 154.478 1666.5 158.955C1671.09 162.757 1675.91 167.25 1681.66 173.092C1687.09 178.604 1691.68 183.172 1696.45 187.545C1701.55 192.215 1706.78 196.457 1711.99 200.155C1717.07 203.752 1722.51 207.091 1728.63 210.358C1734.86 213.668 1741.16 216.8 1745.95 219.161C1751.45 221.866 1756.94 224.551 1762.42 227.229L1763.35 227.684L1809.78 250.211V250.211ZM1529.48 78.571L1467.79 48.638L1468.31 56.124L1526.65 84.428C1532.55 87.2753 1538.46 90.111 1544.38 92.935C1550.98 96.077 1556.56 98.621 1562.38 100.837C1568.62 103.2 1575.09 104.875 1581.69 105.832C1588.04 106.746 1594.98 107.172 1602.91 107.137C1603.23 107.137 1603.55 107.129 1603.87 107.127C1605.97 107.113 1608.08 107.09 1610.2 107.052C1610.96 107.038 1611.71 107.02 1612.47 107.004C1614.15 106.97 1615.84 106.937 1617.49 106.9C1620.04 106.844 1622.58 106.787 1625.12 106.744C1633.4 106.6 1640.49 106.934 1646.8 107.768C1654.01 108.718 1660.61 110.624 1666.4 113.431L1666.51 113.486C1672.26 116.288 1677.79 120.256 1682.95 125.284C1687.5 129.708 1692.12 135.041 1697.1 141.588C1698.71 143.714 1700.32 145.854 1701.93 147.993C1704.7 151.679 1707.56 155.49 1710.41 159.154C1715.25 165.377 1719.83 170.537 1724.4 174.931C1729.16 179.503 1734.4 183.544 1740.04 186.982C1745.68 190.404 1751.58 193.412 1757.12 196.152C1762.9 199.004 1768.69 201.846 1774.48 204.677L1834.28 233.688L1840.52 229.478L1777.34 198.827L1776.53 198.429C1771.01 195.727 1765.48 193.019 1759.95 190.289C1754.37 187.531 1748.42 184.484 1742.75 180.889C1737.14 177.302 1731.85 172.955 1727.05 167.965C1722.59 163.327 1718.06 157.885 1713.2 151.329C1711.18 148.584 1709.16 145.83 1707.16 143.068C1704.81 139.828 1702.45 136.601 1700.06 133.388C1695.25 126.928 1690.71 121.631 1686.18 117.194C1681.17 112.297 1675.82 108.444 1670.27 105.736L1670.16 105.683C1664.56 102.97 1658.17 101.135 1651.16 100.228C1644.87 99.413 1637.85 99.124 1629.73 99.345C1625.88 99.447 1622.01 99.593 1618.15 99.738C1614.54 99.874 1610.92 100.01 1607.33 100.112C1599.11 100.344 1591.97 100.128 1585.5 99.452C1578.59 98.727 1571.85 97.208 1565.46 94.936C1559.55 92.803 1553.9 90.253 1547.24 87.08H1547.23C1542.63 84.882 1538.03 82.675 1533.44 80.47L1529.48 78.57V78.571ZM1471.39 40.918L1467.42 43.594L1467.61 46.316L1531.18 77.154C1536.81 79.862 1542.45 82.574 1548.1 85.271C1554.69 88.411 1560.28 90.934 1566.14 93.049C1572.36 95.266 1578.95 96.749 1585.72 97.459C1592.1 98.126 1599.15 98.339 1607.28 98.109C1610.86 98.007 1614.47 97.873 1618.08 97.737C1621.95 97.591 1625.82 97.445 1629.68 97.341C1637.91 97.119 1645.02 97.413 1651.42 98.242C1658.64 99.175 1665.24 101.072 1671.04 103.879L1671.14 103.927C1676.89 106.732 1682.42 110.713 1687.58 115.761C1692.18 120.265 1696.79 125.64 1701.67 132.191C1704.06 135.391 1706.45 138.687 1708.77 141.875C1710.78 144.639 1712.79 147.405 1714.82 150.137C1719.63 156.63 1724.1 162.007 1728.5 166.575C1733.19 171.451 1738.35 175.698 1743.83 179.198C1749.39 182.725 1755.29 185.749 1760.84 188.492C1766.63 191.344 1772.43 194.189 1778.22 197.026L1842.44 228.181L1843.89 227.206L1843.48 221.449L1781.06 191.161L1779.65 190.472C1774.33 187.87 1769 185.262 1763.66 182.629C1758.04 179.855 1752.08 176.783 1746.51 173.107C1741.06 169.489 1735.86 164.984 1731.03 159.717C1726.72 155.016 1722.24 149.463 1717.36 142.739C1716.09 140.992 1714.83 139.239 1713.56 137.484C1710.53 133.278 1707.39 128.93 1704.26 124.754C1699.47 118.372 1694.9 113.12 1690.31 108.698C1685.27 103.86 1679.91 100.033 1674.35 97.323L1674.24 97.268C1668.64 94.552 1662.26 92.687 1655.27 91.726C1648.93 90.854 1641.94 90.52 1633.91 90.707C1628.83 90.827 1623.61 91.042 1618.56 91.252C1616.2 91.35 1613.85 91.447 1611.49 91.536C1603.13 91.85 1595.94 91.753 1589.51 91.239C1582.33 90.666 1575.51 89.301 1569.24 87.18C1562.64 84.932 1556.33 81.998 1550.94 79.425C1546.05 77.086 1541.16 74.738 1536.29 72.391L1533.2 70.907L1471.39 40.918V40.918ZM1479.57 35.412L1473.32 39.624L1536.86 70.441C1541.84 72.8396 1546.82 75.2319 1551.81 77.618H1551.81C1557.15 80.167 1563.39 83.071 1569.89 85.283C1576 87.351 1582.66 88.683 1589.68 89.244C1596.03 89.752 1603.14 89.848 1611.43 89.534C1613.77 89.446 1616.12 89.349 1618.47 89.252C1623.53 89.042 1628.76 88.824 1633.87 88.705C1642.01 88.515 1649.11 88.855 1655.55 89.741C1662.74 90.732 1669.33 92.658 1675.12 95.466L1675.24 95.526C1680.99 98.329 1686.52 102.273 1691.7 107.253C1696.37 111.748 1701 117.079 1705.86 123.548C1709.01 127.736 1712.14 132.087 1715.18 136.294C1716.45 138.053 1717.72 139.811 1718.99 141.561C1723.82 148.218 1728.25 153.714 1732.51 158.361C1737.23 163.511 1742.31 167.911 1747.62 171.438C1753.11 175.058 1759 178.092 1764.55 180.832C1770.34 183.681 1776.13 186.52 1781.92 189.351L1843.33 219.145L1842.81 211.646L1784.79 183.496C1778.98 180.663 1773.18 177.821 1767.38 174.972C1760.84 171.752 1755.43 168.886 1750.26 165.358C1744.94 161.718 1739.78 157.122 1734.91 151.698C1734.67 151.426 1734.43 151.144 1734.18 150.868C1730.16 146.32 1726.04 141.142 1721.29 134.652L1719.55 132.258C1715.82 127.158 1711.97 121.887 1708.1 116.875C1703.29 110.657 1698.68 105.51 1694 101.142C1688.94 96.423 1683.54 92.651 1677.96 89.927L1677.84 89.868C1672.21 87.141 1665.85 85.22 1658.94 84.158C1652.58 83.184 1645.65 82.746 1637.73 82.822C1631.53 82.882 1625.14 83.11 1618.95 83.33L1615.42 83.455C1606.84 83.753 1599.84 83.685 1593.41 83.244C1586.09 82.74 1579.23 81.467 1573.01 79.46C1566.46 77.326 1560.36 74.49 1554.67 71.77C1548.75 68.9366 1542.84 66.0943 1536.93 63.243L1479.57 35.412H1479.57ZM1487.72 29.899L1481.48 34.113L1537.8 61.438C1543.7 64.282 1549.6 67.128 1555.53 69.962C1561.16 72.655 1567.19 75.46 1573.62 77.554C1579.69 79.511 1586.39 80.753 1593.55 81.244C1599.93 81.683 1606.85 81.75 1615.35 81.453L1618.88 81.328C1625.08 81.107 1631.48 80.878 1637.71 80.818C1645.73 80.742 1652.77 81.187 1659.24 82.178C1666.35 83.271 1672.9 85.251 1678.71 88.065L1678.83 88.125C1684.59 90.935 1690.15 94.821 1695.36 99.676C1700.13 104.12 1704.81 109.346 1709.68 115.649L1709.68 115.652C1713.57 120.686 1717.43 125.971 1721.16 131.082L1722.91 133.474C1727.67 139.982 1731.79 145.16 1735.83 149.708C1736.02 149.924 1736.21 150.145 1736.4 150.358C1741.15 155.656 1746.19 160.146 1751.39 163.703C1756.46 167.165 1761.8 169.993 1768.26 173.175C1774.07 176.033 1779.87 178.868 1785.66 181.695L1842.64 209.342L1842.12 201.848L1788.5 175.833L1787.47 175.329C1782.01 172.665 1776.55 169.995 1771.09 167.319C1765.78 164.709 1759.63 161.595 1753.98 157.665C1748.73 154.017 1743.58 149.402 1738.67 143.945C1734.47 139.271 1730.13 133.908 1724.99 127.065C1720.66 121.298 1716.18 115.335 1711.61 109.675C1706.76 103.665 1702.08 98.662 1697.29 94.376C1692.15 89.766 1686.63 86.026 1681.02 83.3C1675.36 80.558 1669.03 78.565 1662.2 77.376C1655.85 76.271 1648.98 75.69 1641.21 75.602C1634.12 75.52 1626.79 75.682 1619.69 75.839L1619.09 75.852C1610.46 76.045 1603.49 75.929 1597.17 75.488C1589.77 74.972 1582.9 73.722 1576.74 71.771C1570.12 69.676 1563.87 66.751 1558.36 64.17L1487.72 29.9V29.899ZM1495.9 24.395L1489.65 28.605L1559.22 62.36C1564.67 64.91 1570.87 67.81 1577.35 69.861C1583.36 71.765 1590.08 72.986 1597.31 73.489C1603.57 73.925 1610.48 74.039 1619.05 73.849L1619.65 73.836C1626.76 73.679 1634.11 73.516 1641.23 73.598C1649.11 73.688 1656.08 74.278 1662.54 75.401C1669.56 76.622 1676.06 78.673 1681.89 81.495C1687.68 84.328 1693.34 88.147 1698.63 92.882C1703.49 97.239 1708.25 102.32 1713.17 108.415C1717.73 114.062 1722.22 120.047 1726.57 125.836C1731.7 132.674 1736.02 137.993 1740.16 142.601C1744.97 147.949 1750 152.462 1755.12 156.017C1760.65 159.861 1766.72 162.937 1771.98 165.52C1777.79 168.371 1783.59 171.203 1789.37 174.027L1841.96 199.541L1841.43 192.045L1774.79 159.714C1768.6 156.615 1763.04 153.754 1757.68 150.042C1752.46 146.429 1747.3 141.857 1742.32 136.452C1740.82 134.811 1739.34 133.146 1737.89 131.457C1735.09 128.205 1732.1 124.547 1728.76 120.285C1728.66 120.161 1728.57 120.047 1728.47 119.924C1728.37 119.788 1728.26 119.648 1728.15 119.514C1727.14 118.225 1726.14 116.942 1725.13 115.668C1724.36 114.693 1723.57 113.711 1722.79 112.729C1722.46 112.313 1722.13 111.892 1721.8 111.477C1719.52 108.634 1717.21 105.824 1714.85 103.047C1709.93 97.26 1705.17 92.42 1700.29 88.244C1695.09 83.793 1689.6 80.162 1683.89 77.379C1678.2 74.625 1671.9 72.554 1665.16 71.227C1658.84 69.981 1652.06 69.239 1644.41 68.953C1637.3 68.688 1630.01 68.68 1622.55 68.694C1613.88 68.711 1606.96 68.486 1600.8 67.987C1593.42 67.39 1586.57 66.1 1580.44 64.15C1573.84 62.048 1567.59 59.104 1562.08 56.507L1495.9 24.395V24.395ZM1504.05 18.885L1497.81 23.095L1562.93 54.695C1568.38 57.262 1574.55 60.175 1581.04 62.241C1587.02 64.142 1593.72 65.404 1600.96 65.989C1607.07 66.484 1613.92 66.706 1622.54 66.69C1630.03 66.675 1637.34 66.684 1644.48 66.952C1652.24 67.24 1659.13 67.995 1665.55 69.259C1672.46 70.622 1678.92 72.746 1684.76 75.576L1684.91 75.648C1690.69 78.471 1696.31 82.196 1701.59 86.722C1706.55 90.967 1711.38 95.882 1716.37 101.747C1716.99 102.473 1717.6 103.22 1718.22 103.957C1722.24 108.771 1726.17 113.737 1729.88 118.477L1730.05 118.687C1730.15 118.818 1730.25 118.941 1730.35 119.073C1732.8 122.212 1735.31 125.308 1737.88 128.36C1739.8 130.647 1741.77 132.892 1743.79 135.093C1748.66 140.388 1753.72 144.863 1758.82 148.395C1764.06 152.025 1769.55 154.854 1775.67 157.916L1841.27 189.741L1840.74 182.244L1778.51 152.051C1772.56 149.093 1766.77 146.139 1761.36 142.478C1756.06 138.895 1751 134.549 1745.86 129.195C1741.66 124.802 1737.31 119.857 1731.78 113.161C1726.67 106.983 1722.35 101.848 1717.87 96.875C1712.86 91.317 1708.01 86.644 1703.05 82.588C1697.85 78.331 1692.35 74.773 1686.68 72.011L1686.52 71.933C1680.81 69.163 1674.54 67.015 1667.88 65.551C1661.61 64.166 1654.9 63.252 1647.38 62.756C1640.02 62.27 1632.39 62.061 1625.81 61.903C1617.07 61.693 1610.44 61.322 1604.31 60.703C1596.87 59.951 1590.26 58.6 1584.1 56.573C1577.56 54.416 1571.31 51.453 1565.79 48.841L1504.05 18.885V18.885ZM1512.22 13.383L1505.98 17.593L1566.65 47.031C1572.1 49.615 1578.28 52.547 1584.73 54.67C1590.75 56.652 1597.22 57.974 1604.51 58.71C1610.56 59.322 1617.15 59.69 1625.86 59.9C1632.47 60.059 1640.13 60.268 1647.51 60.757C1655.13 61.259 1661.93 62.187 1668.31 63.593C1675.12 65.093 1681.54 67.292 1687.39 70.13L1687.56 70.21C1693.36 73.04 1699 76.682 1704.32 81.036C1709.35 85.157 1714.27 89.899 1719.35 95.532C1721.37 97.7693 1723.35 100.034 1725.31 102.325C1725.57 102.635 1725.84 102.94 1726.1 103.254C1726.21 103.383 1726.32 103.516 1726.43 103.644C1728.75 106.375 1731.04 109.122 1733.32 111.884C1738.82 118.541 1743.13 123.452 1747.31 127.807C1752.26 132.975 1757.36 137.353 1762.48 140.818C1767.78 144.404 1773.5 147.326 1779.39 150.252L1840.58 179.942L1840.06 172.446L1782.23 144.386C1776.65 141.636 1770.73 138.666 1764.94 135.22C1759.39 131.285 1754.17 126.905 1749.32 122.124C1747.06 119.884 1744.84 117.597 1742.67 115.264C1742.41 114.984 1742.14 114.685 1741.87 114.397C1741.54 114.037 1741.21 113.685 1740.87 113.312L1740.78 113.21C1738.81 111.059 1736.86 108.888 1734.94 106.699C1730.44 101.582 1725.61 96.147 1720.72 91.053C1715.61 85.723 1710.68 81.217 1705.65 77.281C1705.05 76.814 1704.45 76.356 1703.84 75.905C1703.78 75.859 1703.72 75.811 1703.66 75.767C1703.54 75.674 1703.41 75.587 1703.29 75.496C1698.82 72.2104 1694.07 69.3258 1689.1 66.876L1689 66.827C1683.26 64.046 1677.02 61.825 1670.44 60.226C1664.21 58.709 1657.58 57.624 1650.18 56.908C1642.86 56.198 1635.37 55.764 1628.93 55.412C1620.29 54.939 1613.75 54.382 1607.72 53.605C1600.93 52.7243 1594.22 51.2817 1587.66 49.292L1587.62 49.276L1587.58 49.263C1587.51 49.232 1587.44 49.199 1587.36 49.169C1581.39 46.802 1575.74 44.149 1569.51 41.177L1512.22 13.383H1512.22ZM1520.38 7.87601L1514.14 12.087L1570.38 39.373C1576.62 42.355 1582.28 45.018 1588.28 47.387C1594.72 49.3391 1601.31 50.7546 1607.98 51.619C1613.92 52.386 1620.42 52.94 1629.04 53.412C1637.02 53.848 1643.71 54.27 1650.38 54.914C1657.87 55.638 1664.58 56.739 1670.91 58.279C1677.62 59.911 1684 62.181 1689.87 65.025C1689.93 65.055 1689.99 65.085 1690.06 65.117C1695.86 67.947 1701.52 71.507 1706.88 75.703C1712 79.709 1717 84.276 1722.17 89.666C1727.08 94.798 1731.93 100.247 1736.44 105.374C1742.1 111.805 1746.5 116.531 1750.72 120.699C1755.47 125.384 1760.59 129.68 1766.03 133.544C1771.69 136.907 1777.57 139.857 1783.1 142.587L1839.9 170.143L1839.38 162.643L1785.94 136.721L1785.94 136.72C1780.64 134.122 1774.5 131.07 1768.61 127.69C1763 123.936 1757.69 119.756 1752.72 115.188C1748.34 111.155 1743.8 106.608 1738 100.452C1733.39 95.555 1728.43 90.352 1723.46 85.475C1718.25 80.377 1713.24 76.036 1708.12 72.205C1708.02 72.128 1707.92 72.055 1707.81 71.979C1702.64 68.1449 1697.14 64.7846 1691.36 61.939L1691.25 61.89C1686.87 59.7822 1682.34 57.9922 1677.7 56.534C1676.11 56.03 1674.5 55.5632 1672.88 55.134C1666.69 53.491 1660.14 52.237 1652.87 51.3C1652.47 51.248 1652.06 51.2 1651.66 51.15C1651.22 51.095 1650.77 51.038 1650.32 50.984L1649.31 50.866C1648.76 50.801 1648.2 50.736 1647.65 50.673L1646.8 50.579C1646.2 50.513 1645.6 50.447 1645.01 50.384L1644.02 50.28C1643.51 50.227 1642.99 50.172 1642.47 50.121L1640.98 49.972L1640.01 49.875C1639.19 49.796 1638.36 49.7176 1637.54 49.64C1635.67 49.4651 1633.81 49.2951 1631.94 49.13C1623.43 48.372 1617 47.6 1611.07 46.627C1604.36 45.5162 1597.75 43.8808 1591.3 41.736H1591.3L1591.23 41.711C1588.2 40.4545 1585.19 39.1366 1582.21 37.758L1582.2 37.75C1579.19 36.3605 1576.2 34.9475 1573.22 33.511L1520.38 7.87601V7.87601ZM1528.55 2.36901L1522.3 6.57901L1574.09 31.708C1577 33.108 1579.89 34.484 1582.78 35.818L1583.09 35.962C1584.53 36.622 1585.97 37.27 1587.41 37.905L1587.52 37.953C1588.99 38.6 1590.47 39.233 1591.96 39.848C1598.3 41.9533 1604.8 43.5596 1611.39 44.652C1617.27 45.617 1623.66 46.383 1632.12 47.137C1633.93 47.2996 1635.74 47.4646 1637.55 47.632L1638.46 47.718C1639.51 47.8182 1640.56 47.9202 1641.61 48.024C1642.6 48.1227 1643.58 48.2237 1644.57 48.327L1645.13 48.385C1645.87 48.464 1646.6 48.544 1647.32 48.625L1647.8 48.677C1648.47 48.753 1649.13 48.83 1649.79 48.908L1650.53 48.995C1651.05 49.058 1651.57 49.123 1652.08 49.187L1653.12 49.315C1660.5 50.265 1667.13 51.535 1673.39 53.199C1675.05 53.639 1676.69 54.116 1678.3 54.626C1683.04 56.1127 1687.65 57.9387 1692.12 60.09L1692.23 60.139H1692.23C1698.04 62.931 1703.72 66.43 1709.14 70.472C1709.2 70.518 1709.26 70.56 1709.32 70.605C1709.76 70.93 1710.19 71.281 1710.62 71.613C1715.36 75.252 1720.03 79.317 1724.86 84.047C1729.86 88.949 1734.83 94.17 1739.46 99.081C1745.24 105.222 1749.75 109.736 1754.07 113.717C1756.5 115.948 1759.01 118.084 1761.6 120.121C1762.49 120.826 1763.41 121.507 1764.33 122.191C1764.75 122.501 1765.15 122.823 1765.57 123.129C1765.84 123.327 1766.13 123.514 1766.41 123.712C1767.48 124.484 1768.57 125.252 1769.67 125.993C1775.45 129.305 1781.55 132.34 1786.82 134.923L1788.61 135.79L1839.21 160.342L1838.69 152.842L1789.66 129.055C1784.04 126.332 1778.05 123.373 1772.27 120.199C1766.75 116.728 1761.3 112.819 1756.01 108.551C1751.3 104.334 1746.4 99.704 1740.99 94.363C1736.31 89.738 1731.3 84.823 1726.11 80.056C1720.8 75.175 1715.71 70.994 1710.53 67.275C1705.09 63.37 1699.45 59.968 1693.65 57.185C1687.89 54.389 1681.69 52.034 1675.25 50.185C1669.1 48.42 1662.63 47.002 1655.46 45.852C1648.52 44.734 1641.48 43.832 1634.86 43.002C1627.3 42.056 1620.58 41.052 1614.3 39.936C1607.58 38.373 1601.07 36.451 1594.91 34.216C1588.71 31.538 1582.63 28.613 1576.93 25.846L1528.55 2.37001L1528.55 2.36901ZM1845.96 228.218L1844.52 229.19L1834.44 235.99H1834.44L1828.19 240.204L1828.19 240.205L1819.33 246.178L1809.94 252.514L1762.47 229.482L1761.54 229.026C1756.06 226.346 1750.57 223.661 1745.07 220.955C1740.26 218.588 1733.95 215.447 1727.69 212.123C1721.5 208.815 1715.99 205.433 1710.83 201.786C1705.55 198.041 1700.26 193.746 1695.1 189.02C1690.3 184.618 1685.68 180.03 1680.23 174.495C1674.53 168.701 1669.76 164.253 1665.22 160.495C1659.94 156.119 1654.44 152.525 1648.88 149.813L1648.74 149.75C1643.13 147.031 1636.85 144.914 1630.07 143.457C1624.32 142.221 1617.84 141.223 1609.68 140.317C1603.01 139.576 1595.88 138.733 1588.93 137.588C1581.97 136.433 1575.27 134.902 1569 133.037C1562.9 131.206 1556.77 128.925 1550.28 126.061H1550.28C1545.46 123.923 1540.61 121.667 1535.92 119.487L1532.33 117.821L1468.44 86.825L1467.6 74.724L1467.61 74.729L1467.08 67.224L1467.07 67.219L1466.23 55.119L1466.24 55.123L1465.71 47.631L1465.7 47.623L1465.35 42.583L1471.23 38.615L1471.23 38.619L1477.49 34.401L1477.48 34.398L1487.56 27.594L1487.57 27.597L1493.82 23.383L1493.81 23.379L1503.89 16.58L1503.9 16.583L1510.14 12.372H1510.14L1518.3 6.86701L1518.3 6.86601L1528.38 0.0660095L1577.81 24.047C1583.49 26.804 1589.54 29.718 1595.65 32.357C1601.68 34.545 1608.11 36.444 1614.7 37.978C1620.89 39.078 1627.59 40.075 1635.11 41.018C1641.75 41.849 1648.8 42.755 1655.78 43.878C1663.02 45.041 1669.57 46.474 1675.8 48.262C1682.35 50.144 1688.66 52.54 1694.53 55.386L1694.79 55.514C1700.56 58.329 1706.25 61.738 1711.69 65.651C1716.94 69.417 1722.1 73.647 1727.46 78.584C1732.68 83.374 1737.7 88.302 1742.39 92.94C1747.78 98.258 1752.66 102.866 1757.3 107.029C1762.49 111.214 1767.88 115.076 1773.28 118.476C1778.97 121.599 1784.94 124.54 1790.54 127.256L1840.6 151.548L1841.29 161.348L1841.29 161.349L1842.14 173.45L1842.82 183.253L1842.82 183.251L1843.34 190.751L1843.35 190.752L1844.03 200.547H1844.03L1844.72 210.351L1844.72 210.353L1845.57 222.453L1845.56 222.449L1845.96 228.218V228.218Z" fill="#263228"/>
</svg>
