<svg xmlns="http://www.w3.org/2000/svg" viewBox="0 0 250 250"><defs><style>.cls-1,.cls-2,.cls-3{fill:none;}.cls-1{stroke:#ffef00;}.cls-1,.cls-2,.cls-3,.cls-4{stroke-miterlimit:10;}.cls-1,.cls-2{stroke-width:5px;}.cls-2,.cls-3{stroke:#00c1ff;}.cls-3{stroke-width:4px;}.cls-4{fill:#ffb200;stroke:#ffb200;stroke-width:3px;}</style></defs><g id="Layer_3" data-name="Layer 3"><path class="cls-1" d="M137.61,111.24H113.94A10.92,10.92,0,0,0,103,122.17v23.66a10.92,10.92,0,0,0,10.92,10.93h23.67a10.93,10.93,0,0,0,10.93-10.93V122.17A10.93,10.93,0,0,0,137.61,111.24Z"/><line class="cls-1" x1="116.08" y1="111.24" x2="116.08" y2="103.9"/><line class="cls-1" x1="135.8" y1="111.24" x2="135.8" y2="103.9"/><line class="cls-1" x1="125.94" y1="111.24" x2="125.94" y2="103.9"/><line class="cls-1" x1="103.02" y1="143.86" x2="95.97" y2="143.86"/><line class="cls-1" x1="155.13" y1="143.86" x2="148.54" y2="143.86"/><line class="cls-1" x1="103.02" y1="124.14" x2="95.97" y2="124.14"/><line class="cls-1" x1="155.13" y1="124.14" x2="148.54" y2="124.14"/><line class="cls-1" x1="155.13" y1="134" x2="148.54" y2="134"/><line class="cls-1" x1="103.02" y1="134" x2="95.97" y2="134"/><circle class="cls-1" cx="125.94" cy="134" r="10.83"/><line class="cls-1" x1="116.08" y1="164.04" x2="116.08" y2="157.45"/><line class="cls-1" x1="135.8" y1="164.04" x2="135.8" y2="157.45"/><line class="cls-1" x1="125.94" y1="164.04" x2="125.94" y2="157.45"/><path class="cls-2" d="M89.16,120.21A16,16,0,0,1,96,89.74a17.7,17.7,0,0,1,2.07.13c-2.11-8.22,4.45-17.4,15-20.72,10.83-3.41,21.76.62,24.41,9,.26.83,5-2.67,8.53-2.32,5,.5,8.82,3.63,8.82,8.5a8.79,8.79,0,0,1-.89,3.86c1-.1,2-.15,3-.15,11.15,0,16.29,8.6,16.29,16.45,0,6.73-2.09,9.86-12.3,15.7"/><polyline class="cls-3" points="137.29 77.69 137.6 78.58 138.83 77.93"/><path class="cls-4" d="M81.68,182.06l.81-1.52a39,39,0,0,1-18.31-47.12l-1.63-.58A40.69,40.69,0,0,0,81.68,182.06Z"/><path class="cls-4" d="M89.26,172.35l.7-1.58a26.73,26.73,0,0,1-13.68-35.19l-1.57-.69A28.45,28.45,0,0,0,89.26,172.35Z"/><path class="cls-4" d="M94.12,161.31l.7-1.57a14.65,14.65,0,0,1-7.5-19.3l-1.58-.69A16.37,16.37,0,0,0,94.12,161.31Z"/><path class="cls-4" d="M170.19,182.06l-.81-1.52a39,39,0,0,0,18.32-47.12l1.62-.58A40.68,40.68,0,0,1,170.19,182.06Z"/><path class="cls-4" d="M162.61,172.35l-.69-1.58a26.72,26.72,0,0,0,13.67-35.19l1.58-.69A28.45,28.45,0,0,1,162.61,172.35Z"/><path class="cls-4" d="M157.75,161.31l-.69-1.57a14.66,14.66,0,0,0,7.5-19.3l1.58-.69A16.37,16.37,0,0,1,157.75,161.31Z"/></g></svg>