<svg xmlns="http://www.w3.org/2000/svg" xmlns:xlink="http://www.w3.org/1999/xlink" viewBox="0 0 250 250"><defs><style>.cls-1{fill:none;}.cls-2{clip-path:url(#clip-path);}.cls-3{fill:#20beff;}</style><clipPath id="clip-path"><rect class="cls-1" x="40.6" y="28.35" width="492.58" height="221.65"/></clipPath></defs><g id="Layer_4" data-name="Layer 4"><g class="cls-2"><path class="cls-3" d="M167.15,176.62c-.1.4-.51.61-1.22.61H152.41a2.73,2.73,0,0,1-2.13-1.07l-22.34-28.42-6.23,5.93v22a1.35,1.35,0,0,1-1.52,1.52H109.7a1.35,1.35,0,0,1-1.52-1.52V75.26a1.35,1.35,0,0,1,1.52-1.52h10.49a1.35,1.35,0,0,1,1.52,1.52v61.85l26.75-27.05a3.06,3.06,0,0,1,2.13-1.06h14a1.17,1.17,0,0,1,1.21.75,1.24,1.24,0,0,1-.15,1.37l-28.27,27.35,29.48,36.63a1.37,1.37,0,0,1,.31,1.52"/></g></g></svg>