<svg xmlns="http://www.w3.org/2000/svg" viewBox="0 0 250 250"><defs><style>.cls-1,.cls-2{fill:none;stroke-miterlimit:10;stroke-width:5px;}.cls-1{stroke:#ffef00;}.cls-2{stroke:#00c1ff;}</style></defs><g id="Layer_2" data-name="Layer 2"><path class="cls-1" d="M137.36,102.34H113.69a10.92,10.92,0,0,0-10.92,10.93v23.66a10.92,10.92,0,0,0,10.92,10.93h23.67a10.93,10.93,0,0,0,10.93-10.93V113.27A10.93,10.93,0,0,0,137.36,102.34Z"/><line class="cls-1" x1="115.83" y1="102.34" x2="115.83" y2="95"/><line class="cls-1" x1="115.83" y1="162.42" x2="115.83" y2="147.86"/><line class="cls-1" x1="135.55" y1="162.42" x2="135.55" y2="147.86"/><line class="cls-1" x1="135.55" y1="102.34" x2="135.55" y2="95"/><line class="cls-1" x1="125.69" y1="147.86" x2="125.69" y2="170.28"/><line class="cls-1" x1="125.69" y1="102.34" x2="125.69" y2="95"/><line class="cls-1" x1="102.77" y1="134.96" x2="95.72" y2="134.96"/><line class="cls-1" x1="154.88" y1="134.96" x2="148.29" y2="134.96"/><line class="cls-1" x1="102.77" y1="115.24" x2="95.72" y2="115.24"/><line class="cls-1" x1="154.88" y1="115.24" x2="148.29" y2="115.24"/><line class="cls-1" x1="154.88" y1="125.1" x2="148.29" y2="125.1"/><line class="cls-1" x1="102.77" y1="125.1" x2="95.72" y2="125.1"/><polyline class="cls-1" points="103.61 162.42 115.83 162.42 115.83 161.91"/><polyline class="cls-1" points="149.13 162.42 135.55 162.42 135.55 161.69"/><path class="cls-1" d="M131.89,176.48a6.2,6.2,0,1,1-6.19-6.2A6.19,6.19,0,0,1,131.89,176.48Z"/><path class="cls-1" d="M161.07,162.42a6.19,6.19,0,1,1-6.19-6.19A6.19,6.19,0,0,1,161.07,162.42Z"/><path class="cls-1" d="M103.61,162.42a6.2,6.2,0,1,1-6.19-6.19A6.19,6.19,0,0,1,103.61,162.42Z"/><circle class="cls-1" cx="125.69" cy="125.1" r="10.83"/><line class="cls-2" x1="125.51" y1="63.67" x2="68.09" y2="98.67"/><polyline class="cls-2" points="89.65 113.35 68.09 98.67 68.72 98.28"/><polyline class="cls-2" points="182.97 98.67 125.51 63.67 124.98 63.99"/><polyline class="cls-2" points="161.05 114.26 182.97 98.67 182.14 98.16"/><path class="cls-2" d="M175.76,154.43l-.8,1a3.85,3.85,0,0,1-1.88,1.29h0a3.12,3.12,0,0,1-2.11-.08h0a4.18,4.18,0,0,1-1.77-1.34l-.83-1.07a12.81,12.81,0,0,1-2.32-4.85h0a9.55,9.55,0,0,1,.45-5.9h0a13.66,13.66,0,0,1,3.23-4.72L172,136.6l2.38,2.45a13,13,0,0,1,2.76,4.29h0a12.12,12.12,0,0,1,.73,6.08h0A10.28,10.28,0,0,1,175.76,154.43Z"/><line class="cls-2" x1="172.01" y1="136.6" x2="172.01" y2="106.46"/></g></svg>