<svg width="250" height="250" viewBox="0 0 250 250" fill="none" xmlns="http://www.w3.org/2000/svg">
<g clip-path="url(#clip0)">
<path d="M20.0387 192.342C22.6591 192.342 24.7834 189.973 24.7834 187.051C24.7834 184.129 22.6591 181.76 20.0387 181.76C17.4183 181.76 15.294 184.129 15.294 187.051C15.294 189.973 17.4183 192.342 20.0387 192.342Z" fill="white" stroke="#C4E4C7" stroke-width="6" stroke-linecap="round" stroke-linejoin="round"/>
<path d="M23.4894 128.367C26.1098 128.367 28.2341 125.998 28.2341 123.076C28.2341 120.154 26.1098 117.785 23.4894 117.785C20.869 117.785 18.7447 120.154 18.7447 123.076C18.7447 125.998 20.869 128.367 23.4894 128.367Z" fill="white" stroke="#C4E4C7" stroke-width="6" stroke-linecap="round" stroke-linejoin="round"/>
<path d="M30.822 61.0253C33.4424 61.0253 35.5667 58.6564 35.5667 55.7342C35.5667 52.812 33.4424 50.4431 30.822 50.4431C28.2016 50.4431 26.0774 52.812 26.0774 55.7342C26.0774 58.6564 28.2016 61.0253 30.822 61.0253Z" fill="white" stroke="#C4E4C7" stroke-width="6" stroke-linecap="round" stroke-linejoin="round"/>
<path d="M28.6654 123.076H89.4835H28.6654ZM24.7834 187.051H36.6891C38.7482 187.051 40.7395 186.229 42.3029 184.735L52.554 174.936C54.1174 173.442 56.1086 172.62 58.1678 172.62H85.6015L24.7834 187.051ZM35.5667 55.7342H47.3284C49.4743 55.7342 51.5432 56.6262 53.1311 58.2359L71.9196 77.2836C73.5073 78.893 75.576 79.7848 77.7219 79.7848H105.012L35.5667 55.7342Z" stroke="#C4E4C7" stroke-width="6" stroke-linecap="square"/>
<path d="M46.3501 107.684C48.9705 107.684 51.0948 105.315 51.0948 102.392C51.0948 99.4702 48.9705 97.1013 46.3501 97.1013C43.7297 97.1013 41.6054 99.4702 41.6054 102.392C41.6054 105.315 43.7297 107.684 46.3501 107.684Z" fill="white" stroke="#C4E4C7" stroke-width="6" stroke-linecap="round" stroke-linejoin="round"/>
<path d="M51.5261 102.392H112.344" stroke="#C4E4C7" stroke-width="6" stroke-linecap="square"/>
<path d="M36.8607 157.228C39.4811 157.228 41.6054 154.859 41.6054 151.937C41.6054 149.015 39.4811 146.646 36.8607 146.646C34.2403 146.646 32.1161 149.015 32.1161 151.937C32.1161 154.859 34.2403 157.228 36.8607 157.228Z" fill="white" stroke="#C4E4C7" stroke-width="6" stroke-linecap="round" stroke-linejoin="round"/>
<path d="M42.0367 151.937H102.855" stroke="#C4E4C7" stroke-width="6" stroke-linecap="square"/>
<path d="M214.139 199.557C211.519 199.557 209.395 197.188 209.395 194.266C209.395 191.344 211.519 188.975 214.139 188.975C216.76 188.975 218.884 191.344 218.884 194.266C218.884 197.188 216.76 199.557 214.139 199.557Z" fill="white" stroke="#C4E4C7" stroke-width="6" stroke-linecap="round" stroke-linejoin="round"/>
<path d="M213.492 127.886C210.872 127.886 208.748 125.517 208.748 122.595C208.748 119.673 210.872 117.304 213.492 117.304C216.113 117.304 218.237 119.673 218.237 122.595C218.237 125.517 216.113 127.886 213.492 127.886Z" fill="white" stroke="#C4E4C7" stroke-width="6" stroke-linecap="round" stroke-linejoin="round"/>
<path d="M229.236 89.8861C226.616 89.8861 224.491 87.5171 224.491 84.5949C224.491 81.6727 226.616 79.3038 229.236 79.3038C231.856 79.3038 233.981 81.6727 233.981 84.5949C233.981 87.5171 231.856 89.8861 229.236 89.8861Z" fill="white" stroke="#C4E4C7" stroke-width="6" stroke-linecap="round" stroke-linejoin="round"/>
<path d="M224.491 84.595H212.586C210.526 84.5951 208.535 85.4166 206.972 86.911L196.721 96.7093C195.157 98.2038 193.166 99.0254 191.107 99.0254H163.673L224.491 84.595ZM208.963 194.266H200.94C198.88 194.266 196.889 193.444 195.326 191.95L185.15 182.223C183.541 180.685 181.481 179.861 179.363 179.909L161.085 180.316L208.963 194.266Z" stroke="#C4E4C7" stroke-width="6" stroke-linecap="square"/>
<path d="M230.746 157.228C228.125 157.228 226.001 154.859 226.001 151.937C226.001 149.015 228.125 146.646 230.746 146.646C233.366 146.646 235.49 149.015 235.49 151.937C235.49 154.859 233.366 157.228 230.746 157.228Z" fill="white" stroke="#C4E4C7" stroke-width="6" stroke-linecap="round" stroke-linejoin="round"/>
<path d="M208.316 122.595H165.83H208.316ZM225.57 151.937H164.751H225.57Z" stroke="#C4E4C7" stroke-width="6" stroke-linecap="square"/>
<path d="M128.045 64.8734C161.732 64.8734 189.036 95.1051 189.036 132.408C189.036 164.395 169.453 189.624 149.59 195.204L137.254 159.841L150.797 151.106L150.919 151.025C151.695 150.493 152.336 149.748 152.781 148.861C153.225 147.974 153.458 146.974 153.458 145.958V126.455C147.789 125.325 143.486 119.796 143.486 113.147C143.486 112.223 143.569 111.32 143.728 110.448L130.796 102.107L130.657 102.02C129.859 101.54 128.963 101.295 128.056 101.311C127.148 101.326 126.26 101.6 125.474 102.107L105.472 115.007L105.35 115.089C104.574 115.622 103.934 116.367 103.489 117.254C103.045 118.141 102.812 119.14 102.812 120.156V145.958L102.814 146.117C102.838 147.133 103.094 148.125 103.56 148.998C104.026 149.872 104.684 150.598 105.472 151.106L119.438 160.114L106.694 195.108C87.2406 189.504 67.4855 163.914 67.4855 132.432C67.4855 95.1291 94.3577 64.8734 128.045 64.8734Z" fill="#3FA648" stroke="#23552A" stroke-width="9.606" stroke-linecap="round" stroke-linejoin="round"/>
<path d="M138.515 140.903C138.742 140.903 138.968 140.953 139.178 141.05C139.388 141.147 139.579 141.289 139.74 141.469C139.9 141.648 140.028 141.861 140.115 142.096C140.202 142.33 140.246 142.581 140.246 142.834C140.246 143.088 140.202 143.339 140.115 143.573C140.028 143.808 139.9 144.021 139.74 144.2C139.579 144.379 139.388 144.522 139.178 144.619C138.968 144.716 138.742 144.766 138.515 144.766H117.742C117.515 144.766 117.29 144.716 117.079 144.619C116.869 144.521 116.679 144.379 116.518 144.2C116.357 144.021 116.23 143.808 116.143 143.573C116.056 143.339 116.011 143.088 116.011 142.834C116.011 142.581 116.056 142.33 116.143 142.096C116.23 141.861 116.357 141.648 116.518 141.469C116.679 141.289 116.87 141.147 117.08 141.05C117.29 140.953 117.515 140.903 117.742 140.903H138.516H138.515ZM131.591 131.246C131.818 131.246 132.043 131.296 132.253 131.394C132.463 131.491 132.654 131.633 132.815 131.812C132.976 131.991 133.103 132.205 133.19 132.439C133.277 132.673 133.322 132.924 133.322 133.178C133.322 133.431 133.277 133.682 133.19 133.917C133.103 134.151 132.976 134.364 132.815 134.543C132.654 134.722 132.463 134.865 132.253 134.962C132.043 135.059 131.818 135.109 131.591 135.109H117.742C117.515 135.109 117.29 135.059 117.08 134.962C116.87 134.865 116.679 134.723 116.518 134.543C116.357 134.364 116.23 134.151 116.143 133.917C116.056 133.682 116.011 133.431 116.011 133.178C116.011 132.924 116.056 132.673 116.143 132.439C116.23 132.205 116.357 131.991 116.518 131.812C116.679 131.633 116.87 131.49 117.08 131.394C117.29 131.296 117.515 131.246 117.742 131.246H131.591ZM138.515 121.59C138.742 121.59 138.968 121.64 139.178 121.737C139.388 121.833 139.579 121.976 139.74 122.155C139.9 122.335 140.028 122.548 140.115 122.782C140.202 123.016 140.246 123.267 140.246 123.521C140.246 123.774 140.202 124.025 140.115 124.26C140.028 124.494 139.9 124.707 139.74 124.886C139.579 125.066 139.388 125.208 139.178 125.305C138.968 125.402 138.742 125.452 138.515 125.452H117.742C117.515 125.452 117.29 125.402 117.079 125.305C116.869 125.208 116.679 125.065 116.518 124.886C116.357 124.707 116.23 124.494 116.143 124.26C116.056 124.025 116.011 123.774 116.011 123.521C116.011 123.267 116.056 123.016 116.143 122.782C116.23 122.548 116.357 122.335 116.518 122.155C116.679 121.976 116.87 121.833 117.08 121.737C117.29 121.64 117.515 121.59 117.742 121.59H138.516H138.515Z" fill="#23552A"/>
<path d="M153.101 125.965C158.244 125.965 162.414 121.307 162.414 115.562C162.414 109.816 158.244 105.158 153.101 105.158C147.958 105.158 143.789 109.816 143.789 115.562C143.789 121.307 147.958 125.965 153.101 125.965Z" fill="white" stroke="#23552A" stroke-width="9.606" stroke-linecap="round" stroke-linejoin="round"/>
<path d="M156.241 116.936C156.241 117.473 156.156 117.938 155.986 118.33C155.827 118.707 155.593 119.04 155.303 119.303C155.019 119.559 154.695 119.752 154.333 119.88C153.971 120.008 153.597 120.072 153.212 120.072C152.869 120.073 152.527 120.022 152.197 119.917C151.887 119.819 151.591 119.671 151.321 119.477C151.06 119.289 150.831 119.052 150.644 118.777C150.454 118.496 150.313 118.179 150.228 117.841L151.925 117.259C152.007 117.564 152.16 117.816 152.386 118.014C152.611 118.212 152.879 118.312 153.19 118.312C153.508 118.312 153.783 118.204 154.016 117.99C154.249 117.775 154.366 117.456 154.366 117.035C154.366 116.779 154.318 116.564 154.222 116.39C154.129 116.221 154.002 116.079 153.85 115.975C153.691 115.869 153.516 115.796 153.334 115.759C153.144 115.717 152.951 115.697 152.757 115.696C152.476 115.696 152.156 115.731 151.798 115.802C151.439 115.872 151.119 115.965 150.838 116.081L151.027 111.061H155.841V112.846H152.68L152.613 114.234C152.743 114.199 152.874 114.176 153.007 114.166C153.151 114.154 153.282 114.147 153.401 114.147C153.793 114.147 154.163 114.205 154.51 114.321C154.858 114.436 155.159 114.612 155.414 114.847C155.671 115.085 155.878 115.384 156.019 115.721C156.167 116.069 156.241 116.473 156.241 116.936H156.241Z" fill="#23552A"/>
</g>
<defs>
<clipPath id="clip0">
<rect width="223" height="152" fill="white" transform="translate(14 49)"/>
</clipPath>
</defs>
</svg>
