<svg xmlns="http://www.w3.org/2000/svg" viewBox="0 0 250 250"><defs><style>.cls-1{fill:#53c1de;}.cls-2{fill:#fff;}</style></defs><g id="Layer_6" data-name="Layer 6"><path class="cls-1" d="M120.67,114.24a11,11,0,1,0,11,11A11,11,0,0,0,120.67,114.24Zm0,0a11,11,0,1,0,11,11A11,11,0,0,0,120.67,114.24Zm0,0a11,11,0,1,0,11,11A11,11,0,0,0,120.67,114.24Zm0,0a11,11,0,1,0,11,11A11,11,0,0,0,120.67,114.24Zm0,0a11,11,0,1,0,11,11A11,11,0,0,0,120.67,114.24Zm0,0a11,11,0,1,0,11,11A11,11,0,0,0,120.67,114.24Zm0,0a11,11,0,1,0,11,11A11,11,0,0,0,120.67,114.24Zm0,0a11,11,0,1,0,11,11A11,11,0,0,0,120.67,114.24Zm0,0a11,11,0,1,0,11,11A11,11,0,0,0,120.67,114.24Zm0,0a11,11,0,1,0,11,11A11,11,0,0,0,120.67,114.24Zm0,0a11,11,0,1,0,11,11A11,11,0,0,0,120.67,114.24Zm0,0a11,11,0,1,0,11,11A11,11,0,0,0,120.67,114.24Zm39.81-8.19c-1.32-.46-2.64-.87-4-1.26.22-.9.43-1.8.61-2.71,3-14.62,1-26.39-5.68-30.27-6.44-3.72-17,.16-27.63,9.43-1,.91-2.08,1.85-3.08,2.82q-1-1-2-1.89C107.52,72.26,96.33,68.09,89.62,72c-6.44,3.73-8.35,14.8-5.64,28.65.27,1.37.57,2.74.91,4.1-1.58.44-3.11.92-4.57,1.43-13.08,4.56-21.44,11.71-21.44,19.13,0,7.65,9,15.34,22.6,20,1.1.38,2.22.73,3.34,1-.37,1.46-.69,2.93-1,4.41-2.59,13.61-.57,24.42,5.86,28.12,6.63,3.83,17.76-.1,28.61-9.58.85-.75,1.71-1.55,2.57-2.38,1.09,1.05,2.2,2.06,3.34,3.05,10.51,9,20.88,12.69,27.29,9,6.63-3.84,8.79-15.45,6-29.57-.21-1.08-.46-2.18-.74-3.3.78-.24,1.55-.47,2.3-.72,14.16-4.7,23.38-12.28,23.38-20C182.45,117.84,173.82,110.64,160.48,106.05ZM127.26,85.22c9.13-7.94,17.65-11.08,21.54-8.84,4.14,2.39,5.74,12,3.15,24.63-.18.83-.36,1.64-.56,2.46a127.51,127.51,0,0,0-16.52-2.61,125.91,125.91,0,0,0-10.45-13C125.35,86.93,126.3,86.06,127.26,85.22ZM95.37,131.61c1.12,2.16,2.28,4.29,3.5,6.39s2.54,4.27,3.88,6.35a111.31,111.31,0,0,1-11.39-1.83C92.45,139,93.8,135.33,95.37,131.61Zm0-12.41c-1.54-3.65-2.85-7.23-3.92-10.7,3.52-.79,7.28-1.43,11.2-1.92-1.31,2-2.58,4.12-3.79,6.23S96.47,117,95.36,119.2Zm2.81,6.2c1.62-3.38,3.38-6.7,5.25-10s3.88-6.43,6-9.53c3.68-.28,7.45-.43,11.26-.43s7.59.15,11.27.43q3.13,4.65,5.95,9.5t5.33,9.92q-2.47,5.08-5.31,10T132,144.89c-3.67.27-7.45.4-11.31.4s-7.59-.12-11.19-.35q-3.21-4.68-6-9.58T98.17,125.4ZM142.48,138c1.24-2.16,2.44-4.34,3.58-6.55a109.34,109.34,0,0,1,4.15,10.87,111.62,111.62,0,0,1-11.52,2C140,142.18,141.26,140.09,142.48,138ZM146,119.2q-1.71-3.26-3.55-6.43t-3.76-6.18c4,.5,7.72,1.16,11.27,2A112.64,112.64,0,0,1,146,119.2ZM120.72,91.6a111.69,111.69,0,0,1,7.28,8.78q-7.31-.34-14.61,0C115.79,97.21,118.25,94.27,120.72,91.6ZM92.26,76.54c4.14-2.39,13.28,1,22.91,9.58.62.54,1.23,1.11,1.85,1.71a126.25,126.25,0,0,0-10.52,13A128.92,128.92,0,0,0,90,103.42c-.32-1.27-.6-2.54-.85-3.81C86.84,87.74,88.38,78.79,92.26,76.54Zm-6,64.69c-1-.29-2-.61-3-.95a44.72,44.72,0,0,1-14.42-7.66c-3.06-2.62-4.61-5.23-4.61-7.34,0-4.5,6.71-10.24,17.9-14.14,1.4-.49,2.82-.94,4.25-1.34a128.56,128.56,0,0,0,6,15.61A127.63,127.63,0,0,0,86.24,141.23Zm28.6,24.06A44.61,44.61,0,0,1,101,174c-3.81,1.35-6.84,1.38-8.67.33-3.89-2.25-5.51-10.93-3.3-22.57.26-1.37.56-2.74.9-4.1A123,123,0,0,0,106.59,150a129.44,129.44,0,0,0,10.61,13.11C116.43,163.87,115.64,164.59,114.84,165.29Zm6-6c-2.5-2.7-5-5.69-7.43-8.9q3.54.13,7.23.14c2.51,0,5-.06,7.45-.17A112,112,0,0,1,120.87,159.33Zm32,7.34c-.73,4-2.21,6.61-4,7.67-3.9,2.26-12.22-.67-21.2-8.4-1-.89-2.07-1.83-3.11-2.83A124.73,124.73,0,0,0,134.93,150a122.18,122.18,0,0,0,16.73-2.58c.25,1,.48,2,.67,3A44.6,44.6,0,0,1,152.92,166.67Zm4.49-26.36c-.68.22-1.37.44-2.08.65a122.38,122.38,0,0,0-6.26-15.66,122.93,122.93,0,0,0,6-15.42c1.26.36,2.49.75,3.67,1.16,11.43,3.93,18.41,9.75,18.41,14.24C177.17,130.05,169.64,136.25,157.41,140.31Zm-36.74-4a11,11,0,1,0-11-11A11,11,0,0,0,120.67,136.31Zm0-22.07a11,11,0,1,0,11,11A11,11,0,0,0,120.67,114.24Zm0,0a11,11,0,1,0,11,11A11,11,0,0,0,120.67,114.24Zm0,0a11,11,0,1,0,11,11A11,11,0,0,0,120.67,114.24Zm0,0a11,11,0,1,0,11,11A11,11,0,0,0,120.67,114.24Zm0,0a11,11,0,1,0,11,11A11,11,0,0,0,120.67,114.24Zm0,0a11,11,0,1,0,11,11A11,11,0,0,0,120.67,114.24Zm0,0a11,11,0,1,0,11,11A11,11,0,0,0,120.67,114.24Zm0,0a11,11,0,1,0,11,11A11,11,0,0,0,120.67,114.24Zm0,0a11,11,0,1,0,11,11A11,11,0,0,0,120.67,114.24Zm0,0a11,11,0,1,0,11,11A11,11,0,0,0,120.67,114.24Z"/><path class="cls-2" d="M120.67,114.24a11,11,0,1,0,11,11A11,11,0,0,0,120.67,114.24Z"/><path class="cls-1" d="M131.7,125.28a11,11,0,1,1-11-11A11,11,0,0,1,131.7,125.28Z"/></g></svg>